<?xml version="1.0" standalone="no"?>
<!DOCTYPE svg PUBLIC "-//W3C//DTD SVG 1.1//EN" "http://www.w3.org/Graphics/SVG/1.1/DTD/svg11.dtd" >
<svg>
<metadata>
Created by FontForge 20090914 at Sat Jun 18 12:05:56 2022
 By www-data
</metadata>
<defs>
<font id="GeorgeRoundedRegular" horiz-adv-x="1132" >
  <font-face 
    font-family="George Rounded"
    font-weight="400"
    font-stretch="normal"
    units-per-em="2048"
    panose-1="0 0 0 0 0 0 0 0 0 0"
    ascent="1638"
    descent="-410"
    x-height="950"
    cap-height="1433"
    bbox="101.16 -647.998 2236.3 1927"
    underline-thickness="102"
    underline-position="-205"
    unicode-range="U+000A-U+F001"
  />
<missing-glyph horiz-adv-x="1181" 
d="M102 1434h875v-1434h-875v1434zM160 1393l379 -633l381 633h-760zM514 717l-369 614v-1231zM541 674l-379 -631h758zM565 717l371 -621v1239z" />
    <glyph glyph-name=".notdef" horiz-adv-x="1181" 
d="M102 1434h875v-1434h-875v1434zM160 1393l379 -633l381 633h-760zM514 717l-369 614v-1231zM541 674l-379 -631h758zM565 717l371 -621v1239z" />
    <glyph glyph-name=".null" horiz-adv-x="0" 
 />
    <glyph glyph-name=".null" horiz-adv-x="0" 
 />
    <glyph glyph-name="controlLF" unicode="&#xa;" horiz-adv-x="0" 
 />
    <glyph glyph-name="controlCR" unicode="&#xd;" horiz-adv-x="0" 
 />
    <glyph glyph-name="space" unicode=" " horiz-adv-x="614" 
 />
    <glyph glyph-name="exclam" unicode="!" horiz-adv-x="417" 
d="M182 279c-11.333 0 -21.168 4 -29.501 12s-12.833 17.667 -13.5 29l-36 1138c-0.666992 11.333 3 21.166 11 29.499s17.667 12.5 29 12.5h132c11.333 0 21 -4.16699 29 -12.5s11.667 -18.166 11 -29.499l-37 -1138c-0.666992 -11.333 -5.16699 -21 -13.5 -29
s-18.166 -12 -29.499 -12h-53zM208.998 166c26.667 0 49.334 -9.33301 68.001 -28s28 -41.334 28 -68.001s-9.33301 -49.334 -28 -68.001s-41.334 -28 -68.001 -28s-49.334 9.33301 -68.001 28s-28 41.334 -28 68.001s9.33301 49.334 28 68.001s41.334 28 68.001 28z" />
    <glyph glyph-name="quotedbl" unicode="&#x22;" horiz-adv-x="716" 
d="M573 1339c11.333 0 21.166 -4.16699 29.499 -12.5s12.5 -18.166 12.5 -29.499v-280c0 -11.333 -4.16699 -21.166 -12.5 -29.499s-18.166 -12.5 -29.499 -12.5h-76c-11.333 0 -21.166 4.16699 -29.499 12.5s-12.5 18.166 -12.5 29.499v280
c0 11.333 4.16699 21.166 12.5 29.499s18.166 12.5 29.499 12.5h76zM221 1339c11.333 0 21.166 -4.16699 29.499 -12.5s12.5 -18.166 12.5 -29.499v-280c0 -11.333 -4.16699 -21.166 -12.5 -29.499s-18.166 -12.5 -29.499 -12.5h-77c-11.333 0 -21.166 4.16699 -29.499 12.5
s-12.5 18.166 -12.5 29.499v280c0 11.333 4.16699 21.166 12.5 29.499s18.166 12.5 29.499 12.5h77z" />
    <glyph glyph-name="numbersign" unicode="#" horiz-adv-x="1368" 
d="M1224 989c11.333 0 21.165 -4.16699 29.498 -12.5s12.5 -18.166 12.5 -29.499v-77c0 -11.333 -4.16699 -21.166 -12.5 -29.499s-18.166 -12.5 -29.499 -12.5h-170c-11.333 0 -21.666 -4 -30.999 -12s-14.666 -17.667 -15.999 -29l-30 -233
c-1.33301 -11.333 1.5 -21.166 8.5 -29.499s16.167 -12.5 27.5 -12.5h162c11.333 0 21.166 -4.16699 29.499 -12.5s12.5 -18.166 12.5 -29.499v-76c0 -11.333 -4.16699 -21.166 -12.5 -29.499s-18.166 -12.5 -29.499 -12.5h-183c-11.333 0 -21.666 -4 -30.999 -12
s-14.666 -17.667 -15.999 -29l-35 -274c-1.33301 -11.333 -6.66602 -21.166 -15.999 -29.499s-19.666 -12.5 -30.999 -12.5h-78c-11.333 0 -20.666 4.16699 -27.999 12.5s-10.333 18.166 -9 29.499l36 274c1.33301 11.333 -1.66699 21 -9 29s-16.666 12 -27.999 12h-219
c-11.333 0 -21.666 -4 -30.999 -12s-14.666 -17.667 -15.999 -29l-35 -274c-1.33301 -11.333 -6.66602 -21.166 -15.999 -29.499s-19.666 -12.5 -30.999 -12.5h-78c-11.333 0 -20.666 4.16699 -27.999 12.5s-10.333 18.166 -9 29.499l36 274
c1.33301 11.333 -1.66699 21 -9 29s-16.666 12 -27.999 12h-138c-11.333 0 -21.166 4.16699 -29.499 12.5s-12.5 18.166 -12.5 29.499v76c0 11.333 4.16699 21.166 12.5 29.499s18.166 12.5 29.499 12.5h159c11.333 0 21.666 4.16699 30.999 12.5
s14.666 18.166 15.999 29.499l30 233c1.33301 11.333 -1.5 21 -8.5 29s-16.167 12 -27.5 12h-151c-11.333 0 -21.166 4.16699 -29.499 12.5s-12.5 18.166 -12.5 29.499v77c0 11.333 4.16699 21.166 12.5 29.499s18.166 12.5 29.499 12.5h172c11.333 0 21.666 4 30.999 12
s14.666 17.667 15.999 29l46 357c1.33301 11.333 6.66602 21.166 15.999 29.499s19.666 12.5 30.999 12.5h78c11.333 0 20.666 -4.16699 27.999 -12.5s10.333 -18.166 9 -29.499l-47 -357c-1.33301 -11.333 1.66699 -21 9 -29s16.666 -12 27.999 -12h219
c11.333 0 21.666 4 30.999 12s14.666 17.667 15.999 29l46 357c1.33301 11.333 6.66602 21.166 15.999 29.499s19.666 12.5 30.999 12.5h78c11.333 0 20.5 -4.16699 27.5 -12.5s9.83301 -18.166 8.5 -29.499l-46 -357c-1.33301 -11.333 1.66699 -21 9 -29
s16.666 -12 27.999 -12h149zM814.999 554l30 233c1.33301 11.333 -1.5 21 -8.5 29s-16.167 12 -27.5 12h-219c-11.333 0 -21.666 -4 -30.999 -12s-14.666 -17.667 -15.999 -29l-30 -233c-1.33301 -11.333 1.5 -21.166 8.5 -29.499s16.167 -12.5 27.5 -12.5h219
c11.333 0 21.666 4.16699 30.999 12.5s14.666 18.166 15.999 29.499z" />
    <glyph glyph-name="dollar" unicode="$" horiz-adv-x="1191" 
d="M1086 450c12.667 -126 -18.335 -240.002 -93.002 -342.002s-173.667 -166.333 -297 -193c-16 -4 -24 -13.667 -24 -29v-96c0 -8 -2.66699 -14.833 -8 -20.5s-12 -8.5 -20 -8.5h-103c-8 0 -14.833 2.83301 -20.5 8.5s-8.5 12.5 -8.5 20.5v95
c0 15.333 -7.66699 24.666 -23 27.999c-96.667 20 -180.167 65 -250.5 135s-115.5 153.667 -135.5 251c-2.66699 12.667 0.333008 24.167 9 34.5s21.334 16.5 38.001 18.5l65 7c10.667 0.666992 20.334 -2.16602 29.001 -8.49902s14.334 -14.833 17.001 -25.5
c18 -82.667 61.833 -149.167 131.5 -199.5s147.5 -71.166 233.5 -62.499c92.667 9.33301 168.334 50.166 227.001 122.499s83.334 154.833 74.001 247.5c-3.33301 30 -9.5 57.667 -18.5 83s-19 47 -30 65s-26.333 35.333 -46 52s-36.834 30 -51.501 40
s-35.334 20.833 -62.001 32.5s-47.834 20.334 -63.501 26.001l-67.5 23.5c-63.333 22 -105.333 38.333 -126 49c-104 52.667 -175.5 120.167 -214.5 202.5s-42.167 171.833 -9.5 268.5c19.333 56.667 50.333 104.834 93 144.501s92.667 68.167 150 85.5
c20.667 6.66699 31 20.334 31 41.001v89c0 12 4.33301 22.167 13 30.5s19 12.5 31 12.5h73c12 0 22.167 -4.16699 30.5 -12.5s12.5 -18.5 12.5 -30.5v-118l36 -6c26.667 -6.66699 54.334 -18.167 83.001 -34.5s56.834 -37.166 84.501 -62.499s51.834 -57.166 72.501 -95.499
s34.334 -79.5 41.001 -123.5c2 -12.667 -1.16699 -24 -9.5 -34s-19.166 -15.333 -32.499 -16l-74 -1c-10.667 0 -20.167 3.33301 -28.5 10s-13.5 15.334 -15.5 26.001c-6.66699 35.333 -21.834 67 -45.501 95s-45.5 47.667 -65.5 59s-36.667 18.666 -50 21.999
c-62.667 15.333 -120.167 10.5 -172.5 -14.5s-87.833 -64.5 -106.5 -118.5c-4.66699 -14 -8.16699 -26 -10.5 -36s-3.16602 -26.333 -2.49902 -49s5.5 -43.334 14.5 -62.001s25.667 -40 50 -64s55.833 -45.667 94.5 -65c18 -8.66699 52.667 -22 104 -40l58 -20.5
c14 -5 34.167 -12.833 60.5 -23.5s47.666 -20.5 63.999 -29.5s36.5 -21 60.5 -36s43.667 -30.167 59 -45.5s32.166 -33.833 50.499 -55.5s33.166 -44.334 44.499 -68.001s21.666 -50.834 30.999 -81.501s15.666 -63 18.999 -97z" />
    <glyph glyph-name="percent" unicode="%" horiz-adv-x="1671" 
d="M663 1148c0 -77.333 -27.333 -143.5 -82 -198.5s-120.667 -82.5 -198 -82.5s-143.5 27.5 -198.5 82.5s-82.5 121.167 -82.5 198.5s27.5 143.333 82.5 198s121.167 82 198.5 82s143.333 -27.333 198 -82s82 -120.667 82 -198zM383 1028c32.667 0 60.834 11.667 84.501 35
s35.5 51.666 35.5 84.999s-11.833 61.666 -35.5 84.999s-51.834 35 -84.501 35s-60.834 -11.667 -84.501 -35s-35.5 -51.666 -35.5 -84.999s11.833 -61.666 35.5 -84.999s51.834 -35 84.501 -35zM1495 467c52 -56 76.335 -123.332 73.002 -201.999
c-3.33301 -74.667 -32 -138 -86 -190s-118.333 -78 -193 -78c-1.33301 0 -3.5 0.166992 -6.5 0.5s-5.16699 0.5 -6.5 0.5c-76.667 3.33301 -141.334 33.666 -194.001 90.999c-52 56.667 -76.333 123.667 -73 201c3.33301 76.667 33.666 141.334 90.999 194.001
c58.667 53.333 125.667 77.666 201 72.999c77.333 -3.33301 142 -33.333 194 -90zM1322 173.001c2 0.666992 5.00098 2 9.00098 4s10.833 6 20.5 12s18.334 12.5 26.001 19.5s14.667 16.333 21 28s9.83301 23.5 10.5 35.5c1.33301 33.333 -9.33398 62.333 -32.001 87
c-6.66699 7.33301 -13.5 13.333 -20.5 18s-12.5 7.66699 -16.5 9l-5 2c-24.667 6.66699 -39.667 10 -45 10h-1c-30.667 0 -57.667 -10.667 -81 -32c-24 -22 -37 -49.667 -39 -83c-1.33301 -33.333 9 -62 31 -86c6.66699 -7.33301 13.5 -13.333 20.5 -18
s12.5 -7.66699 16.5 -9l6 -2c25.333 -6.66699 51.666 -5 78.999 5zM1166 1429c11.333 0 19.668 -3.83301 25.001 -11.5s6 -16.834 2 -27.501l-543 -1356c-4.66699 -10.667 -12.5 -19.834 -23.5 -27.501s-22.167 -11.5 -33.5 -11.5h-89c-11.333 0 -19.5 3.83301 -24.5 11.5
s-5.5 16.834 -1.5 27.501l542 1356c4 10.667 11.667 19.834 23 27.501s22.666 11.5 33.999 11.5h89z" />
    <glyph glyph-name="ampersand" unicode="&#x26;" horiz-adv-x="1392" 
d="M1247 558c12 0 22.167 -4.16602 30.5 -12.499s12.5 -18.5 12.5 -30.5v-74c0 -12 -4.16699 -22.167 -12.5 -30.5s-18.5 -12.5 -30.5 -12.5h-160v-46c0 -83.333 -21.667 -160.333 -65 -231s-102.166 -126.667 -176.499 -168s-155.166 -62 -242.499 -62h-16
c-133.333 0 -247.5 45.167 -342.5 135.5s-142.5 198.833 -142.5 325.5v38c0 82 21.333 157.667 64 227s99.667 124.666 171 165.999c-81.333 70.667 -122 157 -122 259v27c0 96.667 35.833 179.167 107.5 247.5s158.167 102.5 259.5 102.5h25
c73.333 0 140.666 -19.167 201.999 -57.5s106.333 -89.833 135 -154.5c13.333 -30 22 -60 26 -90c2 -12.667 -1.33301 -23.834 -10 -33.501s-19.667 -14.5 -33 -14.5h-74c-10.667 0 -20 3.33301 -28 10s-13 15.334 -15 26.001c-2.66699 12 -6.66699 24 -12 36
c-16 36 -41.333 64.667 -76 86s-73 32 -115 32h-25c-57.333 0 -106.166 -18.5 -146.499 -55.5s-60.5 -81.833 -60.5 -134.5v-28c0 -52.667 20.167 -97.5 60.5 -134.5s89.166 -55.5 146.499 -55.5h12c11.333 0 21.166 -4 29.499 -12s12.5 -17.667 12.5 -29v-78
c0 -11.333 -4.16699 -21 -12.5 -29s-18.166 -12 -29.499 -12h-7c-89.333 0 -165.833 -29.5 -229.5 -88.5s-95.5 -129.833 -95.5 -212.5v-38c0 -82.667 31.833 -153.334 95.5 -212.001s140.167 -88 229.5 -88h16c89.333 0 165.666 29.333 228.999 88s95 129.334 95 212.001
v46h-160c-12 0 -22.333 4.16699 -31 12.5s-13 18.5 -13 30.5v74c0 12 4.33301 22.167 13 30.5s19 12.5 31 12.5h480z" />
    <glyph glyph-name="quotesingle" unicode="'" horiz-adv-x="364" 
d="M221 1339c11.333 0 21 -4.16699 29 -12.5s12 -18.166 12 -29.499v-280c0 -11.333 -4 -21.166 -12 -29.499s-17.667 -12.5 -29 -12.5h-77c-11.333 0 -21.166 4.16699 -29.499 12.5s-12.5 18.166 -12.5 29.499v280c0 11.333 4.16699 21.166 12.5 29.499
s18.166 12.5 29.499 12.5h77z" />
    <glyph glyph-name="parenleft" unicode="(" horiz-adv-x="516" 
d="M262 713c0 -73.333 12.333 -166.501 37 -279.501s49.667 -207.5 75 -283.5l37 -115c4 -10.667 3.16699 -20 -2.5 -28s-14.167 -12 -25.5 -12h-92c-11.333 0 -22.333 3.83301 -33 11.5s-17.667 17.167 -21 28.5c-10 32 -22.5 74.167 -37.5 126.5s-35 139 -60 260
s-37.5 218.167 -37.5 291.5c0 72.667 11.167 165.334 33.5 278.001s44.5 207 66.5 283l34 115c3.33301 11.333 10.333 20.833 21 28.5s21.667 11.5 33 11.5h92c11.333 0 20 -4 26 -12s7 -17.333 3 -28l-16 -47.5c-6.66699 -20.333 -18.667 -59.5 -36 -117.5
s-32.5 -113.667 -45.5 -167s-24.833 -112.5 -35.5 -177.5s-16 -120.5 -16 -166.5z" />
    <glyph glyph-name="parenright" unicode=")" horiz-adv-x="516" 
d="M280 1389l14.5039 -47.502c6.33301 -20.333 17.166 -59.666 32.499 -117.999s28.833 -114.166 40.5 -167.499s22.334 -112.5 32.001 -177.5s14.5 -120.5 14.5 -166.5c0 -73.333 -11.333 -166.333 -34 -279s-45.334 -207 -68.001 -283l-33 -115
c-3.33301 -11.333 -10.333 -20.833 -21 -28.5s-21.667 -11.5 -33 -11.5h-92c-11.333 0 -19.833 4 -25.5 12s-6.5 17.333 -2.5 28c11.333 32 25.166 74.167 41.499 126.5s38.166 139 65.499 260s41 218.167 41 291.5s-12.333 166.333 -37 279s-49.334 207 -74.001 283
l-37 114c-4 10.667 -3 20 3 28s14.667 12 26 12h92c11.333 0 22.333 -3.83301 33 -11.5s17.667 -17.167 21 -28.5z" />
    <glyph glyph-name="asterisk" unicode="*" horiz-adv-x="792" 
d="M676 1225l13.0029 -75.002c2 -11.333 -0.333008 -21.833 -7 -31.5s-15.667 -15.5 -27 -17.5l-93 -16c-11.333 -2 -19 -7.33301 -23 -16s-3 -18 3 -28l49 -85c5.33301 -10 6.5 -20.667 3.5 -32s-9.5 -19.666 -19.5 -24.999l-66 -38
c-10 -5.33301 -20.5 -6.66602 -31.5 -3.99902s-19.5 9 -25.5 19l-49 86c-6 10 -13.667 15.333 -23 16s-17.666 -3.33301 -24.999 -12l-64 -76c-7.33301 -8.66699 -16.833 -13.5 -28.5 -14.5s-21.834 2.16699 -30.501 9.5l-58 49c-8.66699 7.33301 -13.5 16.833 -14.5 28.5
s2.16699 21.834 9.5 30.501l63 76c4.66699 6 7.5 12 8.5 18s-0.333008 11.5 -4 16.5s-9.16699 8.83301 -16.5 11.5l-90 32c-10.667 4 -18.5 11.167 -23.5 21.5s-5.5 21.166 -1.5 32.499l26 72c4 10.667 11.167 18.5 21.5 23.5s21.166 5.5 32.499 1.5l89 -33
c10.667 -4 19.834 -3.16699 27.501 2.5s11.5 14.167 11.5 25.5v96c0 11.333 4.16699 21.166 12.5 29.499s18.166 12.5 29.499 12.5h77c11.333 0 21.166 -4.16699 29.499 -12.5s12.5 -18.166 12.5 -29.499v-116c0 -11.333 4 -20.333 12 -27s17.667 -9 29 -7l113 20
c11.333 2 21.666 -0.333008 30.999 -7s15 -15.667 17 -27z" />
    <glyph glyph-name="plus" unicode="+" horiz-adv-x="997" 
d="M852 793c11.333 0 21.166 -4.16699 29.499 -12.5s12.5 -18.166 12.5 -29.499v-76c0 -11.333 -4.16699 -21.166 -12.5 -29.499s-18.166 -12.5 -29.499 -12.5h-232c-11.333 0 -21.166 -4.16699 -29.499 -12.5s-12.5 -18.166 -12.5 -29.499v-232
c0 -11.333 -4 -21.166 -12 -29.499s-17.667 -12.5 -29 -12.5h-77c-11.333 0 -21.166 4.16699 -29.499 12.5s-12.5 18.166 -12.5 29.499v232c0 11.333 -4.16699 21.166 -12.5 29.499s-18.166 12.5 -29.499 12.5h-232c-11.333 0 -21.166 4.16699 -29.499 12.5
s-12.5 18.166 -12.5 29.499v76c0 11.333 4.16699 21.166 12.5 29.499s18.166 12.5 29.499 12.5h232c11.333 0 21.166 4.16699 29.499 12.5s12.5 18.166 12.5 29.499v232c0 11.333 4.16699 21.166 12.5 29.499s18.166 12.5 29.499 12.5h77c11.333 0 21 -4.16699 29 -12.5
s12 -18.166 12 -29.499v-232c0 -11.333 4.16699 -21.166 12.5 -29.499s18.166 -12.5 29.499 -12.5h232z" />
    <glyph glyph-name="comma" unicode="," horiz-adv-x="360" 
d="M221 166c11.333 0 20.498 -4.16602 27.498 -12.499s9.83301 -18.166 8.5 -29.499l-25 -174c-1.33301 -11.333 -6.66602 -21 -15.999 -29s-19.666 -12 -30.999 -12h-41c-11.333 0 -21.166 4.16699 -29.499 12.5s-12.5 18.166 -12.5 29.499v173
c0 11.333 4.16699 21.166 12.5 29.499s18.166 12.5 29.499 12.5h77z" />
    <glyph glyph-name="hyphen" unicode="-" horiz-adv-x="997" 
d="M852 793c11.333 0 21.166 -4.16699 29.499 -12.5s12.5 -18.166 12.5 -29.499v-76c0 -11.333 -4.16699 -21.166 -12.5 -29.499s-18.166 -12.5 -29.499 -12.5h-708c-11.333 0 -21.166 4.16699 -29.499 12.5s-12.5 18.166 -12.5 29.499v76
c0 11.333 4.16699 21.166 12.5 29.499s18.166 12.5 29.499 12.5h708z" />
    <glyph glyph-name="period" unicode="." horiz-adv-x="397" 
d="M199 166c26.667 0 49.334 -9.33301 68.001 -28s28 -41.334 28 -68.001s-9.33301 -49.334 -28 -68.001s-41.334 -28 -68.001 -28s-49.5 9.33301 -68.5 28s-28.5 41.334 -28.5 68.001s9.5 49.334 28.5 68.001s41.833 28 68.5 28z" />
    <glyph glyph-name="slash" unicode="/" horiz-adv-x="925" 
d="M794 1429c11.333 0 19.499 -3.83301 24.499 -11.5s5.5 -16.834 1.5 -27.501l-542 -1356c-4.66699 -10.667 -12.667 -19.834 -24 -27.501s-22.666 -11.5 -33.999 -11.5h-89c-11.333 0 -19.5 3.83301 -24.5 11.5s-5.5 16.834 -1.5 27.501l543 1356
c4.66699 10.667 12.5 19.834 23.5 27.501s22.167 11.5 33.5 11.5h89z" />
    <glyph glyph-name="zero" unicode="0" horiz-adv-x="1142" 
d="M571 0c-84.667 0 -163.167 21 -235.5 63s-129.333 99 -171 171s-62.5 150.333 -62.5 235v480c0 128.667 46 239 138 331s202.333 138 331 138c84.667 0 163 -20.833 235 -62.5s129 -98.667 171 -171s63 -150.833 63 -235.5v-480c0 -84.667 -21 -163.167 -63 -235.5
s-99 -129.333 -171 -171s-150.333 -62.5 -235 -62.5zM263 949v-480.004c0 -85.333 30.167 -158.166 90.5 -218.499s132.833 -90.5 217.5 -90.5s157.334 30.333 218.001 91s91 133.334 91 218.001v480c0 84.667 -30.333 157.334 -91 218.001s-133.334 91 -218.001 91
s-157.167 -30.167 -217.5 -90.5s-90.5 -133.166 -90.5 -218.499z" />
    <glyph glyph-name="one" unicode="1" horiz-adv-x="692" 
d="M259 1159c-26 -10 -54.6699 -19.665 -86.0029 -28.998c-2 -0.666992 -4 0.5 -6 3.5s-3.66699 7.66699 -5 14s-2 13.166 -2 20.499v85c0 11.333 3.83301 22.5 11.5 33.5s16.834 18.5 27.501 22.5l57 25c15.333 7.33301 40 20.333 74 39l89 51c10 5.33301 18.5 6 25.5 2
s10.5 -11.667 10.5 -23v-1398c0 -11.333 -4.16699 -21.166 -12.5 -29.499s-18.166 -12.5 -29.499 -12.5h-76c-11.333 0 -21.166 4.16699 -29.499 12.5s-12.5 18.166 -12.5 29.499v1127c0 11.333 -3.5 19.666 -10.5 24.999s-15.5 6 -25.5 2z" />
    <glyph glyph-name="two" unicode="2" horiz-adv-x="1075" 
d="M262 978l-0.000976562 -61.001c0 -11.333 -3.83301 -20.833 -11.5 -28.5s-16.834 -11.5 -27.501 -11.5h-81c-10.667 0 -20 3.83301 -28 11.5s-12 17.167 -12 28.5v61c0 83.333 21.5 159.666 64.5 228.999s101.333 122.666 175 159.999s152.834 52 237.501 44
c111.333 -10.667 204.833 -59.167 280.5 -145.5s113.5 -186.5 113.5 -300.5v-13c0 -30.667 -5.66699 -70 -17 -118c-17.333 -70.667 -162 -273.667 -434 -609c-10.667 -12.667 -12.334 -26.667 -5.00098 -42s19.333 -23 36 -23h346c11.333 0 20.833 -4 28.5 -12
s11.5 -17.333 11.5 -28v-80c0 -10.667 -3.83301 -20 -11.5 -28s-17.167 -12 -28.5 -12h-686c-17.333 0 -29.5 7.66699 -36.5 23s-5.16699 29.333 5.5 42l55 66c137.333 164 262.833 320.5 376.5 469.5s175.834 239.833 186.501 272.5c8 30.667 12 57 12 79v16
c0 70.667 -22.5 133.334 -67.5 188.001s-101.833 86.334 -170.5 95.001c-83.333 10.667 -156.166 -11.666 -218.499 -66.999s-93.5 -124 -93.5 -206z" />
    <glyph glyph-name="three" unicode="3" horiz-adv-x="1114" 
d="M607 3c-116.667 -14.667 -223.168 12.167 -319.501 80.5s-157.833 158.5 -184.5 270.5c-2.66699 11.333 -0.5 22 6.5 32s16.167 15.667 27.5 17l80 11c10 1.33301 19.167 -0.833984 27.5 -6.50098s13.833 -13.167 16.5 -22.5c17.333 -65.333 53 -119.166 107 -161.499
s115 -63.5 183 -63.5c86.667 0 159.834 31.833 219.501 95.5s86.5 139.167 80.5 226.5c-5.33301 79.333 -38.333 145.833 -99 199.5s-131.334 80.5 -212.001 80.5h-63c-16 0 -27.667 7 -35 21s-6.66602 27.667 2.00098 41l242 372c8.66699 13.333 9.33398 27 2.00098 41
s-19 21 -35 21h-439c-11.333 0 -20.833 3.83301 -28.5 11.5s-11.5 16.834 -11.5 27.501v81c0 10.667 4 20 12 28s17.333 12 28 12h734c16 0 27.667 -7 35 -21s6.66602 -27.667 -2.00098 -41l-268 -412c-6.66699 -10.667 -8.16699 -21.834 -4.5 -33.501
s11.167 -20.167 22.5 -25.5c84.667 -36 153 -93 205 -171s77.333 -164.667 76 -260c-1.33301 -114 -41 -214.333 -119 -301s-173.333 -136.667 -286 -150z" />
    <glyph glyph-name="four" unicode="4" horiz-adv-x="1124" 
d="M866 932l0.00195312 -350.001c0 -11.333 4.16699 -21 12.5 -29s18.166 -12 29.499 -12h72c11.333 0 21.166 -4.16699 29.499 -12.5s12.5 -18.166 12.5 -29.499v-77c0 -11.333 -4.16699 -21.166 -12.5 -29.499s-18.166 -12.5 -29.499 -12.5h-72
c-11.333 0 -21.166 -4 -29.499 -12s-12.5 -17.667 -12.5 -29v-297c0 -11.333 -4 -21.166 -12 -29.499s-17.667 -12.5 -29 -12.5h-77c-11.333 0 -21.166 4.16699 -29.499 12.5s-12.5 18.166 -12.5 29.499v297c0 11.333 -4.16699 21.166 -12.5 29.499
s-18.166 12.5 -29.499 12.5h-533c-11.333 0 -19.5 3.66699 -24.5 11s-5.16699 16.333 -0.5 27l425 976c4.66699 10.667 12.667 19.667 24 27s22.666 11 33.999 11h92c11.333 0 19.5 -3.66699 24.5 -11s5.16699 -16.333 0.5 -27l-356 -816
c-4.66699 -10.667 -4.5 -19.667 0.5 -27s13.167 -11 24.5 -11h289c11.333 0 21.166 4 29.499 12s12.5 17.667 12.5 29v350c0 11.333 4.16699 21.166 12.5 29.499s18.166 12.5 29.499 12.5h76c11.333 0 21.166 -4.16699 29.499 -12.5s12.5 -18.166 12.5 -29.499z" />
    <glyph glyph-name="five" unicode="5" horiz-adv-x="1114" 
d="M290 81c-96.667 67.333 -158.669 158.005 -186.002 272.005c-2.66699 11.333 -0.666992 22.166 6 32.499s15.667 16.166 27 17.499l80 11c10 1.33301 19.167 -0.833984 27.5 -6.50098s13.833 -13.167 16.5 -22.5c19.333 -73.333 59.333 -130.666 120 -171.999
c72.667 -49.333 153.334 -64.333 242.001 -45c54.667 12.667 102.5 40 143.5 82s67.167 90.667 78.5 146c17.333 85.333 2.33301 156.666 -45 213.999c-26.667 33.333 -61.834 59.166 -105.501 77.499s-91.5 27.5 -143.5 27.5h-347c-11.333 0 -21 4.5 -29 13.5
s-11.333 19.167 -10 30.5l59 623c1.33301 10 5.5 18.5 12.5 25.5s15.833 10.5 26.5 10.5h629c10.667 0 20 -4 28 -12s12 -17.333 12 -28v-81c0 -10.667 -3.83301 -19.834 -11.5 -27.501s-17.167 -11.5 -28.5 -11.5h-483c-10.667 0 -19.667 -3.66699 -27 -11
s-11.666 -16 -12.999 -26l-28 -302c-1.33301 -12 1.83398 -22.333 9.50098 -31s17.5 -13 29.5 -13h171c76 0 146.5 -14.333 211.5 -43s118.833 -69 161.5 -121c38.667 -46.667 64.667 -100 78 -160s13.333 -122.333 0 -187c-18 -87.333 -58 -163 -120 -227
s-136.333 -105.667 -223 -125c-36 -8 -72 -12 -108 -12c-96 0 -183 27 -261 81z" />
    <glyph glyph-name="six" unicode="6" horiz-adv-x="1105" 
d="M547 0c-115.333 0 -215.333 39.332 -300 117.999s-131.667 175 -141 289h-4v307c0 92 17.333 180.167 52 264.5s81.5 157.666 140.5 219.999s129.5 113 211.5 152s168.333 61.167 259 66.5c10.667 0.666992 20.167 -3 28.5 -11s12.5 -17.667 12.5 -29v-81
c0 -10 -3.5 -19 -10.5 -27s-15.5 -12.333 -25.5 -13c-128 -8.66699 -239 -57 -333 -145s-149.667 -195.333 -167 -322c83.333 66.667 175.666 100 276.999 100c69.333 0 134.666 -14.167 195.999 -42.5s112.5 -66.166 153.5 -113.499s70.833 -103.166 89.5 -167.499
s22.334 -130.5 11.001 -198.5c-18 -106 -69.667 -193.667 -155 -263s-182.666 -104 -291.999 -104h-3zM559 728.999c-84 0 -154.501 -27.6689 -211.501 -83.002s-85.5 -122.666 -85.5 -201.999c0 -78.667 27.833 -145.667 83.5 -201s122.834 -83 201.501 -83h12
c78.667 0 145.667 27.667 201 83s83 122.333 83 201s-27.667 145.834 -83 201.501s-122.333 83.5 -201 83.5z" />
    <glyph glyph-name="seven" unicode="7" horiz-adv-x="1083" 
d="M559 870l157.001 314c6.66699 13.333 6.16699 26.333 -1.5 39s-18.834 19 -33.501 19h-539c-10.667 0 -20 4 -28 12s-12 17.333 -12 28v80c0 10.667 4 20 12 28s17.333 12 28 12h798c14.667 0 26 -6.33301 34 -19s8.66699 -25.667 2 -39l-274 -545
c-120 -239.333 -182.667 -492.666 -188 -759.999c0 -10.667 -3.83301 -19.834 -11.5 -27.501s-17.167 -11.5 -28.5 -11.5h-80c-10.667 0 -20 4 -28 12s-12 17.333 -12 28c6 293.333 74.333 570 205 830z" />
    <glyph glyph-name="eight" unicode="8" horiz-adv-x="1093" 
d="M523 0c-116 0 -215.165 41 -297.498 123s-123.5 181 -123.5 297c0 70.667 16.5 136.5 49.5 197.5s77.5 110.833 133.5 149.5c-41.333 34.667 -74 76.5 -98 125.5s-36 101.167 -36 156.5c0 101.333 36.167 188.166 108.5 260.499s159.166 108.5 260.499 108.5h54
c101.333 0 188.166 -36.167 260.499 -108.5s108.5 -159.166 108.5 -260.499c0 -55.333 -12 -107.333 -36 -156s-57 -90.667 -99 -126c56 -38.667 100.5 -88.5 133.5 -149.5s49.5 -126.833 49.5 -197.5c0 -116 -41 -215 -123 -297s-181 -123 -297 -123h-48zM520.002 1257
c-57.333 0 -106.5 -20.333 -147.5 -61s-61.5 -89.667 -61.5 -147s20.5 -106.5 61.5 -147.5s90.167 -61.5 147.5 -61.5h54c57.333 0 106.5 20.5 147.5 61.5s61.5 90.167 61.5 147.5s-20.5 106.333 -61.5 147s-90.167 61 -147.5 61h-54zM523.002 680
c-72 0 -133.499 -25.5 -184.499 -76.5s-76.5 -112.167 -76.5 -183.5s25.667 -132.5 77 -183.5s112.666 -76.5 183.999 -76.5h48c71.333 0 132.5 25.5 183.5 76.5s76.5 112.167 76.5 183.5s-25.5 132.5 -76.5 183.5s-112.167 76.5 -183.5 76.5h-48z" />
    <glyph glyph-name="nine" unicode="9" horiz-adv-x="1105" 
d="M559 529c-69.333 0 -134.666 14.167 -195.999 42.5s-112.5 66.166 -153.5 113.499s-70.833 103.166 -89.5 167.499s-22.334 130.5 -11.001 198.5c18 106 69.667 193.667 155 263s182.666 104 291.999 104h3c115.333 0 215.333 -39.333 300 -118s131.667 -175 141 -289h3
v-307c0 -122.667 -29.333 -236.667 -88 -342s-138.667 -190.166 -240 -254.499s-212.666 -99.833 -333.999 -106.5c-10.667 -0.666992 -20.167 3 -28.5 11s-12.5 17.667 -12.5 29v81c0 10 3.5 18.833 10.5 26.5s15.5 11.834 25.5 12.501c128 8.66699 239 57 333 145
s149.667 195.333 167 322c-82 -66 -174.333 -99 -277 -99zM547 1258c-78.667 0 -145.667 -27.833 -201 -83.5s-83 -122.834 -83 -201.501s27.667 -145.667 83 -201s122.333 -83 201 -83c84 0 154.333 27.5 211 82.5s85 122.167 85 201.5
c0 78.667 -27.667 145.834 -83 201.501s-122.333 83.5 -201 83.5h-12z" />
    <glyph glyph-name="colon" unicode=":" horiz-adv-x="397" 
d="M199 530c-26.667 0 -49.5 9.5 -68.5 28.5s-28.5 41.833 -28.5 68.5s9.5 49.334 28.5 68.001s41.833 28 68.5 28s49.334 -9.33301 68.001 -28s28 -41.334 28 -68.001s-9.33301 -49.5 -28 -68.5s-41.334 -28.5 -68.001 -28.5zM199 166c26.667 0 49.334 -9.33301 68.001 -28
s28 -41.334 28 -68.001s-9.33301 -49.334 -28 -68.001s-41.334 -28 -68.001 -28s-49.5 9.33301 -68.5 28s-28.5 41.334 -28.5 68.001s9.5 49.334 28.5 68.001s41.833 28 68.5 28z" />
    <glyph glyph-name="semicolon" unicode=";" horiz-adv-x="397" 
d="M199 530c-26.667 0 -49.5 9.5 -68.5 28.5s-28.5 41.833 -28.5 68.5s9.5 49.334 28.5 68.001s41.833 28 68.5 28s49.334 -9.33301 68.001 -28s28 -41.334 28 -68.001s-9.33301 -49.5 -28 -68.5s-41.334 -28.5 -68.001 -28.5zM237 166
c11.333 0 20.498 -4.16602 27.498 -12.499s9.83301 -18.166 8.5 -29.499l-25 -174c-1.33301 -11.333 -6.66602 -21 -15.999 -29s-19.666 -12 -30.999 -12h-41c-11.333 0 -21.166 4.16699 -29.499 12.5s-12.5 18.166 -12.5 29.499v173c0 11.333 4.16699 21.166 12.5 29.499
s18.166 12.5 29.499 12.5h77z" />
    <glyph glyph-name="less" unicode="&#x3c;" horiz-adv-x="878" 
d="M741 991l-351 -254.006c-9.33301 -7.33301 -14 -15.666 -14 -24.999s4.66699 -17.333 14 -24l351 -254c9.33301 -6.66699 17.333 -16.667 24 -30s10 -25.666 10 -36.999v-114c0 -11.333 -3.33301 -18.666 -10 -21.999s-14.667 -1.66602 -24 5.00098l-625 452
c-9.33301 6.66699 -14 14.667 -14 24s4.66699 17.666 14 24.999l625 452c9.33301 6.66699 17.333 8.33398 24 5.00098s10 -10.666 10 -21.999v-114c0 -11.333 -3.33301 -23.666 -10 -36.999s-14.667 -23.333 -24 -30z" />
    <glyph glyph-name="equal" unicode="=" horiz-adv-x="997" 
d="M852 1004c11.333 0 21.166 -4.16699 29.499 -12.5s12.5 -18.166 12.5 -29.499v-76c0 -11.333 -4.16699 -21.166 -12.5 -29.499s-18.166 -12.5 -29.499 -12.5h-708c-11.333 0 -21.166 4.16699 -29.499 12.5s-12.5 18.166 -12.5 29.499v76
c0 11.333 4.16699 21.166 12.5 29.499s18.166 12.5 29.499 12.5h708zM852 575c11.333 0 21.166 -4.16699 29.499 -12.5s12.5 -18.166 12.5 -29.499v-76c0 -11.333 -4.16699 -21.166 -12.5 -29.499s-18.166 -12.5 -29.499 -12.5h-708c-11.333 0 -21.166 4.16699 -29.499 12.5
s-12.5 18.166 -12.5 29.499v76c0 11.333 4.16699 21.166 12.5 29.499s18.166 12.5 29.499 12.5h708z" />
    <glyph glyph-name="greater" unicode="&#x3e;" horiz-adv-x="878" 
d="M762 737c9.33301 -7.33301 14 -15.6641 14 -24.9971s-4.66699 -17.333 -14 -24l-626 -452c-9.33301 -6.66699 -17.333 -8.33398 -24 -5.00098s-10 10.666 -10 21.999v114c0 11.333 3.33301 23.333 10 36s14.667 22.667 24 30l353 255c9.33301 6.66699 14 14.667 14 24
s-4.66699 17.666 -14 24.999l-353 255c-9.33301 7.33301 -17.333 17.333 -24 30s-10 24.667 -10 36v114c0 11.333 3.33301 18.833 10 22.5s14.667 2.16699 24 -4.5z" />
    <glyph glyph-name="question" unicode="?" horiz-adv-x="974" 
d="M484 166c26.667 0 49.334 -9.33301 68.001 -28s28 -41.334 28 -68.001s-9.33301 -49.334 -28 -68.001s-41.334 -28 -68.001 -28s-49.5 9.33301 -68.5 28s-28.5 41.334 -28.5 68.001s9.5 49.334 28.5 68.001s41.833 28 68.5 28zM612 1398
c89.333 -30 158.328 -87.9961 206.995 -173.996s64 -176.333 46 -271c-16 -87.333 -57.333 -158.333 -124 -213c-56 -46 -99.333 -103.5 -130 -172.5s-46 -143.5 -46 -223.5v-23c0 -11.333 -4.16699 -21.166 -12.5 -29.499s-18.166 -12.5 -29.499 -12.5h-76
c-11.333 0 -21.166 4.16699 -29.499 12.5s-12.5 18.166 -12.5 29.499v23c0 104 20.333 201.333 61 292s98.334 166.667 173.001 228c37.333 31.333 60.333 71 69 119c10.667 55.333 1.66699 108.666 -27 159.999s-68.667 85.666 -120 102.999
c-72.667 24.667 -140 17 -202 -23c-48.667 -30.667 -81 -75.334 -97 -134.001c-2.66699 -10 -8.16699 -18 -16.5 -24s-17.833 -8.33301 -28.5 -7l-77 8c-12.667 1.33301 -22.667 7.16602 -30 17.499s-9.66602 21.5 -6.99902 33.5c22.667 101.333 79.334 181.333 170.001 240
c50 32 104.5 51.667 163.5 59s117.5 1.33301 175.5 -18z" />
    <glyph glyph-name="at" unicode="@" horiz-adv-x="2254" 
d="M2143 760c12 -89.333 13 -178.334 3 -267.001c-10 -84.667 -39 -156.667 -87 -216s-104.333 -101.166 -169 -125.499s-132 -33.5 -202 -27.5c-68.667 6 -133 27.5 -193 64.5s-105.667 87.167 -137 150.5c-42.667 -46.667 -92.667 -83.5 -150 -110.5
s-117 -40.5 -179 -40.5h-14c-110.667 4 -198.334 46.667 -263.001 128c-66 82.667 -88.667 180.334 -68 293.001c19.333 104.667 71.333 192.334 156 263.001s179.334 106 284.001 106c1.33301 0 3.66602 -0.166992 6.99902 -0.5s6 -0.5 8 -0.5
c74 -2.66699 139.667 -24.667 197 -66c1.33301 26 11.5 47.5 30.5 64.5s41.5 24.833 67.5 23.5l29 -1c10.667 -0.666992 19.334 -4.83398 26.001 -12.501s9.66699 -16.834 9 -27.501l-21 -423c-2.66699 -54 7.5 -100.167 30.5 -138.5s51.167 -66 84.5 -83
s69.666 -27.167 108.999 -30.5c31.333 -3.33301 62.666 -1.16602 93.999 6.50098s60.5 20.334 87.5 38.001s50 42.334 69 74.001s30.833 68.167 35.5 109.5c8.66699 74 8 150 -2 228c-22.667 169.333 -92.667 316 -210 440s-259.666 202.667 -426.999 236
c-128 25.333 -255.667 22.5 -383 -8.5s-243 -87.167 -347 -168.5c-106 -82.667 -189.833 -182.834 -251.5 -300.501s-95.834 -242.167 -102.501 -373.5c-5.33301 -115.333 11.167 -225.5 49.5 -330.5s95.833 -197.833 172.5 -278.5
c72.667 -76.667 157 -136.334 253 -179.001s197.667 -66.334 305 -71.001c10 -0.666992 18.667 -4.66699 26 -12s11 -16 11 -26v-84c0 -10.667 -3.83301 -20 -11.5 -28s-16.834 -11.667 -27.501 -11c-129.333 5.33301 -251.666 33.666 -366.999 84.999
s-217 123.333 -305 216c-92.667 97.333 -161.834 208.5 -207.501 333.5s-65.167 256.167 -58.5 393.5c7.33301 154 47.333 300.167 120 438.5s171.334 256.166 296.001 353.499c122 96 258 162 408 198s300.333 39.333 451 10
c200.667 -39.333 371.334 -133.666 512.001 -282.999s224.667 -325.666 252.001 -528.999zM1312 586.999c12.667 64 0.668945 118.333 -35.998 163c-33.333 42.667 -81 65 -143 67h-8c-65.333 0 -125.833 -23.333 -181.5 -70s-89.834 -102.667 -102.501 -168
c-12.667 -64 -0.666992 -118.333 36 -163c34 -43.333 81.667 -66 143 -68h9c65.333 0 125.666 23.5 180.999 70.5s89.333 103.167 102 168.5z" />
    <glyph glyph-name="A" unicode="A" horiz-adv-x="1380" 
d="M425 333c-17.333 0 -29.333 -8 -36 -24l-123 -286c-6.66699 -16 -18.667 -24 -36 -24h-88c-14.667 0 -25.667 6 -33 18s-8.33301 24.667 -3 38l568 1323c4.66699 10.667 12.667 16 24 16s19.333 -5.33301 24 -16l553 -1323c5.33301 -12.667 4 -25 -4 -37s-19 -18 -33 -18
h-87c-18 0 -30.333 8 -37 24l-119 284c-6.66699 16.667 -19 25 -37 25h-533zM720 967c-4.66699 10.667 -12.667 16.168 -24 16.501s-19.333 -4.83398 -24 -15.501l-180 -420c-5.33301 -13.333 -4.33301 -25.833 3 -37.5s18.333 -17.5 33 -17.5h330c14 0 25 6 33 18
s9.33301 24.333 4 37z" />
    <glyph glyph-name="B" unicode="B" horiz-adv-x="1200" 
d="M1098 396c0 -109.333 -38.499 -202.667 -115.499 -280s-169.833 -116 -278.5 -116h-561c-11.333 0 -21 4 -29 12s-12 17.667 -12 29v1342c0 11.333 4 21 12 29s17.667 12 29 12h475c108.667 0 201.334 -38.667 278.001 -116s115 -170.666 115 -279.999
c0 -96.667 -31 -182 -93 -256c-6.66699 -7.33301 -9.33398 -16 -8.00098 -26s6 -17.667 14 -23c53.333 -36 95.666 -82.833 126.999 -140.5s47 -119.834 47 -186.501zM303.001 1264c-11.333 0 -20.834 -4.00098 -28.501 -12.001s-11.5 -17.667 -11.5 -29v-385
c0 -11.333 3.83301 -21 11.5 -29s17.167 -12 28.5 -12h315c70 0 128.167 26.333 174.5 79s65.166 114.334 56.499 185.001c-7.33301 58 -34.166 106.333 -80.499 145s-99.166 58 -158.499 58h-307zM262 589.998v-388c0 -11.333 4 -21 12 -29s17.667 -12 29 -12h401
c64.667 0 119.834 23 165.501 69s68.5 101.333 68.5 166s-22.833 120 -68.5 166s-100.834 69 -165.501 69h-401c-11.333 0 -21 -4 -29 -12s-12 -17.667 -12 -29z" />
    <glyph glyph-name="C" unicode="C" horiz-adv-x="1388" 
d="M809 11c-98.667 0 -192.673 19.833 -282.006 59.5s-165.833 92.667 -229.5 159s-113.167 145.333 -148.5 237s-50.666 187.167 -45.999 286.5c8.66699 175.333 75 327.166 199 455.499s273.333 199.5 448 213.5c96.667 8 190.167 -3 280.5 -33s171.5 -76.333 243.5 -139
c8.66699 -7.33301 13 -17 13 -29s-4 -22 -12 -30l-55 -56c-7.33301 -7.33301 -16.333 -11.333 -27 -12s-20 2.33301 -28 9c-102.667 88 -221.334 132 -356.001 132c-80 0 -156 -16.833 -228 -50.5s-132.667 -78.5 -182 -134.5s-86.166 -122.333 -110.499 -199
s-31.166 -156 -20.499 -238c18.667 -137.333 79.334 -250.5 182.001 -339.5s223.334 -132.833 362.001 -131.5c114 1.33301 217.333 34.333 310 99c8.66699 6 18.334 8.16699 29.001 6.5s19.334 -6.83398 26.001 -15.501l49 -61c7.33301 -9.33301 10 -19.666 8 -30.999
s-7.66699 -20.666 -17 -27.999c-122.667 -86.667 -258.667 -130 -408 -130z" />
    <glyph glyph-name="D" unicode="D" horiz-adv-x="1200" 
d="M1097 745c4.66699 -131.333 -24.001 -253.5 -86.001 -366.5s-148.167 -202.5 -258.5 -268.5s-230.833 -99 -361.5 -99h-248c-11.333 0 -21 4 -29 12s-12 17.667 -12 29v1331c0 11.333 4 21 12 29s17.667 12 29 12h231c126 0 243.5 -29.833 352.5 -89.5
s196.833 -141.667 263.5 -246s102.334 -218.833 107.001 -343.5zM302.999 1264c-11.333 0 -20.834 -4 -28.501 -12s-11.5 -17.667 -11.5 -29v-1011c0 -11.333 3.83301 -21 11.5 -29s17.167 -12 28.5 -12h88c102 0 195.833 25.833 281.5 77.5s152.334 121.667 200.001 210
s69.167 183.833 64.5 286.5c-4.66699 96 -33 183.833 -85 263.5s-120.167 142.167 -204.5 187.5s-174.833 68 -271.5 68h-73z" />
    <glyph glyph-name="E" unicode="E" horiz-adv-x="980" 
d="M102 53v1328.99c0 11.333 4.16699 21.166 12.5 29.499s18.166 12.5 29.499 12.5h693c11.333 0 21.166 -4.16699 29.499 -12.5s12.5 -18.166 12.5 -29.499v-76c0 -11.333 -4.16699 -21.166 -12.5 -29.499s-18.166 -12.5 -29.499 -12.5h-533
c-11.333 0 -21 -4.16699 -29 -12.5s-12 -18.166 -12 -29.499v-477c0 -11.333 4 -21.166 12 -29.499s17.667 -12.5 29 -12.5h295c11.333 0 21.166 -4.16699 29.499 -12.5s12.5 -18.166 12.5 -29.499v-76c0 -11.333 -4.16699 -21.166 -12.5 -29.499
s-18.166 -12.5 -29.499 -12.5h-295c-11.333 0 -21 -4.16699 -29 -12.5s-12 -18.166 -12 -29.499v-288c0 -11.333 4 -21.166 12 -29.499s17.667 -12.5 29 -12.5h533c11.333 0 21.166 -4.16699 29.499 -12.5s12.5 -18.166 12.5 -29.499v-76
c0 -11.333 -4.16699 -21.166 -12.5 -29.499s-18.166 -12.5 -29.499 -12.5h-693c-11.333 0 -21.166 4.16699 -29.499 12.5s-12.5 18.166 -12.5 29.499z" />
    <glyph glyph-name="F" unicode="F" horiz-adv-x="980" 
d="M103 42l-1 -0.00585938v1340c0 11.333 4.16699 21.166 12.5 29.499s18.166 12.5 29.499 12.5h693c11.333 0 21.166 -4.16699 29.499 -12.5s12.5 -18.166 12.5 -29.499v-76c0 -11.333 -4.16699 -21.166 -12.5 -29.499s-18.166 -12.5 -29.499 -12.5h-533
c-11.333 0 -21 -4.16699 -29 -12.5s-12 -18.166 -12 -29.499v-477c0 -11.333 4 -21.166 12 -29.499s17.667 -12.5 29 -12.5h295c11.333 0 21.166 -4.16699 29.499 -12.5s12.5 -18.166 12.5 -29.499v-76c0 -11.333 -4.16699 -21.166 -12.5 -29.499
s-18.166 -12.5 -29.499 -12.5h-295c-11.333 0 -21 -4.16699 -29 -12.5s-12 -18.166 -12 -29.499v-459c0 -11.333 -4.16699 -21.166 -12.5 -29.499s-18.166 -12.5 -29.499 -12.5h-77c-11.333 0 -21 4.16699 -29 12.5s-12 18.166 -12 29.499z" />
    <glyph glyph-name="G" unicode="G" horiz-adv-x="1617" 
d="M822 11c-99.333 -2 -194.496 16.333 -285.496 55s-168.833 91.167 -233.5 157.5s-115.334 145.5 -152.001 237.5s-52.667 188 -48 288c5.33301 116 37.166 223.667 95.499 323s136 180 233 242s203.167 97.667 318.5 107c96.667 8 190.167 -2.83301 280.5 -32.5
s171.5 -75.834 243.5 -138.501c8.66699 -7.33301 13 -17 13 -29s-4 -22 -12 -30l-55 -56c-7.33301 -7.33301 -16.333 -11.333 -27 -12s-20 2.33301 -28 9c-102.667 88 -221.334 132 -356.001 132c-102 0 -195.833 -25.833 -281.5 -77.5s-152.334 -121.5 -200.001 -209.5
s-69.167 -183.333 -64.5 -286c4.66699 -93.333 31.667 -179.666 81 -258.999s114.5 -142.333 195.5 -189s168.167 -70.667 261.5 -72c133.333 -2 251.166 39.333 353.499 124s165.833 191 190.5 319c1.33301 6 0 11.333 -4 16s-9 7 -15 7h-476c-11.333 0 -21 4 -29 12
s-12 17.667 -12 29v79c0 11.333 4 20.833 12 28.5s17.667 11.5 29 11.5h626c10.667 0 19.834 -3.83301 27.501 -11.5s11.5 -16.834 11.5 -27.501v-20c0 -96 -18 -188.167 -54 -276.5s-84.667 -165.166 -146 -230.499s-135 -117.833 -221 -157.5s-176.667 -60.5 -272 -62.5z
" />
    <glyph glyph-name="H" unicode="H" horiz-adv-x="1200" 
d="M262 501v-459c0 -11.333 -4 -21.166 -12 -29.499s-17.667 -12.5 -29 -12.5h-77c-11.333 0 -21.166 4.16699 -29.499 12.5s-12.5 18.166 -12.5 29.499v1350c0 11.333 4.16699 21 12.5 29s18.166 12 29.499 12h77c11.333 0 21 -4 29 -12s12 -17.667 12 -29v-647
c0 -11.333 4.16699 -21.166 12.5 -29.499s18.166 -12.5 29.499 -12.5h592c11.333 0 21.166 4.16699 29.499 12.5s12.5 18.166 12.5 29.499v647c0 11.333 4 21 12 29s17.667 12 29 12h77c11.333 0 21.166 -4 29.499 -12s12.5 -17.667 12.5 -29v-1350
c0 -11.333 -4.16699 -21.166 -12.5 -29.499s-18.166 -12.5 -29.499 -12.5h-77c-11.333 0 -21 4.16699 -29 12.5s-12 18.166 -12 29.499v459c0 11.333 -4.16699 21.166 -12.5 29.499s-18.166 12.5 -29.499 12.5h-592c-11.333 0 -21.166 -4.16699 -29.499 -12.5
s-12.5 -18.166 -12.5 -29.499z" />
    <glyph glyph-name="I" unicode="I" horiz-adv-x="614" 
d="M387 1392v-1350c0 -11.333 -4 -21.166 -12 -29.499s-17.667 -12.5 -29 -12.5h-77c-11.333 0 -21.166 4.16699 -29.499 12.5s-12.5 18.166 -12.5 29.499v1350c0 11.333 4.16699 21 12.5 29s18.166 12 29.499 12h77c11.333 0 21 -4 29 -12s12 -17.667 12 -29z" />
    <glyph glyph-name="J" unicode="J" horiz-adv-x="1021" 
d="M562 17c-94.667 -16 -183.999 -2.00098 -267.999 41.999s-146.333 108.333 -187 193c-5.33301 11.333 -5.66602 23 -0.999023 35s13 20 25 24l72 25c22.667 8 39.667 1.33301 51 -20c28.667 -55.333 71.667 -96 129 -122s117.333 -30.667 180 -14
c58 16 105.333 49.167 142 99.5s55 106.5 55 168.5v943c0 11.333 4.16699 21.166 12.5 29.499s18.166 12.5 29.499 12.5h76c11.333 0 21.166 -4.16699 29.499 -12.5s12.5 -18.166 12.5 -29.499v-938c0 -106.667 -33.667 -201.667 -101 -285s-153 -133.666 -257 -150.999z
" />
    <glyph glyph-name="K" unicode="K" horiz-adv-x="1202" 
d="M262 436v-394.001c0 -11.333 -4 -21.166 -12 -29.499s-17.667 -12.5 -29 -12.5h-77c-11.333 0 -21.166 4.16699 -29.499 12.5s-12.5 18.166 -12.5 29.499v1350c0 11.333 4.16699 21 12.5 29s18.166 12 29.499 12h77c11.333 0 21 -4 29 -12s12 -17.667 12 -29v-633
c0 -11.333 2.83301 -18 8.5 -20s12.167 1.33301 19.5 10l586 653c7.33301 8.66699 18 16 32 22s26.667 9 38 9h131c11.333 0 18.333 -3 21 -9s0.333984 -13.333 -6.99902 -22l-576 -642c-7.33301 -8.66699 -11 -19.167 -11 -31.5s3.66699 -22.833 11 -31.5l573 -666
c7.33301 -8.66699 9.66602 -16 6.99902 -22s-9.66699 -9 -21 -9h-128c-11.333 0 -23.833 3 -37.5 9s-24.167 13.333 -31.5 22l-470 546c-7.33301 8.66699 -16.5 13 -27.5 13s-20.167 -4.33301 -27.5 -13l-62 -68c-18.667 -21.333 -28 -45.666 -28 -72.999z" />
    <glyph glyph-name="L" unicode="L" horiz-adv-x="980" 
d="M262 1392l1 -0.00195312v-1190c0 -11.333 4 -21.166 12 -29.499s17.667 -12.5 29 -12.5h533c11.333 0 21.166 -4.16699 29.499 -12.5s12.5 -18.166 12.5 -29.499v-76c0 -11.333 -4.16699 -21.166 -12.5 -29.499s-18.166 -12.5 -29.499 -12.5h-693
c-11.333 0 -21.166 4.16699 -29.499 12.5s-12.5 18.166 -12.5 29.499v1350c0 11.333 4.16699 21 12.5 29s18.166 12 29.499 12h77c11.333 0 21 -4 29 -12s12 -17.667 12 -29z" />
    <glyph glyph-name="M" unicode="M" horiz-adv-x="1339" 
d="M262 1001l-0.00195312 -959c0 -11.333 -4 -21.166 -12 -29.499s-17.667 -12.5 -29 -12.5h-77c-11.333 0 -21.166 4.16699 -29.499 12.5s-12.5 18.166 -12.5 29.499v1350v51c0 6.66699 3.33301 6.66699 10 0c3.33301 -4 15.666 -17.333 36.999 -40l492 -536
c8 -8.66699 17.5 -13 28.5 -13s20.5 4.33301 28.5 13l492 536l38 40c6 6 9 6 9 0v-1401c0 -11.333 -4.16699 -21.166 -12.5 -29.499s-18.166 -12.5 -29.499 -12.5h-76c-11.333 0 -21.166 4.16699 -29.499 12.5s-12.5 18.166 -12.5 29.499v959
c0 11.333 -2.66699 18.166 -8 20.499s-12 -0.833984 -20 -9.50098l-351 -381c-8 -8.66699 -17.5 -13 -28.5 -13s-20.5 4.33301 -28.5 13l-350 381c-8 8.66699 -14.833 11.834 -20.5 9.50098s-8.5 -9.16602 -8.5 -20.499z" />
    <glyph glyph-name="N" unicode="N" horiz-adv-x="1200" 
d="M262 972l-0.000976562 -929.999c0 -11.333 -4 -21.166 -12 -29.499s-17.667 -12.5 -29 -12.5h-77c-11.333 0 -21.166 4.16699 -29.499 12.5s-12.5 18.166 -12.5 29.499v1350v62c0 3.33301 0.666992 5.66602 2 6.99902s3.33301 1.33301 6 0
s5.33398 -3.66602 8.00098 -6.99902c10.667 -12.667 24.667 -30.334 42 -53.001l752 -948c6.66699 -9.33301 12.667 -13 18 -11s8 8.66699 8 20v930v43c0 0.666992 13.667 1 41 1h77c28 0 42 -0.333008 42 -1v-1394v-61c0 -3.33301 -0.833008 -5.66602 -2.5 -6.99902
s-3.66699 -1.33301 -6 0s-4.83301 3.66602 -7.5 6.99902c-2.66699 4 -9.33398 12.5 -20.001 25.5s-17.667 21.833 -21 26.5l-753 949c-6.66699 9.33301 -12.667 13 -18 11s-8 -8.66699 -8 -20z" />
    <glyph glyph-name="O" unicode="O" horiz-adv-x="1617" 
d="M809 11c-96 0 -187.5 18.667 -274.5 56s-162.167 87.5 -225.5 150.5s-113.666 138 -150.999 225s-56 178.5 -56 274.5s18.667 187.5 56 274.5s87.666 162.167 150.999 225.5s138.5 113.666 225.5 150.999s178.5 56 274.5 56s187.5 -18.667 274.5 -56
s162.167 -87.666 225.5 -150.999s113.666 -138.5 150.999 -225.5s56 -178.5 56 -274.5s-18.667 -187.5 -56 -274.5s-87.666 -162 -150.999 -225s-138.5 -113.167 -225.5 -150.5s-178.5 -56 -274.5 -56zM809 1264c-98.667 0 -190 -24.5 -274 -73.5
s-150.333 -115.5 -199 -199.5s-73 -175.333 -73 -274c0 -74 14.5 -144.667 43.5 -212s67.833 -125.333 116.5 -174s106.667 -87.5 174 -116.5s138 -43.5 212 -43.5s144.667 14.5 212 43.5s125.333 67.833 174 116.5s87.5 106.667 116.5 174s43.5 138 43.5 212
c0 98.667 -24.333 190 -73 274s-115 150.5 -199 199.5s-175.333 73.5 -274 73.5z" />
    <glyph glyph-name="P" unicode="P" horiz-adv-x="1060" 
d="M305 637c-11.333 0 -21.334 -4.16699 -30.001 -12.5s-13 -18.166 -13 -29.499v-553c0 -11.333 -4.16699 -21.166 -12.5 -29.499s-18.166 -12.5 -29.499 -12.5h-75c-11.333 0 -21.333 4.16699 -30 12.5s-13 18.166 -13 29.499v1340c0 11.333 4.16699 21.166 12.5 29.499
s18.166 12.5 29.499 12.5h421c75.333 0 144.5 -19.5 207.5 -58.5s111.333 -91.667 145 -158s46.834 -137.833 39.501 -214.5c-9.33301 -101.333 -53 -186 -131 -254s-168.667 -102 -272 -102h-249zM796.999 1000c8.66699 70.667 -10.332 132.332 -56.999 184.999
s-105 79 -175 79h-260c-11.333 0 -21.166 -4.16699 -29.499 -12.5s-12.5 -18.166 -12.5 -29.499v-382c0 -11.333 4.16699 -21.333 12.5 -30s18.166 -13 29.499 -13h252c60 0 113.167 19.333 159.5 58s73.166 87 80.499 145z" />
    <glyph glyph-name="Q" unicode="Q" horiz-adv-x="1617" 
d="M721 16c-164.667 21.333 -305.169 92.6631 -421.502 213.996s-181.166 264.333 -194.499 429c-6 72 -1.16699 142.833 14.5 212.5s40 133.5 73 191.5s74 111 123 159s103 87.833 162 119.5s123.5 54.5 193.5 68.5s141.333 17.333 214 10
c108.667 -11.333 209 -46.166 301 -104.499s166.667 -133.666 224 -225.999s91.333 -192.833 102 -301.5c10.667 -109.333 -2.5 -213.833 -39.5 -313.5s-92.5 -186.167 -166.5 -259.5c39.333 -45.333 76 -95.666 110 -150.999c8.66699 -14 8.83398 -28.333 0.500977 -43
s-20.833 -22 -37.5 -22h-89c-14 0 -25.333 6.33301 -34 19c-24.667 37.333 -50 71 -76 101c-144.667 -89.333 -297.667 -123.666 -459 -102.999zM808.998 170.997c60.667 0 121.664 11.334 182.997 34.001c16 6 25.167 17.333 27.5 34s-3.5 30 -17.5 40
c-167.333 117.333 -354.666 176 -561.999 176h-30c-17.333 -0.666992 -29.666 -8.83398 -36.999 -24.501s-5.66602 -30.5 5.00098 -44.5c51.333 -66.667 114.5 -119.167 189.5 -157.5s155.5 -57.5 241.5 -57.5zM262.995 716.998c0 -22 1.66504 -46.334 4.99805 -73.001
c1.33301 -11.333 6.83301 -20.5 16.5 -27.5s20.167 -9.83301 31.5 -8.5c44 5.33301 85.333 8 124 8c132 0 259.833 -22.667 383.5 -68s236.5 -109.666 338.5 -192.999c8.66699 -7.33301 19 -10.5 31 -9.5s21.667 5.83301 29 14.5c88.667 102.667 133 221.334 133 356.001
c0 71.333 -13.667 139.833 -41 205.5s-64.166 123 -110.499 172s-101.666 88.667 -165.999 119s-131.833 47.166 -202.5 50.499c-76.667 4 -150.334 -7.83301 -221.001 -35.5s-131.667 -66.167 -183 -115.5s-92.166 -108.5 -122.499 -177.5s-45.5 -141.5 -45.5 -217.5z" />
    <glyph glyph-name="R" unicode="R" horiz-adv-x="1114" 
d="M305 637c-11.333 0 -21.3359 -4.16797 -30.0029 -12.501s-13 -18.166 -13 -29.499v-553c0 -11.333 -4.16699 -21.166 -12.5 -29.499s-18.166 -12.5 -29.499 -12.5h-75c-11.333 0 -21.333 4.16699 -30 12.5s-13 18.166 -13 29.499v1342c0 10.667 4 20 12 28
s17.333 12 28 12h411c104 0 195.167 -34.667 273.5 -104s121.833 -155 130.5 -257c6.66699 -87.333 -13 -167.333 -59 -240s-108 -124.667 -186 -156c-12 -5.33301 -20.167 -13.833 -24.5 -25.5s-3.16602 -23.167 3.50098 -34.5l314 -544c8 -14 8 -28.167 0 -42.5
s-20 -21.5 -36 -21.5h-87c-15.333 0 -27.666 7.33301 -36.999 22l-344 595c-8.66699 14 -21 21 -37 21h-159zM795.997 999.999c8.66699 70.667 -10.167 132.332 -56.5 184.999s-104.5 79 -174.5 79h-260c-11.333 0 -21.333 -4.16699 -30 -12.5s-13 -18.166 -13 -29.499v-382
c0 -11.333 4.33301 -21.333 13 -30s18.667 -13 30 -13h252c60 0 113 19.333 159 58s72.667 87 80 145z" />
    <glyph glyph-name="S" unicode="S" horiz-adv-x="1146" 
d="M270 12c-88.667 71.333 -144.337 162.669 -167.004 274.002c-2.66699 12 -0.333984 23.167 6.99902 33.5s17.333 16.166 30 17.499l76 8c10.667 1.33301 20.167 -1 28.5 -7s13.833 -14.333 16.5 -25c15.333 -70.667 52 -129.334 110 -176.001
c67.333 -54.667 144.333 -77.334 231 -68.001c50 5.33301 95.833 21.166 137.5 47.499s75.834 61.5 102.501 105.5c40 66.667 52.333 141.667 37 225c-7.33301 38.667 -19.666 72.334 -36.999 101.001s-41.166 53.334 -71.499 74.001s-60.166 37.334 -89.499 50.001
s-68 27.334 -116 44.001c-56.667 19.333 -96.667 35 -120 47c-99.333 51.333 -167.666 116.166 -204.999 194.499s-40.333 163.833 -9 256.5c18 53.333 47 99 87 137s87 65.667 141 83c71.333 22.667 145.333 24.667 222 6c8 -2.66699 14.333 -4.66699 19 -6
c56 -18.667 108.833 -53.834 158.5 -105.501s80.167 -115.167 91.5 -190.5c2 -12.667 -1.16699 -23.834 -9.5 -33.501s-18.833 -14.834 -31.5 -15.501l-76 -1c-10.667 0 -20 3.33301 -28 10s-13 15 -15 25c-9.33301 46 -30.333 83 -63 111s-61 45 -85 51
c-54 13.333 -106.167 9.66602 -156.5 -11.001s-84.833 -58 -103.5 -112c-6.66699 -20.667 -10.667 -40 -12 -58s1 -38.833 7 -62.5s20.833 -47.167 44.5 -70.5s55.834 -45.333 96.501 -66c14 -7.33301 46.667 -20 98 -38l55.5 -19c13 -4.66699 32 -12.167 57 -22.5
s45.333 -19.666 61 -27.999s35 -19.833 58 -34.5s41.833 -29.167 56.5 -43.5s30.667 -32 48 -53s31.5 -42.667 42.5 -65s21 -48.166 30 -77.499s15.167 -60.333 18.5 -93c13.333 -130 -21.334 -246.333 -104.001 -349c-22 -26.667 -52 -54 -90 -82
c-71.333 -52 -148 -82.333 -230 -91c-11.333 -1.33301 -28.333 -2 -51 -2c-101.333 0 -194.333 31 -279 93c-1.33301 0.666992 -4.33301 2.33398 -9 5.00098s-8 5 -10 7z" />
    <glyph glyph-name="T" unicode="T" horiz-adv-x="1040" 
d="M103 1306h-1.00293v76c0 11.333 4.16699 21.166 12.5 29.499s18.166 12.5 29.499 12.5h752c11.333 0 21.166 -4.16699 29.499 -12.5s12.5 -18.166 12.5 -29.499v-76c0 -11.333 -4.16699 -21.166 -12.5 -29.499s-18.166 -12.5 -29.499 -12.5h-254
c-11.333 0 -21.166 -4.16699 -29.499 -12.5s-12.5 -18.166 -12.5 -29.499v-1180c0 -11.333 -4.16699 -21.166 -12.5 -29.499s-18.166 -12.5 -29.499 -12.5h-76c-11.333 0 -21.166 4.16699 -29.499 12.5s-12.5 18.166 -12.5 29.499v1180
c0 11.333 -4.16699 21.166 -12.5 29.499s-18.166 12.5 -29.499 12.5h-254c-11.333 0 -21 4.16699 -29 12.5s-12 18.166 -12 29.499z" />
    <glyph glyph-name="U" unicode="U" horiz-adv-x="1200" 
d="M625 11c-93.333 -4.66699 -180.334 14.832 -261.001 58.499s-144.5 104.5 -191.5 182.5s-70.5 163.333 -70.5 256v928h161v-928c0 -97.333 35.5 -179.333 106.5 -246s155.5 -96.667 253.5 -90c88.667 6 163.334 42.833 224.001 110.5s91 146.834 91 237.501v916h160v-913
c0 -134.667 -45.667 -252 -137 -352s-203.333 -153.333 -336 -160z" />
    <glyph glyph-name="V" unicode="V" horiz-adv-x="1388" 
d="M694 -12c-0.666992 2 -2.16211 5.5 -4.49512 10.5s-5 11.5 -8 19.5s-5.83301 14.667 -8.5 20l-568 1357c-4.66699 10.667 -4.33398 19.667 0.999023 27s13.666 11 24.999 11h90c11.333 0 22.666 -3.66699 33.999 -11s19.333 -16.333 24 -27l403 -962
c4.66699 -10.667 10 -16 16 -16s11.333 5.33301 16 16l397 962c4.66699 10.667 12.5 19.667 23.5 27s22.167 11 33.5 11h90c11.333 0 19.666 -3.66699 24.999 -11s5.66602 -16.333 0.999023 -27l-560 -1357c-3.33301 -7.33301 -7.33301 -17 -12 -29
s-7.33398 -19 -8.00098 -21c-3.33301 -6.66699 -6.66602 -6.66699 -9.99902 0z" />
    <glyph glyph-name="W" unicode="W" horiz-adv-x="1908" 
d="M698 -13c-0.666992 1.33301 -3.66113 8.16406 -8.99414 20.4971l-13 30.5l-571 1357c-4.66699 10.667 -4.33398 19.667 0.999023 27s13.666 11 24.999 11h90c11.333 0 22.666 -3.66699 33.999 -11s19.333 -16.333 24 -27l404 -960c2.66699 -6.66699 6 -11.167 10 -13.5
s8 -2.16602 12 0.500977s7.33301 7.33398 10 14.001l144 364c4 10.667 6.16699 23.5 6.5 38.5s-1.83398 27.833 -6.50098 38.5l-218 518c-4.66699 10.667 -4.5 19.667 0.5 27s13.167 11 24.5 11h90c11.333 0 22.666 -3.66699 33.999 -11s19.333 -16.333 24 -27l404 -960
c2.66699 -6.66699 6 -11.167 10 -13.5s8 -2.16602 12 0.500977s7.33301 7.33398 10 14.001l381 959c4 10.667 11.667 19.667 23 27s22.666 11 33.999 11h89c11.333 0 19.5 -3.66699 24.5 -11s5.5 -16.333 1.5 -27l-539 -1357c-10 -26 -16.667 -43 -20 -51
c-4 -8.66699 -7.66699 -8.66699 -11 0c-0.666992 1.33301 -3.5 8.16602 -8.5 20.499l-12.5 30.5l-232 551c-2.66699 6.66699 -6 11.334 -10 14.001s-8 2.66699 -12 0s-7.33301 -7.33398 -10 -14.001l-219 -551c-10 -26 -16.667 -43 -20 -51
c-3.33301 -8.66699 -7 -8.66699 -11 0z" />
    <glyph glyph-name="X" unicode="X" horiz-adv-x="1312" 
d="M235 0h-108c-11.333 -0 -19 3.33301 -23 10s-2.66699 14.667 4 24l429 648c6.66699 9.33301 10 21 10 35s-3.33301 25.667 -10 35l-428 647c-6.66699 9.33301 -8 17.333 -4 24s11.667 10 23 10h109c11.333 0 23.166 -3.33301 35.499 -10s21.833 -14.667 28.5 -24
l332 -502c6.66699 -9.33301 14.334 -14 23.001 -14s16.334 4.66699 23.001 14l332 502c6.66699 9.33301 16.334 17.333 29.001 24s24.667 10 36 10h109c11.333 0 18.833 -3.33301 22.5 -10s2.16699 -14.667 -4.5 -24l-427 -647c-6.66699 -9.33301 -10 -21 -10 -35
s3.33301 -25.667 10 -35l429 -648c6.66699 -9.33301 8 -17.333 4 -24s-11.667 -10 -23 -10h-109c-11.333 -0 -23.166 3.33301 -35.499 10s-21.833 14.667 -28.5 24l-334 503c-6.66699 9.33301 -14.334 14 -23.001 14s-16.334 -4.66699 -23.001 -14l-333 -503
c-6.66699 -9.33301 -16.334 -17.333 -29.001 -24s-24.667 -10 -36 -10z" />
    <glyph glyph-name="Y" unicode="Y" horiz-adv-x="1341" 
d="M590 41v518c0 28.667 -7 54.667 -21 78l-461 761c-6 10 -7 18.5 -3 25.5s11.667 10.5 23 10.5h103c11.333 0 23.333 -3.5 36 -10.5s22 -15.5 28 -25.5l354 -585c6 -10 13.167 -15 21.5 -15s15.5 5 21.5 15l354 585c6 10 15.167 18.5 27.5 25.5s24.166 10.5 35.499 10.5
h104c11.333 0 19 -3.5 23 -10.5s3 -15.5 -3 -25.5l-461 -761c-14.667 -24.667 -22 -50.667 -22 -78v-518c0 -11.333 -4 -21 -12 -29s-17.667 -12 -29 -12h-77c-11.333 0 -21.166 4 -29.499 12s-12.5 17.667 -12.5 29z" />
    <glyph glyph-name="Z" unicode="Z" horiz-adv-x="1179" 
d="M1035 0h-899c-11.333 0 -19 3.5 -23 10.5s-3.33301 15.5 2 25.5l673 1191c5.33301 10 6 18.667 2 26s-11.667 11 -23 11h-623c-11.333 0 -21.166 4.16699 -29.499 12.5s-12.5 18.166 -12.5 29.499v76c0 11.333 4.16699 21.166 12.5 29.499s18.166 12.5 29.499 12.5h899
c11.333 0 19 -3.5 23 -10.5s3.33301 -15.5 -2 -25.5l-674 -1192c-5.33301 -10 -6 -18.5 -2 -25.5s11.667 -10.5 23 -10.5h624c11.333 0 21.166 -4.16699 29.499 -12.5s12.5 -18.166 12.5 -29.499v-76c0 -11.333 -4.16699 -21.166 -12.5 -29.499s-18.166 -12.5 -29.499 -12.5
z" />
    <glyph glyph-name="bracketleft" unicode="[" horiz-adv-x="544" 
d="M304 1349c-11.333 0 -21.166 -4.16895 -29.499 -12.502s-12.5 -18.166 -12.5 -29.499v-1190c0 -11.333 4.16699 -21.166 12.5 -29.499s18.166 -12.5 29.499 -12.5h96c11.333 0 21.166 -4 29.499 -12s12.5 -17.667 12.5 -29v-77c0 -11.333 -4.16699 -21.166 -12.5 -29.499
s-18.166 -12.5 -29.499 -12.5h-256c-11.333 0 -21.166 4.16699 -29.499 12.5s-12.5 18.166 -12.5 29.499v1510c0 11.333 4.16699 21.166 12.5 29.499s18.166 12.5 29.499 12.5h256c11.333 0 21.166 -4.16699 29.499 -12.5s12.5 -18.166 12.5 -29.499v-77
c0 -11.333 -4.16699 -21 -12.5 -29s-18.166 -12 -29.499 -12h-96z" />
    <glyph glyph-name="backslash" unicode="\" horiz-adv-x="925" 
d="M278 1390l542.002 -1356c4 -10.667 3.5 -19.834 -1.5 -27.501s-13.167 -11.5 -24.5 -11.5h-89c-11.333 0 -22.666 3.83301 -33.999 11.5s-19 16.834 -23 27.501l-543 1356c-4.66699 10.667 -4.33398 19.834 0.999023 27.501s13.666 11.5 24.999 11.5h89
c11.333 0 22.666 -3.83301 33.999 -11.5s19.333 -16.834 24 -27.501z" />
    <glyph glyph-name="bracketright" unicode="]" horiz-adv-x="544" 
d="M400 1509c11.333 0 21.166 -4.16504 29.499 -12.498s12.5 -18.166 12.5 -29.499v-1510c0 -11.333 -4.16699 -21.166 -12.5 -29.499s-18.166 -12.5 -29.499 -12.5h-256c-11.333 0 -21.166 4.16699 -29.499 12.5s-12.5 18.166 -12.5 29.499v77
c0 11.333 4.16699 21.166 12.5 29.499s18.166 12.5 29.499 12.5h96c11.333 0 21.166 4 29.499 12s12.5 17.667 12.5 29v1190c0 11.333 -4.16699 21.166 -12.5 29.499s-18.166 12.5 -29.499 12.5h-96c-11.333 0 -21.166 4 -29.499 12s-12.5 17.667 -12.5 29v77
c0 11.333 4.16699 21.166 12.5 29.499s18.166 12.5 29.499 12.5h256z" />
    <glyph glyph-name="asciicircum" unicode="^" horiz-adv-x="884" 
d="M775 993c6.66699 -9.33301 8.33008 -17.333 4.99707 -24s-10.666 -10 -21.999 -10h-88c-11.333 0 -23.5 3.33301 -36.5 10s-22.833 14.667 -29.5 24l-137 193c-6.66699 9.33301 -14.834 14 -24.501 14s-17.834 -4.66699 -24.501 -14l-138 -193
c-6.66699 -9.33301 -16.5 -17.333 -29.5 -24s-25.167 -10 -36.5 -10h-88c-11.333 0 -18.666 3.33301 -21.999 10s-1.66602 14.667 5.00098 24l309 432c6.66699 9.33301 14.834 14 24.501 14s17.834 -4.66699 24.501 -14z" />
    <glyph glyph-name="underscore" unicode="_" horiz-adv-x="1075" 
d="M931 166c11.333 0 21.166 -4.16699 29.499 -12.5s12.5 -18.166 12.5 -29.499v-76c0 -11.333 -4.16699 -21.166 -12.5 -29.499s-18.166 -12.5 -29.499 -12.5h-787c-11.333 0 -21.166 4.16699 -29.499 12.5s-12.5 18.166 -12.5 29.499v76
c0 11.333 4.16699 21.166 12.5 29.499s18.166 12.5 29.499 12.5h787z" />
    <glyph glyph-name="grave" unicode="`" horiz-adv-x="382" 
d="M277 1166c4 -10.667 4.49805 -21.334 1.49805 -32.001s-8.83301 -17.667 -17.5 -21s-18 -2.66602 -28 2.00098s-17.333 12 -22 22l-104 207c-5.33301 10 -6.16602 20.333 -2.49902 31s10.834 18.334 21.501 23.001l20 8c10.667 4.66699 21 4.66699 31 0
s17 -12.334 21 -23.001z" />
    <glyph glyph-name="a" unicode="a" horiz-adv-x="1026" 
d="M442 -4c-100 0 -181.663 26.666 -244.996 79.999s-95 122 -95 206c0 96.667 35 172.834 105 228.501s165.667 83.5 287 83.5c99.333 0 189 -17.667 269 -53v22c0 62.667 -22.333 116.167 -67 160.5s-98.667 66.5 -162 66.5c-42 0 -79.167 -2.83301 -111.5 -8.5
s-66.5 -17.834 -102.5 -36.501c-10.667 -5.33301 -21.5 -6.66602 -32.5 -3.99902s-19.833 9 -26.5 19l-38 59c-6.66699 11.333 -8.33398 23.333 -5.00098 36s10.666 22.334 21.999 29.001c51.333 28 100.166 46.167 146.499 54.5s96.5 12.5 150.5 12.5
c106.667 0 197.667 -38 273 -114s113 -167.333 113 -274v-517c0 -12.667 -4.33301 -23.334 -13 -32.001s-19.334 -13 -32.001 -13h-3c-31.333 0 -57.833 10.833 -79.5 32.5s-32.5 48.167 -32.5 79.5c-92.667 -78 -199.667 -117 -321 -117zM408.004 425.999
c-27.333 -5.33301 -50.999 -13.3301 -70.999 -23.9971s-34.667 -20.834 -44 -30.501s-16.5 -21.334 -21.5 -35.001s-7.83301 -23.834 -8.5 -30.501s-1 -14.667 -1 -24c0 -22.667 5.83301 -42.5 17.5 -59.5s25 -29.5 40 -37.5s32.333 -14.5 52 -19.5s34.5 -7.83301 44.5 -8.5
s18.667 -1 26 -1c28.667 0 57.834 4 87.501 12s59.167 20 88.5 36s55.666 38 78.999 66s40.666 60.333 51.999 97c-21.333 16.667 -56 32 -104 46s-98 21 -150 21c-32 0 -61 -2.66699 -87 -8z" />
    <glyph glyph-name="b" unicode="b" 
d="M262 139v-24.001c0 -31.333 -11.167 -58.333 -33.5 -81s-49.166 -34 -80.499 -34c-12.667 0 -23.5 4.5 -32.5 13.5s-13.5 19.833 -13.5 32.5v1416c0 12.667 4.5 23.334 13.5 32.001s19.833 13 32.5 13h69c12.667 0 23.334 -4.33301 32.001 -13s13 -19.334 13 -32.001
v-628c89.333 77.333 190.666 116 303.999 116c85.333 0 164.166 -21.333 236.499 -64s129 -100.834 170 -174.501s60.167 -153.5 57.5 -239.5c-4 -119.333 -49 -222.666 -135 -309.999s-188.333 -133.666 -307 -138.999c-122 -6 -230.667 32.667 -326 116zM566 789.999
c-83.333 0 -154.833 -29.667 -214.5 -89s-89.5 -130.666 -89.5 -213.999s29.833 -154.833 89.5 -214.5s131.167 -89.5 214.5 -89.5s154.833 29.833 214.5 89.5s89.5 131.167 89.5 214.5s-29.833 154.666 -89.5 213.999s-131.167 89 -214.5 89z" />
    <glyph glyph-name="c" unicode="c" horiz-adv-x="976" 
d="M566 23c-128 0 -237.335 45.3369 -328.002 136.004c-90.667 89.333 -136 198.666 -136 327.999c0 128 45.333 237.333 136 328c81.333 81.333 182.5 124.833 303.5 130.5s225.833 -26.833 314.5 -97.5c10.667 -8.66699 16.334 -19.834 17.001 -33.501
s-3.66602 -25.167 -12.999 -34.5l-49 -49c-8 -8 -17.667 -12.333 -29 -13s-21.666 2.33301 -30.999 9c-58 44 -126 63.667 -204 59s-143 -33 -195 -85c-59.333 -59.333 -89 -130.666 -89 -213.999c0 -84.667 29.333 -156.334 88 -215.001
c52.667 -52.667 118 -81.334 196 -86.001s146 15.333 204 60c9.33301 6.66699 19.666 9.66699 30.999 9s21 -5 29 -13l49 -49c9.33301 -9.33301 13.833 -20.833 13.5 -34.5s-5.83301 -24.834 -16.5 -33.501c-84.667 -68 -181.667 -102 -291 -102z" />
    <glyph glyph-name="d" unicode="d" 
d="M544 23c-118.667 5.33301 -220.834 51.668 -306.501 139.001s-130.5 190.666 -134.5 309.999c-2.66699 86 16.333 165.833 57 239.5s97.167 132 169.5 175s151.166 64.5 236.499 64.5c112.667 0 214 -39 304 -117v628c0 12.667 4.33301 23.334 13 32.001
s19.334 13 32.001 13h69c12.667 0 23.5 -4.33301 32.5 -13s13.5 -19.334 13.5 -32.001v-1416c0 -12.667 -4.5 -23.5 -13.5 -32.5s-19.833 -13.5 -32.5 -13.5c-31.333 -0 -58.166 11.333 -80.499 34s-33.5 49.667 -33.5 81v24c-95.333 -83.333 -204 -122 -326 -116z
M566 790.002c-83.333 0 -154.833 -29.667 -214.5 -89s-89.5 -130.666 -89.5 -213.999s29.833 -154.833 89.5 -214.5s131.167 -89.5 214.5 -89.5s154.833 29.833 214.5 89.5s89.5 131.167 89.5 214.5s-29.833 154.666 -89.5 213.999s-131.167 89 -214.5 89z" />
    <glyph glyph-name="e" unicode="e" horiz-adv-x="1128" 
d="M151 280l-30.0029 74.001c-36 123.333 -23 241.333 39 354c62.667 113.333 155 188 277 224c122.667 36 240.667 23.333 354 -38c69.333 -37.333 125.333 -89.333 168 -156c21.333 -33.333 39.666 -74 54.999 -122c5.33301 -14.667 9 -29.334 11 -44.001
c1.33301 -10 -0.666992 -19 -6 -27s-12.666 -13.667 -21.999 -17l-648 -191c-10 -3.33301 -16.667 -9.83301 -20 -19.5s-1.66602 -18.5 5.00098 -26.5c24 -30 53.333 -54.667 88 -74c74.667 -40 152 -48.333 232 -25c68.667 20.667 123.334 60 164.001 118
c5.33301 8 12.833 13 22.5 15s18.834 0.666992 27.501 -4l72 -39c10 -5.33301 16.5 -13.833 19.5 -25.5s1.16699 -22.167 -5.5 -31.5c-61.333 -92 -146.333 -154 -255 -186c-42 -12.667 -86 -19 -132 -19c-79.333 0 -153.333 19 -222 57c-85.333 46 -150 113.667 -194 203z
M299.997 631.001c-18 -32 -29.6689 -67.667 -35.002 -107c-1.33301 -10.667 2.33398 -19.667 11.001 -27s18.334 -9.33301 29.001 -6l523 154c-28.667 46 -66.667 82 -114 108c-45.333 24.667 -94 37 -146 37c-28 0 -56.667 -4 -86 -12c-81.333 -24 -142 -73 -182 -147z" />
    <glyph glyph-name="f" unicode="f" horiz-adv-x="956" 
d="M325 0c-11.333 0 -21.002 3.99805 -29.002 11.998s-12 17.667 -12 29v708c0 11.333 -3.83301 21 -11.5 29s-17.167 12 -28.5 12h-101c-11.333 0 -21 4 -29 12s-12 17.667 -12 29v78c0 11.333 4 21 12 29s17.667 12 29 12h101c11.333 0 20.833 4 28.5 12
s11.5 17.667 11.5 29v202c0 90 30.667 168.167 92 234.5s136.333 100.833 225 103.5c94.667 3.33301 175 -28.667 241 -96c8.66699 -8.66699 12.334 -19.167 11.001 -31.5s-6.66602 -22.166 -15.999 -29.499l-63 -48c-18 -13.333 -35.667 -12.333 -53 3
c-33.333 29.333 -72 43 -116 41c-45.333 -1.33301 -83.5 -19.166 -114.5 -53.499s-46.5 -74.5 -46.5 -120.5v-206c0 -11.333 4 -20.833 12 -28.5s17.667 -11.5 29 -11.5h206c11.333 0 21 -4 29 -12s12 -17.667 12 -29v-79c0 -11.333 -4 -20.833 -12 -28.5
s-17.667 -11.5 -29 -11.5h-206c-11.333 0 -21 -4 -29 -12s-12 -17.667 -12 -29v-708c0 -11.333 -3.83301 -21 -11.5 -29s-17.167 -12 -28.5 -12h-79z" />
    <glyph glyph-name="g" unicode="g" 
d="M544 23c-78 3.33301 -150.498 25.667 -217.498 67s-120.5 95.833 -160.5 163.5s-61 140.5 -63 218.5c-2.66699 86 16.333 165.833 57 239.5s97.167 132 169.5 175s151.166 64.5 236.499 64.5c112.667 0 214 -39 304 -117v11c0 32.667 11.667 60.667 35 84
s51.333 35 84 35c11.333 0 21 -4 29 -12s12 -17.667 12 -29v-922h-1c-2 -90 -25.833 -172.833 -71.5 -248.5s-106.834 -135.5 -183.501 -179.5s-160 -66 -250 -66c-98.667 0 -189.667 26.667 -273 80c-10 6.66699 -16.167 16 -18.5 28s0.166992 22.667 7.5 32l48 62
c15.333 18.667 33 22 53 10c56 -34.667 117 -52 183 -52c96 0 177.667 35.5 245 106.5s101 155.167 101 252.5v113c-95.333 -83.333 -204 -122 -326 -116zM566.002 790.001c-83.333 0 -154.833 -29.667 -214.5 -89s-89.5 -130.666 -89.5 -213.999
s29.833 -154.833 89.5 -214.5s131.167 -89.5 214.5 -89.5s154.666 29.833 213.999 89.5s89 131.167 89 214.5s-29.667 154.666 -89 213.999s-130.666 89 -213.999 89z" />
    <glyph glyph-name="h" unicode="h" horiz-adv-x="997" 
d="M263 554l-1.00098 -0.000976562v-513c0 -11.333 -3.83301 -21 -11.5 -29s-17.167 -12 -28.5 -12h-79c-11.333 0 -21 4 -29 12s-12 17.667 -12 29v1425c0 11.333 4 21 12 29s17.667 12 29 12h79c11.333 0 20.833 -4 28.5 -12s11.5 -17.667 11.5 -29v-595
c78 58.667 165 85 261 79c105.333 -6.66699 193.833 -50 265.5 -130s107.5 -173.333 107.5 -280v-499c0 -11.333 -4 -21 -12 -29s-17.667 -12 -29 -12h-79c-11.333 0 -21 4 -29 12s-12 17.667 -12 29v505c0 60.667 -19.5 114.334 -58.5 161.001s-87.833 73.667 -146.5 81
c-71.333 9.33301 -133.666 -9.66699 -186.999 -57s-80 -106.333 -80 -177z" />
    <glyph glyph-name="i" unicode="i" horiz-adv-x="413" 
d="M287 922v-880c0 -11.333 -4.16699 -21.166 -12.5 -29.499s-18.166 -12.5 -29.499 -12.5h-76c-11.333 0 -21.166 4.16699 -29.499 12.5s-12.5 18.166 -12.5 29.499v880c0 11.333 4.16699 21.166 12.5 29.499s18.166 12.5 29.499 12.5h76
c11.333 0 21.166 -4.16699 29.499 -12.5s12.5 -18.166 12.5 -29.499zM311 1184c0 -29.333 -10.167 -54.333 -30.5 -75s-44.833 -31 -73.5 -31s-53.334 10.5 -74.001 31.5s-31 45.833 -31 74.5s10.333 53.334 31 74.001s45.334 31 74.001 31s53.167 -10.333 73.5 -31
s30.5 -45.334 30.5 -74.001z" />
    <glyph glyph-name="j" unicode="j" horiz-adv-x="667" 
d="M148 -460c-12 -1.33301 -22.667 2.16797 -32 10.501s-14 18.5 -14 30.5v79c0 10 3.33301 18.833 10 26.5s15 12.167 25 13.5c68.667 10.667 126.5 48.667 173.5 114s70.5 141.666 70.5 228.999v880c0 11.333 4 21 12 29s17.667 12 29 12h78c11.333 0 21 -4 29 -12
s12 -17.667 12 -29v-893h-1c-2.66699 -127.333 -41.5 -237.5 -116.5 -330.5s-166.833 -146.167 -275.5 -159.5zM356 1184c0 28.667 10.333 53.334 31 74.001s45.334 31 74.001 31s53.167 -10.333 73.5 -31s30.5 -45.334 30.5 -74.001c0 -29.333 -10.167 -54.333 -30.5 -75
s-44.833 -31 -73.5 -31s-53.334 10.5 -74.001 31.5s-31 45.833 -31 74.5z" />
    <glyph glyph-name="k" unicode="k" horiz-adv-x="1046" 
d="M262 145v-103.001c0 -11.333 -4 -21.166 -12 -29.499s-17.667 -12.5 -29 -12.5h-77c-11.333 0 -21.166 4.16699 -29.499 12.5s-12.5 18.166 -12.5 29.499v1423c0 11.333 4.16699 21.166 12.5 29.499s18.166 12.5 29.499 12.5h77c11.333 0 21 -4.16699 29 -12.5
s12 -18.166 12 -29.499v-993c0 -11.333 2.83301 -18 8.5 -20s12.167 1.33301 19.5 10l410 471c7.33301 8.66699 17.833 16 31.5 22s26.167 9 37.5 9h129c11.333 0 18.333 -3 21 -9s0.333984 -13.333 -6.99902 -22l-360 -415c-7.33301 -8.66699 -11 -19 -11 -31
s3.66699 -22.333 11 -31l384 -425c7.33301 -8.66699 9.66602 -16 6.99902 -22s-9.66699 -9 -21 -9h-132c-11.333 0 -24 3 -38 9s-24.667 13.333 -32 22l-274 303c-7.33301 8.66699 -16.5 13 -27.5 13s-20.167 -4.33301 -27.5 -13l-101 -116
c-18.667 -21.333 -28 -45.666 -28 -72.999z" />
    <glyph glyph-name="l" unicode="l" horiz-adv-x="364" 
d="M262 1465v-1423c0 -11.333 -4 -21.166 -12 -29.499s-17.667 -12.5 -29 -12.5h-77c-11.333 0 -21.166 4.16699 -29.499 12.5s-12.5 18.166 -12.5 29.499v1423c0 11.333 4.16699 21.166 12.5 29.499s18.166 12.5 29.499 12.5h77c11.333 0 21 -4.16699 29 -12.5
s12 -18.166 12 -29.499z" />
    <glyph glyph-name="m" unicode="m" horiz-adv-x="1552" 
d="M262 554h0.998047v-513c0 -11.333 -4.16699 -21 -12.5 -29s-18.166 -12 -29.499 -12h-77c-11.333 0 -21.166 4 -29.499 12s-12.5 17.667 -12.5 29v882c0 11.333 4.16699 21 12.5 29s18.166 12 29.499 12h32c24 0 44.333 -8.5 61 -25.5s25 -37.5 25 -61.5
c65.333 49.333 137.666 74 216.999 74c59.333 0 114.833 -13.833 166.5 -41.5s95.167 -65.5 130.5 -113.5c35.333 48 78.833 85.833 130.5 113.5s107.167 41.5 166.5 41.5c104 0 192.667 -38.833 266 -116.5s110 -171.167 110 -280.5v-513c0 -11.333 -4 -21 -12 -29
s-17.667 -12 -29 -12h-77c-11.333 0 -21.166 4 -29.499 12s-12.5 17.667 -12.5 29v513c0 65.333 -21.167 121 -63.5 167s-93.5 69 -153.5 69c-59.333 0 -110.166 -23 -152.499 -69s-63.5 -101.667 -63.5 -167v-513c0 -11.333 -4 -21 -12 -29s-17.667 -12 -29 -12h-78
c-11.333 0 -21 4 -29 12s-12 17.667 -12 29v513c0 64.667 -21.333 120.167 -64 166.5s-93.667 69.5 -153 69.5c-60 0 -111.167 -23 -153.5 -69s-63.5 -101.667 -63.5 -167z" />
    <glyph glyph-name="n" unicode="n" horiz-adv-x="997" 
d="M262 554l0.99707 -0.000976562v-513c0 -11.333 -4.16699 -21 -12.5 -29s-18.166 -12 -29.499 -12h-77c-11.333 0 -21.166 4 -29.499 12s-12.5 17.667 -12.5 29v882c0 11.333 4.16699 21 12.5 29s18.166 12 29.499 12h32c24 0 44.333 -8.33301 61 -25s25 -37 25 -61v-7
c78 58.667 165 85 261 79c105.333 -6.66699 193.833 -50 265.5 -130s107.5 -173.333 107.5 -280v-499c0 -11.333 -4.16699 -21 -12.5 -29s-18.166 -12 -29.499 -12h-77c-11.333 0 -21.166 4 -29.499 12s-12.5 17.667 -12.5 29v505c0 60.667 -19.5 114.334 -58.5 161.001
s-87.833 73.667 -146.5 81c-71.333 9.33301 -133.833 -9.66699 -187.5 -57s-80.5 -106.333 -80.5 -177z" />
    <glyph glyph-name="o" unicode="o" 
d="M566 23c-128 0 -237.333 45.333 -328 136s-136 200 -136 328s45.333 237.167 136 327.5s200 135.5 328 135.5s237.333 -45.167 328 -135.5s136 -199.5 136 -327.5s-45.333 -237.333 -136 -328s-200 -136 -328 -136zM566 790c-83.333 0 -154.833 -29.667 -214.5 -89
s-89.5 -130.666 -89.5 -213.999s29.833 -154.833 89.5 -214.5s131.167 -89.5 214.5 -89.5s154.833 29.833 214.5 89.5s89.5 131.167 89.5 214.5s-29.833 154.666 -89.5 213.999s-131.167 89 -214.5 89z" />
    <glyph glyph-name="p" unicode="p" 
d="M262 141l0.00292969 -571.001c0 -10.667 -3.66699 -19.834 -11 -27.501s-16.666 -11.5 -27.999 -11.5h-81c-11.333 0 -20.833 3.83301 -28.5 11.5s-11.5 16.834 -11.5 27.501v1355c0 10.667 3.83301 19.834 11.5 27.501s17.167 11.5 28.5 11.5
c33.333 0 61.666 -11.833 84.999 -35.5s35 -52.167 35 -85.5v-6c89.333 77.333 190.666 116 303.999 116c85.333 0 164.166 -21.5 236.499 -64.5s129 -101.333 170 -175s60.167 -153.5 57.5 -239.5c-2.66699 -78.667 -24 -151.667 -64 -219s-93.5 -121.5 -160.5 -162.5
s-139.5 -63.167 -217.5 -66.5c-122.667 -6 -231.334 32.333 -326.001 115zM566.003 792.999c-83.333 0 -154.833 -29.833 -214.5 -89.5s-89.5 -131.167 -89.5 -214.5s29.833 -154.666 89.5 -213.999s131.167 -89 214.5 -89s154.833 29.667 214.5 89
s89.5 130.666 89.5 213.999s-29.833 154.833 -89.5 214.5s-131.167 89.5 -214.5 89.5z" />
    <glyph glyph-name="q" unicode="q" 
d="M544 26c-119.333 6 -221.831 52.499 -307.498 139.499s-130.167 190.167 -133.5 309.5c-2.66699 86 16.333 165.667 57 239s97.167 131.5 169.5 174.5s151.166 64.5 236.499 64.5c113.333 0 214.666 -38.667 303.999 -116v6c0 33.333 11.833 61.833 35.5 85.5
s52.167 35.5 85.5 35.5c11.333 0 20.666 -3.66699 27.999 -11s11 -16.666 11 -27.999v-1355c0 -10.667 -3.66699 -19.834 -11 -27.501s-16.666 -11.5 -27.999 -11.5h-82c-11.333 0 -20.666 3.83301 -27.999 11.5s-11 16.834 -11 27.501v571
c-94.667 -82.667 -203.334 -121 -326.001 -115zM566.002 792.999c-83.333 0 -154.666 -29.833 -213.999 -89.5s-89 -131.167 -89 -214.5s29.667 -154.666 89 -213.999s130.666 -89 213.999 -89s154.833 29.667 214.5 89s89.5 130.666 89.5 213.999
s-29.833 154.833 -89.5 214.5s-131.167 89.5 -214.5 89.5z" />
    <glyph glyph-name="r" unicode="r" horiz-adv-x="718" 
d="M263 870c70.667 53.333 149.334 80 236.001 80c29.333 0 58 -3 86 -9c20.667 -4.66699 31 -17.334 31 -38.001v-87c0 -13.333 -5.33301 -23.666 -16 -30.999s-22.334 -9 -35.001 -5c-50 16 -100 13.333 -150 -8c-46.667 -20 -83.667 -52 -111 -96s-41 -92 -41 -144v-493
c0 -10.667 -3.83301 -19.834 -11.5 -27.501s-16.834 -11.5 -27.501 -11.5h-83c-10.667 0 -19.834 3.83301 -27.501 11.5s-11.5 16.834 -11.5 27.501v886c0 10.667 3.83301 19.834 11.5 27.501s16.834 11.5 27.501 11.5h83c10.667 0 19.834 -3.83301 27.501 -11.5
s11.5 -16.834 11.5 -27.501v-55z" />
    <glyph glyph-name="s" unicode="s" horiz-adv-x="909" 
d="M450 13c-80.667 0 -153.33 21.332 -217.997 63.999s-107.334 97.334 -128.001 164.001c-3.33301 11.333 -1.66602 22 5.00098 32s16 15.667 28 17l84 11c18.667 2 32 -6.33301 40 -25c14 -32.667 40.833 -59 80.5 -79s82.834 -27.667 129.501 -23
c65.333 5.33301 114.666 29 147.999 71c22 28 31 56.667 27 86c-4 33.333 -20.167 58.166 -48.5 74.499s-77.166 31.833 -146.499 46.5c-51.333 10.667 -86.333 20 -105 28c-72.667 30.667 -123.334 76.667 -152.001 138s-29.334 125 -2.00098 191
c24 58 67.833 101 131.5 129s132.5 34.333 206.5 19c42 -8.66699 83.667 -29.334 125 -62.001s68.333 -73.667 81 -123c3.33301 -12 1.33301 -23 -6 -33s-17.333 -15.333 -30 -16l-84 -2c-18.667 0 -31.667 7.66699 -39 23c-8 15.333 -20.667 28 -38 38s-31 16 -41 18
c-36 7.33301 -69.333 6 -100 -4s-50.334 -26 -59.001 -48c-22 -52 0.666992 -92 68 -120c14.667 -6 40.667 -12.667 78 -20c18 -4 31.167 -7 39.5 -9s22.166 -5.5 41.499 -10.5s34.5 -9.83301 45.5 -14.5l43 -19c17.667 -8 32 -16.167 43 -24.5s23.333 -18.666 37 -30.999
s24.5 -25.5 32.5 -39.5s15.5 -30.333 22.5 -49s11.833 -38.334 14.5 -59.001c9.33301 -77.333 -11 -146.666 -61 -207.999c-62.667 -77.333 -148.667 -120.666 -258 -129.999c-8 -0.666992 -19.667 -1 -35 -1z" />
    <glyph glyph-name="t" unicode="t" horiz-adv-x="835" 
d="M384 1362c13.333 8.66699 26.833 9.33398 40.5 2.00098s20.5 -18.666 20.5 -33.999v-341c0 -10.667 3.83301 -19.834 11.5 -27.501s16.834 -11.5 27.501 -11.5h209c10.667 0 19.834 -3.83301 27.501 -11.5s11.5 -16.834 11.5 -27.501v-82
c0 -10.667 -3.83301 -19.834 -11.5 -27.501s-16.834 -11.5 -27.501 -11.5h-209c-10.667 0 -19.834 -3.83301 -27.501 -11.5s-11.5 -16.834 -11.5 -27.501v-398c0 -40 12.667 -75.5 38 -106.5s57.333 -50.167 96 -57.5c21.333 -4.66699 32 -17.334 32 -38.001v-83
c0 -11.333 -4.33301 -21 -13 -29s-18.667 -11.333 -30 -10c-80.667 10.667 -148 46.667 -202 108s-81 133.333 -81 216v398c0 10.667 -3.83301 19.834 -11.5 27.501s-16.834 11.5 -27.501 11.5h-105c-10.667 0 -19.834 3.66699 -27.501 11s-11.5 16.333 -11.5 27v83
c0 10.667 3.83301 19.834 11.5 27.501s16.834 11.5 27.501 11.5h105c10.667 0 19.834 3.83301 27.501 11.5s11.5 16.834 11.5 27.501v285c0 14 5.66699 24.667 17 32z" />
    <glyph glyph-name="u" unicode="u" horiz-adv-x="997" 
d="M442 18c-98 14.667 -179.169 60.8281 -243.502 138.495s-96.5 166.834 -96.5 267.501v501c0 10.667 3.83301 19.834 11.5 27.501s16.834 11.5 27.501 11.5h83c10.667 0 19.834 -3.83301 27.501 -11.5s11.5 -16.834 11.5 -27.501v-515c0 -70.667 26.667 -129.5 80 -176.5
s115.666 -66.167 186.999 -57.5c58.667 7.33301 107.667 34.333 147 81s59 100.334 59 161.001v498c0 10.667 3.66699 19.834 11 27.501s16.333 11.5 27 11.5h83c10.667 0 19.834 -3.83301 27.501 -11.5s11.5 -16.834 11.5 -27.501v-883
c0 -8.66699 -3.33301 -16.334 -10 -23.001s-14.334 -10 -23.001 -10h-94c-8.66699 0 -16.334 3.33301 -23.001 10s-10 14.334 -10 23.001c0 14 -0.833008 24.833 -2.5 32.5s-4.5 12 -8.5 13s-7.66699 0.833008 -11 -0.5s-8.16602 -4.16602 -14.499 -8.49902
s-10.833 -7.16602 -13.5 -8.49902c-75.333 -41.333 -156.666 -55.666 -243.999 -42.999z" />
    <glyph glyph-name="v" unicode="v" horiz-adv-x="1107" 
d="M1003 918l-427.001 -879.999c-5.33301 -10.667 -11.666 -16 -18.999 -16s-13.333 5.33301 -18 16l-433 880c-4.66699 10.667 -4.66699 19.5 0 26.5s12.667 10.5 24 10.5h94c12 0 24 -3.5 36 -10.5s20.333 -15.833 25 -26.5l253 -516
c5.33301 -10.667 11.5 -15.834 18.5 -15.501s13.167 5.83301 18.5 16.5l250 515c4.66699 10.667 13 19.5 25 26.5s23.667 10.5 35 10.5h94c11.333 0 19.333 -3.5 24 -10.5s4.66699 -15.833 0 -26.5z" />
    <glyph glyph-name="w" unicode="w" horiz-adv-x="1566" 
d="M762 418l-179.996 -381c-5.33301 -10.667 -11.333 -16 -18 -16s-12.667 5.33301 -18 16l-440 881c-4.66699 10.667 -4.83398 19.5 -0.500977 26.5s12.166 10.5 23.499 10.5h96c11.333 0 23 -3.5 35 -10.5s20.333 -15.833 25 -26.5l257 -514
c5.33301 -10.667 11.333 -16 18 -16s12.667 5.33301 18 16l93 197c11.333 24 11 49 -1 75l-121 242c-4.66699 10.667 -4.83398 19.5 -0.500977 26.5s12.166 10.5 23.499 10.5h96c11.333 0 23 -3.5 35 -10.5s20.333 -15.833 25 -26.5l267 -536
c4.66699 -10.667 10.667 -16 18 -16s13.666 5.33301 18.999 16l252 535c4.66699 10.667 13 19.667 25 27s23.667 11 35 11h93c11.333 0 19.333 -3.66699 24 -11s4.66699 -16.333 0 -27l-425 -902c-5.33301 -10.667 -11.666 -16 -18.999 -16s-13.333 5.33301 -18 16l-201 403
c-5.33301 10.667 -11.333 16 -18 16s-12.667 -5.33301 -18 -16z" />
    <glyph glyph-name="x" unicode="x" horiz-adv-x="993" 
d="M111 41l267 403c6.66699 9.33301 10 21 10 35s-3.33301 25.667 -10 35l-270 406c-6.66699 9.33301 -8 17.5 -4 24.5s11.667 10.5 23 10.5h108c11.333 0 23.333 -3.5 36 -10.5s22.334 -15.167 29.001 -24.5l174 -261c6.66699 -9.33301 14.334 -14 23.001 -14
s16.334 4.66699 23.001 14l173 261c6.66699 9.33301 16.334 17.5 29.001 24.5s24.667 10.5 36 10.5h108c11.333 0 19 -3.5 23 -10.5s2.66699 -15.167 -4 -24.5l-269 -406c-6.66699 -9.33301 -10 -21 -10 -35s3.33301 -25.667 10 -35l266 -403
c6.66699 -9.33301 8.16699 -17.5 4.5 -24.5s-11.167 -10.5 -22.5 -10.5h-109c-11.333 0 -23.333 3.5 -36 10.5s-22.334 15.167 -29.001 24.5l-170 258c-6.66699 9.33301 -14.334 14 -23.001 14s-16.334 -4.66699 -23.001 -14l-171 -258
c-6.66699 -9.33301 -16.334 -17.5 -29.001 -24.5s-24.667 -10.5 -36 -10.5h-109c-11.333 0 -18.833 3.5 -22.5 10.5s-2.16699 15.167 4.5 24.5z" />
    <glyph glyph-name="y" unicode="y" horiz-adv-x="1124" 
d="M166 -441l284 585.999c5.33301 10.667 8 23.167 8 37.5s-2.66699 26.833 -8 37.5l-344 698c-4.66699 10.667 -4.66699 19.5 0 26.5s12.667 10.5 24 10.5h94c12 0 24 -3.5 36 -10.5s20.333 -15.833 25 -26.5l253 -515c5.33301 -10.667 11.666 -16 18.999 -16
s13.333 5.33301 18 16l250 515c4.66699 10.667 13 19.5 25 26.5s23.667 10.5 35 10.5h94h42l-18 -37l-626 -1291l-19 -38c-4.66699 -10.667 -10 -22 -16 -34c-4.66699 -9.33301 -12.667 -17.166 -24 -23.499s-22.666 -9.5 -33.999 -9.5h-94c-11.333 0 -19.333 3.5 -24 10.5
s-4.66699 15.833 0 26.5z" />
    <glyph glyph-name="z" unicode="z" horiz-adv-x="966" 
d="M119 39l438 729c6 10 7 18.5 3 25.5s-11.667 10.5 -23 10.5h-393c-11.333 0 -21.166 4.16699 -29.499 12.5s-12.5 18.166 -12.5 29.499v76c0 11.333 4.16699 21.166 12.5 29.499s18.166 12.5 29.499 12.5h673c11.333 0 19.166 -3.5 23.499 -10.5s3.5 -15.5 -2.5 -25.5
l-438 -729c-6 -10 -7 -18.5 -3 -25.5s11.667 -10.5 23 -10.5h403c11.333 0 21.166 -4.16699 29.499 -12.5s12.5 -18.166 12.5 -29.499v-76c0 -11.333 -4.16699 -21.166 -12.5 -29.499s-18.166 -12.5 -29.499 -12.5h-683c-11.333 0 -19.166 3.5 -23.499 10.5
s-3.5 15.5 2.5 25.5z" />
    <glyph glyph-name="braceleft" unicode="{" horiz-adv-x="743" 
d="M462 1169v-62.999c0 -148.667 -47.667 -281 -143 -397c95.333 -130.667 143 -275.667 143 -435v-19c0 -42.667 13.5 -80.5 40.5 -113.5s61.167 -53.833 102.5 -62.5c10.667 -2 19.334 -6.83301 26.001 -14.5s10 -16.834 10 -27.501v-75c0 -13.333 -5 -24.333 -15 -33
s-21.333 -12 -34 -10c-82.667 12 -151.834 49.833 -207.501 113.5s-83.5 137.834 -83.5 222.501v19c0 147.333 -49 275.666 -147 384.999l-52 58l56 53c45.333 44 80.5 95.167 105.5 153.5s37.5 119.166 37.5 182.499v63c0 84.667 27.833 158.834 83.5 222.501
s124.834 101.5 207.501 113.5c12.667 2 24 -1.33301 34 -10s15 -19.667 15 -33v-74c0 -10.667 -3.33301 -20 -10 -28s-15.334 -13 -26.001 -15c-41.333 -8.66699 -75.5 -29.5 -102.5 -62.5s-40.5 -70.833 -40.5 -113.5z" />
    <glyph glyph-name="verticalbar" unicode="|" horiz-adv-x="364" 
d="M221 1429c11.333 0 21 -4.16699 29 -12.5s12 -18.166 12 -29.499v-1538c0 -11.333 -4 -21 -12 -29s-17.667 -12 -29 -12h-77c-11.333 0 -21.166 4 -29.499 12s-12.5 17.667 -12.5 29v1538c0 11.333 4.16699 21.166 12.5 29.499s18.166 12.5 29.499 12.5h77z" />
    <glyph glyph-name="braceright" unicode="}" horiz-adv-x="743" 
d="M585 770l56 -53.001l-52 -58c-98 -109.333 -147 -237.666 -147 -384.999v-19c0 -84.667 -27.833 -158.834 -83.5 -222.501s-124.834 -101.5 -207.501 -113.5c-12.667 -2 -24 1.33301 -34 10s-15 19.667 -15 33v75c0 10.667 3.33301 19.834 10 27.501
s15.334 12.5 26.001 14.5c41.333 8.66699 75.666 29.334 102.999 62.001s41 70.667 41 114v19c0 160.667 47.333 305.667 142 435c-94.667 115.333 -142 247.666 -142 396.999v63c0 42.667 -13.667 80.5 -41 113.5s-61.666 53.833 -102.999 62.5
c-10.667 2 -19.334 7 -26.001 15s-10 17.333 -10 28v74c0 13.333 5 24.333 15 33s21.333 12 34 10c82.667 -12 151.834 -49.833 207.501 -113.5s83.5 -137.834 83.5 -222.501v-63c0 -63.333 12.5 -124.166 37.5 -182.499s60.167 -109.5 105.5 -153.5z" />
    <glyph glyph-name="asciitilde" unicode="~" horiz-adv-x="956" 
d="M802 789c12.667 4.66699 24.335 3.16992 35.002 -4.49707s16 -18.167 16 -31.5v-87c0 -19.333 -8.33301 -31.666 -25 -36.999c-54.667 -18 -111.667 -27 -171 -27c-64.667 0 -127.667 11 -189 33c-2.66699 1.33301 -7.33398 3.16602 -14.001 5.49902
s-11.667 4.16602 -15 5.49902c-41.333 15.333 -87.333 22.166 -138 20.499s-99 -11.834 -145 -30.501c-12.667 -5.33301 -24.834 -4.33301 -36.501 3s-17.5 18 -17.5 32v88c0 18 8.33301 29.667 25 35c128 44 251.667 44.333 371 1l25 -10c92 -33.333 185 -32 279 4z" />
    <glyph glyph-name="nonbreakingspace" unicode="&#xa0;" horiz-adv-x="614" 
 />
    <glyph glyph-name="exclamdown" unicode="&#xa1;" horiz-adv-x="397" 
d="M199 617c-26.667 0 -49.5 9.33301 -68.5 28s-28.5 41.334 -28.5 68.001s9.5 49.334 28.5 68.001s41.833 28 68.5 28s49.334 -9.33301 68.001 -28s28 -41.334 28 -68.001s-9.33301 -49.334 -28 -68.001s-41.334 -28 -68.001 -28zM225 504
c11.333 0 21.168 -4.16699 29.501 -12.5s12.5 -18.166 12.5 -29.499l11 -1068c0 -11.333 -4 -21.166 -12 -29.499s-17.667 -12.5 -29 -12.5h-77c-11.333 0 -21 4.16699 -29 12.5s-12 18.166 -12 29.499l11 1068c0 11.333 4.16699 21.166 12.5 29.499
s18.166 12.5 29.499 12.5h53z" />
    <glyph glyph-name="cent" unicode="&#xa2;" horiz-adv-x="976" 
d="M862 174c9.33301 -8.66699 13.667 -19.4971 13 -32.4971s-6 -23.5 -16 -31.5c-55.333 -44 -116 -74 -182 -90c-9.33301 -2.66699 -17 -8 -23 -16s-9 -16.667 -9 -26v-83c0 -12 -4.16699 -22.167 -12.5 -30.5s-18.5 -12.5 -30.5 -12.5h-74
c-12 0 -22.167 4.16699 -30.5 12.5s-12.5 18.5 -12.5 30.5v84c0 22 -11.333 36 -34 42c-82 20.667 -153 61 -213 121c-90.667 89.333 -136 198.666 -136 327.999c0 128 45.333 237.333 136 328c57.333 57.333 129 96.333 215 117c9.33301 2.66699 17 7.83398 23 15.501
s9 16.5 9 26.5v87c0 12 4.16699 22.333 12.5 31s18.5 13 30.5 13h74c12 0 22.167 -4.33301 30.5 -13s12.5 -19 12.5 -31v-87c0 -10 3.16699 -18.833 9.5 -26.5s14.166 -12.5 23.499 -14.5c67.333 -15.333 127.333 -44 180 -86c10 -8 15.333 -18.5 16 -31.5
s-3.33301 -24.167 -12 -33.5l-53 -52c-7.33301 -7.33301 -16.333 -11.5 -27 -12.5s-20.334 1.83301 -29.001 8.5c-58 44.667 -126.167 65 -204.5 61s-143.833 -32.333 -196.5 -85c-59.333 -59.333 -89 -131 -89 -215c0 -84.667 29.333 -156.334 88 -215.001
c52.667 -52.667 118.334 -81.334 197.001 -86.001s147 15.666 205 60.999c8.66699 6.66699 18.334 9.66699 29.001 9s19.667 -4.66699 27 -12z" />
    <glyph glyph-name="sterling" unicode="&#xa3;" horiz-adv-x="1071" 
d="M926 166c12 0 22.165 -4.16992 30.498 -12.5029s12.5 -18.5 12.5 -30.5v-73c0 -12 -4.16699 -22.333 -12.5 -31s-18.5 -13 -30.5 -13h-746c-13.333 0 -24.5 5.5 -33.5 16.5s-12.167 23.167 -9.5 36.5l9 44c44 210.667 74 385.667 90 525
c0.666992 8.66699 -1.83301 16.334 -7.5 23.001s-13.167 10 -22.5 10h-73c-8.66699 0 -15.834 2.83301 -21.501 8.5s-8.5 12.834 -8.5 21.501v44c0 8.66699 2.83301 15.834 8.5 21.501s12.834 8.5 21.501 8.5h75c9.33301 0 16.833 3.33301 22.5 10
s8.16699 14.334 7.5 23.001c-5.33301 54.667 -12.666 109.667 -21.999 165c-14 86 -0.666992 168 40 246s102.334 136.667 185.001 176c46 22 99.667 33 161 33h1c88.667 0 168.667 -27 240 -81c10.667 -8 16.5 -18.5 17.5 -31.5s-3.16699 -24.167 -12.5 -33.5l-52 -53
c-17.333 -17.333 -36 -19 -56 -5c-42 29.333 -88 44 -138 44c-32.667 0 -61.334 -5 -86.001 -15c-52 -22 -90.833 -56.667 -116.5 -104s-34.167 -97.333 -25.5 -150c12 -72.667 20.333 -138 25 -196c0.666992 -8 3.83398 -14.667 9.50098 -20s12.5 -8 20.5 -8h266
c8.66699 0 15.834 -2.83301 21.501 -8.5s8.5 -12.834 8.5 -21.501v-45c0 -8.66699 -2.83301 -15.667 -8.5 -21s-12.834 -8 -21.501 -8h-267c-7.33301 0 -13.833 -2.83301 -19.5 -8.5s-9.16699 -12.167 -10.5 -19.5c-8.66699 -88.667 -30.667 -227 -66 -415
c-2.66699 -13.333 0.5 -25.333 9.5 -36s20.167 -16 33.5 -16h551z" />
    <glyph glyph-name="currency" unicode="&#xa4;" horiz-adv-x="858" 
d="M678 577l66 -65.999c8 -8 12 -17.333 12 -28s-4 -20 -12 -28l-57 -57c-8 -8 -17.5 -12 -28.5 -12s-20.167 4 -27.5 12l-66 66c-12.667 12.667 -26.667 15.667 -42 9c-30 -12 -61.333 -18 -94 -18s-64 6 -94 18c-14.667 6.66699 -28.334 3.66699 -41.001 -9l-67 -66
c-8 -8 -17.333 -12 -28 -12s-20 4 -28 12l-57 57c-7.33301 8 -11 17.333 -11 28s3.66699 20 11 28l67 67c12 12 14.667 26.667 8 44c-22.667 60.667 -22.667 121.334 0 182.001c6.66699 17.333 4 32 -8 44l-67 67c-7.33301 8 -11 17.333 -11 28s3.66699 20 11 28l57 57
c8 8 17.333 12 28 12s20 -4 28 -12l67 -67c12 -12 26.667 -14.667 44 -8c60.667 22.667 121.334 22.667 182.001 0c17.333 -6.66699 32 -4 44 8l67 67c8 8 17.5 12 28.5 12s20.167 -4 27.5 -12l57 -57c8 -8 12 -17.333 12 -28s-4 -20 -12 -28l-66 -67
c-12.667 -12.667 -15.667 -27.334 -9 -44.001c22.667 -61.333 22.667 -122.333 0 -183c-6.66699 -16.667 -3.66699 -31.334 9 -44.001zM499 643.001c19.333 19.333 28.999 42.665 28.999 69.998s-9.66699 50.333 -29 69c-18.667 18.667 -41.667 28 -69 28
c-36 0 -64 -15.333 -84 -46c-20.667 -32 -21.667 -64.667 -3 -98c16.667 -29.333 41.334 -46.166 74.001 -50.499s60 4.83398 82 27.501z" />
    <glyph glyph-name="yen" unicode="&#xa5;" horiz-adv-x="1341" 
d="M1235 1394l-428 -705c-2.66699 -4.66699 -3 -8.83398 -1 -12.501s6 -5.5 12 -5.5h174c8.66699 0 15.834 -3 21.501 -9s8.5 -13.333 8.5 -22v-43c0 -8.66699 -2.83301 -16 -8.5 -22s-12.834 -9 -21.501 -9h-211c-8.66699 0 -15.834 -2.83301 -21.501 -8.5
s-8.5 -12.834 -8.5 -21.501v-169c0 -8.66699 2.83301 -16 8.5 -22s12.834 -9 21.501 -9h222c8.66699 0 15.834 -2.83301 21.501 -8.5s8.5 -12.834 8.5 -21.501v-44c0 -8.66699 -2.83301 -15.834 -8.5 -21.501s-12.834 -8.5 -21.501 -8.5h-222
c-8.66699 0 -15.834 -2.83301 -21.501 -8.5s-8.5 -12.834 -8.5 -21.501v-165c0 -11.333 -4.16699 -21 -12.5 -29s-18.166 -12 -29.499 -12h-76c-11.333 0 -21.166 4 -29.499 12s-12.5 17.667 -12.5 29v165c0 8.66699 -3 15.834 -9 21.501s-13.333 8.5 -22 8.5h-221
c-8.66699 0 -16 2.83301 -22 8.5s-9 12.834 -9 21.501v44c0 8.66699 3 15.834 9 21.501s13.333 8.5 22 8.5h221c8.66699 0 16 3 22 9s9 13.333 9 22v169c0 8.66699 -3 15.834 -9 21.501s-13.333 8.5 -22 8.5h-232c-8.66699 0 -15.834 3 -21.501 9s-8.5 13.333 -8.5 22v43
c0 8.66699 2.83301 16 8.5 22s12.834 9 21.501 9h196c6 0 10 1.83301 12 5.5s1.66699 7.83398 -1 12.501l-427 705c-6 10 -7 18.5 -3 25.5s11.667 10.5 23 10.5h103c11.333 0 23.333 -3.5 36 -10.5s22 -15.5 28 -25.5l354 -585c6 -10 13.333 -15 22 -15s16 5 22 15l354 585
c6 10 15.333 18.5 28 25.5s24.667 10.5 36 10.5h103c11.333 0 19.166 -3.5 23.499 -10.5s3.5 -15.5 -2.5 -25.5z" />
    <glyph glyph-name="section" unicode="&#xa7;" horiz-adv-x="909" 
d="M785 415c-8.66699 -26.667 -21.667 -52.9951 -39 -78.9951c64.667 -86 77.667 -185.667 39 -299c-25.333 -76.667 -72.666 -135.334 -141.999 -176.001c-55.333 -33.333 -117.333 -50 -186 -50c-32 0 -64 4 -96 12c-54 13.333 -107.167 45.166 -159.5 95.499
s-84.166 113.166 -95.499 188.499c-2 12 1.16699 22.667 9.5 32s18.5 14.333 30.5 15l80 2c10 0.666992 18.667 -2.33301 26 -9s12 -15 14 -25c6 -28.667 18.833 -54.5 38.5 -77.5s37.667 -39.167 54 -48.5s30.166 -15.333 41.499 -18c60.667 -14.667 114.334 -8 161.001 20
c34 20.667 58 51 72 91c34 100 -4.66699 175.667 -116 227c-38 17.333 -97.333 40.333 -178 69l-21 9c-91.333 48 -154 108.667 -188 182s-36.667 153 -8 239c10 29.333 24 56.666 42 81.999c-65.333 87.333 -79.333 186 -42 296c28.667 84 83.667 146.5 165 187.5
s168 49.833 260 26.5c54 -14 107 -46 159 -96s83.667 -112.667 95 -188c2 -12 -1.16699 -22.667 -9.5 -32s-18.5 -14.333 -30.5 -15l-79 -2c-10 0 -18.833 3.33301 -26.5 10s-12.5 14.667 -14.5 24c-8.66699 41.333 -27.834 74.333 -57.501 99s-54.834 39.667 -75.501 45
c-48.667 12.667 -95.667 9.5 -141 -9.5s-76.333 -52.5 -93 -100.5c-6 -18 -9.66699 -35.167 -11 -51.5s0.666992 -34.833 6 -55.5s18.5 -41.5 39.5 -62.5s49.167 -40.833 84.5 -59.5c63.333 -20.667 127 -45.334 191 -74.001c93.333 -43.333 157.833 -102.5 193.5 -177.5
s38.167 -157.167 7.5 -246.5zM633 466.005c34 100.667 -4.66992 176.668 -116.003 228.001c-49.333 22.667 -108.666 45.667 -177.999 69l-21 8c-4 2 -9.66699 5.33301 -17 10l-14 9c-7.33301 -13.333 -11.666 -22 -12.999 -26c-6 -18 -9.66699 -35.167 -11 -51.5
s0.666992 -34.833 6 -55.5s18.5 -41.5 39.5 -62.5s49.167 -40.833 84.5 -59.5c70.667 -22.667 134.334 -47.334 191.001 -74.001c8.66699 -4 21 -10.667 37 -20c7.33301 14.667 11.333 23 12 25z" />
    <glyph glyph-name="dieresis" unicode="&#xa8;" horiz-adv-x="778" 
d="M199 1435c26.667 0 49.334 -9.33301 68.001 -28s28 -41.334 28 -68.001s-9.33301 -49.334 -28 -68.001s-41.334 -28 -68.001 -28s-49.5 9.33301 -68.5 28s-28.5 41.334 -28.5 68.001s9.5 49.334 28.5 68.001s41.833 28 68.5 28zM580 1435
c26.667 0 49.334 -9.33301 68.001 -28s28 -41.334 28 -68.001s-9.33301 -49.334 -28 -68.001s-41.334 -28 -68.001 -28s-49.334 9.33301 -68.001 28s-28 41.334 -28 68.001s9.33301 49.334 28 68.001s41.334 28 68.001 28z" />
    <glyph glyph-name="copyright" unicode="&#xa9;" horiz-adv-x="1617" 
d="M806 1080c50.667 0 99.5029 -10.1689 146.503 -30.502s87.833 -49.166 122.5 -86.499c8 -8.66699 11.333 -18.667 10 -30s-6.66602 -20.666 -15.999 -27.999l-67 -49c-18 -12.667 -34.667 -11.334 -50 3.99902c-40 40 -88.667 60 -146 60
c-62.667 0 -114.834 -24 -156.501 -72s-57.834 -103.667 -48.501 -167c7.33301 -50 31 -92 71 -126s85.333 -50.667 136 -50c39.333 1.33301 74.333 11.333 105 30c18 11.333 34.333 8.66602 49 -8.00098l54 -63c7.33301 -9.33301 10.166 -19.666 8.49902 -30.999
s-7.16699 -20.333 -16.5 -27c-50.667 -33.333 -106.5 -52.833 -167.5 -58.5s-121.5 3.83301 -181.5 28.5c-65.333 28.667 -118.333 73.334 -159 134.001s-61.334 126.667 -62.001 198c-1.33301 102 34.167 189.5 106.5 262.5s159.5 109.5 261.5 109.5zM809.003 1419
c96 0 187.5 -18.667 274.5 -56s162.167 -87.5 225.5 -150.5s113.666 -138 150.999 -225s56 -178.5 56 -274.5s-18.667 -187.5 -56 -274.5s-87.666 -162.167 -150.999 -225.5s-138.5 -113.666 -225.5 -150.999s-178.5 -56 -274.5 -56s-187.5 18.667 -274.5 56
s-162.167 87.666 -225.5 150.999s-113.666 138.5 -150.999 225.5s-56 178.5 -56 274.5s18.667 187.5 56 274.5s87.666 162 150.999 225s138.5 113.167 225.5 150.5s178.5 56 274.5 56zM809.003 165.998c98.667 0 190 24.5 274 73.5s150.333 115.5 199 199.5
s73 175.333 73 274c0 74 -14.5 144.667 -43.5 212s-67.833 125.333 -116.5 174s-106.667 87.5 -174 116.5s-138 43.5 -212 43.5s-144.667 -14.5 -212 -43.5s-125.333 -67.833 -174 -116.5s-87.5 -106.667 -116.5 -174s-43.5 -138 -43.5 -212c0 -98.667 24.333 -190 73 -274
s115 -150.5 199 -199.5s175.333 -73.5 274 -73.5z" />
    <glyph glyph-name="guillemotleft" unicode="&#xab;" 
d="M537 944l-198 -201c-8 -8 -12 -18 -12 -30s4 -22 12 -30l198 -202c8 -8 11.833 -17.833 11.5 -29.5s-4.5 -21.5 -12.5 -29.5l-54 -53c-8 -8 -17.833 -12 -29.5 -12s-21.5 4 -29.5 12l-308 314c-8 8 -12 18 -12 30s4 22 12 30l308 313c8 8 17.833 12.167 29.5 12.5
s21.5 -3.5 29.5 -11.5l54 -54c8 -8 12.167 -17.833 12.5 -29.5s-3.5 -21.5 -11.5 -29.5zM821 683l198 -202c8 -8 11.833 -17.833 11.5 -29.5s-4.5 -21.5 -12.5 -29.5l-54 -54c-8 -8 -17.833 -11.833 -29.5 -11.5s-21.5 4.5 -29.5 12.5l-308 314c-8 8 -12 18 -12 30
s4 22 12 30l308 314c8 8 17.833 12 29.5 12s21.5 -4 29.5 -12l54 -53c8 -8 12.167 -17.833 12.5 -29.5s-3.5 -21.5 -11.5 -29.5l-198 -202c-8 -8 -12 -18 -12 -30s4 -22 12 -30z" />
    <glyph glyph-name="softhyphen" unicode="&#xad;" horiz-adv-x="0" 
 />
    <glyph glyph-name="registered" unicode="&#xae;" horiz-adv-x="1617" 
d="M809 1419c96 0 187.5 -18.667 274.5 -56s162.167 -87.5 225.5 -150.5s113.666 -138 150.999 -225s56 -178.5 56 -274.5s-18.667 -187.5 -56 -274.5s-87.666 -162.167 -150.999 -225.5s-138.5 -113.666 -225.5 -150.999s-178.5 -56 -274.5 -56s-187.5 18.667 -274.5 56
s-162.167 87.666 -225.5 150.999s-113.666 138.5 -150.999 225.5s-56 178.5 -56 274.5s18.667 187.5 56 274.5s87.666 162 150.999 225s138.5 113.167 225.5 150.5s178.5 56 274.5 56zM1164 301c59.333 51.333 106 112.667 140 184s51 147.333 51 228
c0 74 -14.5 144.667 -43.5 212s-67.833 125.333 -116.5 174s-106.667 87.5 -174 116.5s-138 43.5 -212 43.5s-144.667 -14.5 -212 -43.5s-125.333 -67.833 -174 -116.5s-87.5 -106.667 -116.5 -174s-43.5 -138 -43.5 -212c0 -98.667 24.333 -190 73 -274
s115 -150.5 199 -199.5s175.333 -73.5 274 -73.5c42.667 0 89 6.66699 139 20c78 20 150 58.333 216 115zM965 674.001c-11.333 -8 -13.333 -18.334 -6 -31.001l126 -218c2.66699 -4.66699 2.5 -9.5 -0.5 -14.5s-7.16699 -7.5 -12.5 -7.5h-145c-10 0 -17 4 -21 12l-125 218
h-26v-206c0 -6.66699 -2.5 -12.334 -7.5 -17.001s-10.833 -7 -17.5 -7h-111c-6.66699 0 -12.5 2.33301 -17.5 7s-7.5 10.334 -7.5 17.001v612c0 6.66699 2.5 12.334 7.5 17.001s10.833 7 17.5 7h212c55.333 0 104.333 -17.5 147 -52.5s67.667 -79.167 75 -132.5
c6 -40.667 0.833008 -79 -15.5 -115s-40.5 -65.667 -72.5 -89zM840 793c15.333 0 28.333 5.33301 39 16s16 23.667 16 39s-5.33301 28.333 -16 39s-23.667 16 -39 16h-85v-110h85z" />
    <glyph glyph-name="degree" unicode="&#xb0;" horiz-adv-x="528" 
d="M264 1391c44.667 0 82.834 -15.833 114.501 -47.5s47.5 -69.834 47.5 -114.501s-15.833 -82.834 -47.5 -114.501s-69.834 -47.5 -114.501 -47.5s-82.834 15.833 -114.501 47.5s-47.5 69.834 -47.5 114.501s15.833 82.834 47.5 114.501s69.834 47.5 114.501 47.5z
M264 1172c16 0 29.667 5.5 41 16.5s17 24.5 17 40.5s-5.66699 29.667 -17 41s-25 17 -41 17s-29.5 -5.66699 -40.5 -17s-16.5 -25 -16.5 -41s5.5 -29.5 16.5 -40.5s24.5 -16.5 40.5 -16.5z" />
    <glyph glyph-name="plusminus" unicode="&#xb1;" horiz-adv-x="997" 
d="M853 167c11.333 0 21 -4.16699 29 -12.5s12 -18.166 12 -29.499v-77c0 -11.333 -4 -21 -12 -29s-17.667 -12 -29 -12h-709c-11.333 0 -21 4 -29 12s-12 17.667 -12 29v77c0 11.333 4 21.166 12 29.499s17.667 12.5 29 12.5h709zM853 793c11.333 0 21 -4.16699 29 -12.5
s12 -18.166 12 -29.499v-76c0 -11.333 -4 -21.166 -12 -29.499s-17.667 -12.5 -29 -12.5h-233c-11.333 0 -21.166 -4.16699 -29.499 -12.5s-12.5 -18.166 -12.5 -29.499v-232c0 -11.333 -4 -21.166 -12 -29.499s-17.667 -12.5 -29 -12.5h-77
c-11.333 0 -21.166 4.16699 -29.499 12.5s-12.5 18.166 -12.5 29.499v232c0 11.333 -4.16699 21.166 -12.5 29.499s-18.166 12.5 -29.499 12.5h-232c-11.333 0 -21.166 4.16699 -29.499 12.5s-12.5 18.166 -12.5 29.499v76c0 11.333 4.16699 21.166 12.5 29.499
s18.166 12.5 29.499 12.5h232c11.333 0 21.166 4.16699 29.499 12.5s12.5 18.166 12.5 29.499v232c0 11.333 4.16699 21.166 12.5 29.499s18.166 12.5 29.499 12.5h77c11.333 0 21 -4.16699 29 -12.5s12 -18.166 12 -29.499v-232c0 -11.333 4.16699 -21.166 12.5 -29.499
s18.166 -12.5 29.499 -12.5h233z" />
    <glyph glyph-name="acute" unicode="&#xb4;" horiz-adv-x="382" 
d="M256 1398c10.667 -4.66699 18.002 -12.333 22.002 -23s3.33301 -21 -2 -31l-105 -207c-4.66699 -10 -11.834 -17.167 -21.501 -21.5s-18.834 -4.83301 -27.501 -1.5s-14.5 10.166 -17.5 20.499s-2.5 20.833 1.5 31.5l78 217c4 10.667 11.167 18.334 21.5 23.001
s20.833 4.66699 31.5 0z" />
    <glyph glyph-name="paragraph" unicode="&#xb6;" horiz-adv-x="1247" 
d="M1103 1419c11.333 0 20.999 -4.00195 28.999 -12.002s12 -17.667 12 -29v-78c0 -11.333 -4 -21 -12 -29s-17.667 -12 -29 -12h-59c-11.333 0 -21 -4 -29 -12s-12 -17.667 -12 -29v-1369c0 -11.333 -3.83301 -21 -11.5 -29s-17.167 -12 -28.5 -12h-79
c-11.333 0 -21 4 -29 12s-12 17.667 -12 29v1369c0 11.333 -4 21 -12 29s-17.667 12 -29 12h-173v-1410c0 -11.333 -4 -21 -12 -29s-17.667 -12 -29 -12h-78c-11.333 0 -21 4 -29 12s-12 17.667 -12 29v866c-78.667 8.66699 -150.5 35.667 -215.5 81
s-110.333 102.333 -136 171s-18.834 145.334 20.499 230.001c34.667 68.667 85.834 122.834 153.501 162.501s140.834 59.5 219.501 59.5h592z" />
    <glyph glyph-name="cedilla" unicode="&#xb8;" horiz-adv-x="552" 
d="M327 -78c36.667 -13.333 66.499 -34.6689 89.499 -64.002s34.5 -61.666 34.5 -96.999c0 -48 -20.5 -89.167 -61.5 -123.5s-90.167 -51.5 -147.5 -51.5c-44 0 -84.333 11 -121 33c-10.667 6 -16.834 14.833 -18.501 26.5s1.83301 21.834 10.5 30.501l22 23
c13.333 13.333 28.333 15.333 45 6c18.667 -9.33301 39.334 -14 62.001 -14c28.667 0 53.334 6.83301 74.001 20.5s31 30.167 31 49.5s-10.333 36 -31 50s-45.334 21 -74.001 21h-52v68l8 14l79 124c5.33301 8.66699 12.833 14 22.5 16s18.834 0.333008 27.501 -5l27 -16
c8.66699 -5.33301 14 -13 16 -23s0.333008 -19.333 -5 -28z" />
    <glyph glyph-name="guillemotright" unicode="&#xbb;" 
d="M229 1056l308 -314c8 -8 12 -17.833 12 -29.5s-4 -21.5 -12 -29.5l-308 -314c-8 -8 -17.833 -12.167 -29.5 -12.5s-21.5 3.5 -29.5 11.5l-55 54c-8 8 -12.167 17.833 -12.5 29.5s3.5 21.5 11.5 29.5l198 202c8 8 12 17.833 12 29.5s-4 21.5 -12 29.5l-198 202
c-8 8 -11.833 17.833 -11.5 29.5s4.5 21.5 12.5 29.5l55 54c8 8 17.833 11.833 29.5 11.5s21.5 -4.5 29.5 -12.5zM1019 742c8 -8 12 -17.832 12 -29.499s-4 -21.834 -12 -30.501l-308 -313c-8 -8 -17.833 -12.167 -29.5 -12.5s-21.5 3.5 -29.5 11.5l-54 54
c-8 8 -12.167 17.833 -12.5 29.5s3.5 21.5 11.5 29.5l198 202c8 8 12 17.833 12 29.5s-4 21.5 -12 29.5l-198 202c-8 8 -11.833 17.833 -11.5 29.5s4.5 21.5 12.5 29.5l54 54c8 8 17.833 11.833 29.5 11.5s21.5 -4.5 29.5 -12.5z" />
    <glyph glyph-name="questiondown" unicode="&#xbf;" horiz-adv-x="974" 
d="M484 617c-26.667 0 -49.334 9.33301 -68.001 28s-28 41.334 -28 68.001s9.33301 49.334 28 68.001s41.334 28 68.001 28s49.334 -9.33301 68.001 -28s28 -41.334 28 -68.001s-9.33301 -49.334 -28 -68.001s-41.334 -28 -68.001 -28zM865 -170
c18 -94.667 2.67188 -184.995 -45.9951 -270.995s-117.667 -144 -207 -174c-42 -14 -85 -21 -129 -21c-77.333 0 -147.333 20.333 -210 61c-89.333 57.333 -146 137.666 -170 240.999c-2.66699 12 -0.333984 23.167 6.99902 33.5s17.333 16.166 30 17.499l77 8
c10.667 0.666992 20.167 -2 28.5 -8s13.833 -14 16.5 -24c16 -58 48.333 -102.333 97 -133c63.333 -40 130.666 -47.667 201.999 -23c51.333 17.333 91.333 51.666 120 102.999s37.667 104.666 27 159.999c-8.66699 48 -31.667 87.667 -69 119
c-74.667 61.333 -132.334 137.5 -173.001 228.5s-61 188.167 -61 291.5v23c0 11.333 4.16699 21.166 12.5 29.499s18.166 12.5 29.499 12.5h76c11.333 0 21.166 -4.16699 29.499 -12.5s12.5 -18.166 12.5 -29.499v-23c0 -80 15.333 -154.333 46 -223
s74 -126.334 130 -173.001c66.667 -54.667 108 -125.667 124 -213z" />
    <glyph glyph-name="Agrave" unicode="&#xc0;" horiz-adv-x="1396" 
d="M698 1419l593.995 -1389c4.66699 -10.667 4.5 -19.667 -0.5 -27s-13.167 -11 -24.5 -11h-91c-11.333 0 -22.666 3.66699 -33.999 11s-19.333 16.333 -24 27l-119 277c-4.66699 10.667 -12.667 19.667 -24 27s-22.666 11 -33.999 11h-494
c-11.333 0 -22.666 -3.66699 -33.999 -11s-19.333 -16.333 -24 -27l-111 -277c-4 -10.667 -11.833 -19.667 -23.5 -27s-23.167 -11 -34.5 -11h-89c-11.333 0 -19.666 3.66699 -24.999 11s-5.66602 16.333 -0.999023 27l561 1389c4.66699 10.667 10 16 16 16
s11.333 -5.33301 16 -16zM872.995 505c11.333 0 19.5 3.83301 24.5 11.5s5.16699 16.834 0.5 27.501l-196 458c-4.66699 10.667 -10 16 -16 16s-11.333 -5.33301 -16 -16l-185 -458c-4 -10.667 -3.5 -19.834 1.5 -27.501s13.167 -11.5 24.5 -11.5h362zM594.995 1567
l-87.999 165.001c-5.33301 10 -5.83301 18.667 -1.5 26s12.166 11 23.499 11h62c12 0 23.5 -3.83301 34.5 -11.5s18.167 -16.834 21.5 -27.501l54 -160l13 -40h-42h-16c-11.333 0 -23 3.66699 -35 11s-20.667 16 -26 26z" />
    <glyph glyph-name="Aacute" unicode="&#xc1;" horiz-adv-x="1396" 
d="M725 1530c-11.333 0 -19.666 3.66699 -24.999 11s-6.33301 16.666 -3 27.999l55 161c3.33301 10.667 10.5 19.834 21.5 27.501s22.167 11.5 33.5 11.5h63c11.333 0 19.166 -3.66699 23.499 -11s3.83301 -16 -1.5 -26l-88 -165c-5.33301 -10 -14 -18.667 -26 -26
s-23.667 -11 -35 -11h-18zM731 1419l560.995 -1389c4.66699 -10.667 4.33398 -19.667 -0.999023 -27s-13.666 -11 -24.999 -11h-89c-11.333 0 -22.666 3.66699 -33.999 11s-19.333 16.333 -24 27l-111 277c-4 10.667 -11.833 19.667 -23.5 27s-23.167 11 -34.5 11h-494
c-11.333 0 -22.666 -3.66699 -33.999 -11s-19.333 -16.333 -24 -27l-119 -277c-4.66699 -10.667 -12.667 -19.667 -24 -27s-22.666 -11 -33.999 -11h-90c-11.333 0 -19.5 3.66699 -24.5 11s-5.16699 16.333 -0.5 27l593 1389c4.66699 10.667 10 16 16 16
s11.333 -5.33301 16 -16zM885.995 505c11.333 0 19.5 3.83301 24.5 11.5s5.5 16.834 1.5 27.501l-185 458c-4.66699 10.667 -10 16 -16 16s-11.333 -5.33301 -16 -16l-196 -458c-4.66699 -10.667 -4.5 -19.834 0.5 -27.501s13.167 -11.5 24.5 -11.5h362z" />
    <glyph glyph-name="Acircumflex" unicode="&#xc2;" horiz-adv-x="1396" 
d="M473 1581c-11.333 0 -18.6699 3.33301 -22.0029 10s-1.66602 14.667 5.00098 24l213 298c6.66699 9.33301 14.834 14 24.501 14s17.834 -4.66699 24.501 -14l213 -298c6.66699 -9.33301 8.33398 -17.333 5.00098 -24s-10.666 -10 -21.999 -10h-114
c-11.333 0 -23.5 3.33301 -36.5 10s-22.833 14.667 -29.5 24l-16 23c-6.66699 9.33301 -14.834 14 -24.501 14s-17.834 -4.66699 -24.501 -14l-16 -23c-6.66699 -9.33301 -16.5 -17.333 -29.5 -24s-25.167 -10 -36.5 -10h-114zM709.996 1419l581.994 -1389
c4.66699 -10.667 4.5 -19.834 -0.5 -27.501s-13.167 -11.5 -24.5 -11.5h-90c-11.333 0 -22.666 3.83301 -33.999 11.5s-19.333 16.834 -24 27.501l-116 277c-4.66699 10.667 -12.667 19.667 -24 27s-22.666 11 -33.999 11h-494c-11.333 0 -22.666 -3.66699 -33.999 -11
s-19.333 -16.333 -24 -27l-114 -277c-4.66699 -10.667 -12.667 -19.667 -24 -27s-22.666 -11 -33.999 -11h-90c-11.333 0 -19.666 3.66699 -24.999 11s-5.66602 16.333 -0.999023 27l573 1389c4.66699 10.667 10 16 16 16s11.333 -5.33301 16 -16zM877.99 505
c11.333 0 19.502 3.83301 24.502 11.5s5.16699 16.834 0.5 27.501l-192 458c-4.66699 10.667 -10 16 -16 16s-11.333 -5.33301 -16 -16l-189 -458c-4.66699 -10.667 -4.33398 -19.834 0.999023 -27.501s13.666 -11.5 24.999 -11.5h362zM841.992 1470
c-2 -0.666992 -3.33398 -0.666992 -4.00098 0c-1.33301 1.33301 -0.666016 2 2.00098 2z" />
    <glyph glyph-name="Atilde" unicode="&#xc3;" horiz-adv-x="1396" 
d="M710 1419l581.992 -1389c4.66699 -10.667 4.33398 -19.834 -0.999023 -27.501s-13.666 -11.5 -24.999 -11.5h-90c-11.333 0 -22.666 3.83301 -33.999 11.5s-19.333 16.834 -24 27.501l-115 277c-4.66699 10.667 -12.667 19.667 -24 27s-22.666 11 -33.999 11h-494
c-11.333 0 -22.666 -3.66699 -33.999 -11s-19.333 -16.333 -24 -27l-114 -277c-4.66699 -10.667 -12.667 -19.667 -24 -27s-22.666 -11 -33.999 -11h-90c-11.333 0 -19.666 3.66699 -24.999 11s-5.66602 16.333 -0.999023 27l573 1389c4.66699 10.667 10 16 16 16
s11.333 -5.33301 16 -16zM876.992 505c11.333 0 19.6699 3.83301 25.0029 11.5s5.66602 16.834 0.999023 27.501l-192 458c-4.66699 10.667 -10 16 -16 16s-11.333 -5.33301 -16 -16l-189 -458c-4.66699 -10.667 -4.33398 -19.834 0.999023 -27.501
s13.666 -11.5 24.999 -11.5h361zM429.996 1650l-9.00195 6.99805c-11.333 8.66699 -17.5 19.834 -18.5 33.501s3.16699 25.5 12.5 35.5c47.333 48 98.833 74.833 154.5 80.5s108.5 -10.833 158.5 -49.5l16 -14c51.333 -40 106.333 -35 165 15
c8.66699 6.66699 18.5 10 29.5 10s20.833 -3.33301 29.5 -10l10 -8c10.667 -8.66699 16.334 -20.167 17.001 -34.5s-4 -26.166 -14 -35.499c-50.667 -47.333 -104.667 -71 -162 -71c-48.667 0 -95.334 17.333 -140.001 52c-7.33301 4.66699 -13.666 10 -18.999 16
c-22.667 17.333 -46.667 26 -72 26c-32.667 0 -65 -16 -97 -48c-8.66699 -8.66699 -18.667 -13.5 -30 -14.5s-21.666 2.16699 -30.999 9.5z" />
    <glyph glyph-name="Adieresis" unicode="&#xc4;" horiz-adv-x="1396" 
d="M710 1419l581.993 -1389c4.66699 -10.667 4.33398 -19.834 -0.999023 -27.501s-13.666 -11.5 -24.999 -11.5h-90c-11.333 0 -22.5 3.83301 -33.5 11.5s-18.833 16.834 -23.5 27.501l-116 277c-4.66699 10.667 -12.667 19.667 -24 27s-22.666 11 -33.999 11h-494
c-11.333 0 -22.666 -3.66699 -33.999 -11s-19.333 -16.333 -24 -27l-114 -277c-4.66699 -10.667 -12.667 -19.667 -24 -27s-22.666 -11 -33.999 -11h-90c-11.333 0 -19.666 3.66699 -24.999 11s-5.66602 16.333 -0.999023 27l573 1389c4.66699 10.667 10 16 16 16
s11.333 -5.33301 16 -16zM877.993 505c11.333 0 19.502 3.83301 24.502 11.5s5.16699 16.834 0.5 27.501l-191 458c-4.66699 10.667 -10 16 -16 16s-11.333 -5.33301 -16 -16l-189 -458c-4.66699 -10.667 -4.33398 -19.834 0.999023 -27.501s13.666 -11.5 24.999 -11.5h361z
M885.995 1609c-26.667 0 -49.5 9.33301 -68.5 28s-28.5 41.334 -28.5 68.001s9.5 49.5 28.5 68.5s41.833 28.5 68.5 28.5s49.334 -9.5 68.001 -28.5s28 -41.833 28 -68.5s-9.33301 -49.334 -28 -68.001s-41.334 -28 -68.001 -28zM503.995 1609
c-26.667 0 -49.334 9.33301 -68.001 28s-28 41.334 -28 68.001s9.33301 49.5 28 68.5s41.334 28.5 68.001 28.5s49.334 -9.5 68.001 -28.5s28 -41.833 28 -68.5s-9.33301 -49.334 -28 -68.001s-41.334 -28 -68.001 -28z" />
    <glyph glyph-name="Aring" unicode="&#xc5;" horiz-adv-x="1396" 
d="M790 1230l501.991 -1200c4.66699 -10.667 4.33398 -19.667 -0.999023 -27s-13.666 -11 -24.999 -11h-90c-11.333 0 -22.666 3.66699 -33.999 11s-19.333 16.333 -24 27l-115 277c-4.66699 10.667 -12.667 19.834 -24 27.501s-22.666 11.5 -33.999 11.5h-494
c-11.333 0 -22.666 -3.83301 -33.999 -11.5s-19.333 -16.834 -24 -27.501l-114 -277c-4.66699 -10.667 -12.667 -19.667 -24 -27s-22.666 -11 -33.999 -11h-90c-11.333 0 -19.666 3.66699 -24.999 11s-5.66602 16.333 -0.999023 27l495 1200
c4.66699 10.667 5.5 22.5 2.5 35.5s-8.83301 23.167 -17.5 30.5c-5.33301 4.66699 -12.166 11.167 -20.499 19.5s-19.333 24.666 -33 48.999s-20.5 47.166 -20.5 68.499c0 50.667 18 94.167 54 130.5s79.333 54.5 130 54.5s94 -18.167 130 -54.5s54 -79.833 54 -130.5
c0 -21.333 -6.16699 -43.5 -18.5 -66.5s-24.5 -40.5 -36.5 -52.5l-19 -18c-8.66699 -7.33301 -14.5 -17.5 -17.5 -30.5s-2.16699 -24.833 2.5 -35.5zM694.991 1513c-22 0 -40.833 -7.83301 -56.5 -23.5s-23.5 -34.5 -23.5 -56.5s7.83301 -40.667 23.5 -56s34.5 -23 56.5 -23
s40.833 7.66699 56.5 23s23.5 34 23.5 56s-7.83301 40.833 -23.5 56.5s-34.5 23.5 -56.5 23.5zM877.991 505.002c11.333 0 19.502 3.83301 24.502 11.5s5.16699 16.834 0.5 27.501l-191 458c-4.66699 10.667 -10 16 -16 16s-11.333 -5.33301 -16 -16l-189 -458
c-4.66699 -10.667 -4.33398 -19.834 0.999023 -27.501s13.666 -11.5 24.999 -11.5h361z" />
    <glyph glyph-name="AE" unicode="&#xc6;" horiz-adv-x="1720" 
d="M1044 1259c-11.333 0 -21.1689 -4.17676 -29.502 -12.5098s-12.5 -18.166 -12.5 -29.499v-477c0 -11.333 4.16699 -21.166 12.5 -29.499s18.166 -12.5 29.499 -12.5h294c11.333 0 21.166 -4.16699 29.499 -12.5s12.5 -18.166 12.5 -29.499v-76
c0 -11.333 -4.16699 -21.166 -12.5 -29.499s-18.166 -12.5 -29.499 -12.5h-294c-11.333 0 -21.166 -4.16699 -29.499 -12.5s-12.5 -18.166 -12.5 -29.499v-288c0 -11.333 4.16699 -21.166 12.5 -29.499s18.166 -12.5 29.499 -12.5h532
c11.333 0 21.166 -4.16699 29.499 -12.5s12.5 -18.166 12.5 -29.499v-76c0 -11.333 -4.16699 -21.166 -12.5 -29.499s-18.166 -12.5 -29.499 -12.5h-692c-11.333 0 -21.166 4.16699 -29.499 12.5s-12.5 18.166 -12.5 29.499v256c0 11.333 -4.16699 21 -12.5 29
s-18.166 12 -29.499 12h-354c-11.333 0 -22.5 -3.66699 -33.5 -11s-18.833 -16.333 -23.5 -27l-111 -277c-4 -10.667 -11.833 -19.667 -23.5 -27s-23.167 -11 -34.5 -11h-89c-11.333 0 -19.666 3.66699 -24.999 11s-5.66602 16.333 -0.999023 27l544 1350
c4 10.667 11.667 19.834 23 27.501s22.666 11.5 33.999 11.5h94h397h379c11.333 0 21.166 -4.16699 29.499 -12.5s12.5 -18.166 12.5 -29.499v-76c0 -11.333 -4.16699 -21.166 -12.5 -29.499s-18.166 -12.5 -29.499 -12.5h-296h-236zM841.997 546.99l0.00390625 670.002
c0 11.333 -3.5 21.166 -10.5 29.499s-15.167 12.5 -24.5 12.5s-18.833 -3.83301 -28.5 -11.5s-16.834 -16.834 -21.501 -27.501l-272 -676c-4.66699 -10.667 -4.33398 -19.667 0.999023 -27s13.666 -11 24.999 -11h289c11.333 0 21.166 4 29.499 12s12.5 17.667 12.5 29z
" />
    <glyph glyph-name="Ccedilla" unicode="&#xc7;" horiz-adv-x="1388" 
d="M809 1259c-80 0 -155.998 -16.832 -227.998 -50.499s-132.667 -78.5 -182 -134.5s-86.166 -122.333 -110.499 -199s-31.166 -156 -20.499 -238c18.667 -137.333 79.5 -250.5 182.5 -339.5s223.833 -132.833 362.5 -131.5c113.333 1.33301 216.333 34.333 309 99
c8.66699 6 18.334 8.16699 29.001 6.5s19.334 -6.83398 26.001 -15.501l48 -60c7.33301 -9.33301 10.333 -20 9 -32s-7 -21.333 -17 -28c-107.333 -74.667 -227.333 -116.667 -360 -126c-14 -1.33301 -24.667 -7.66602 -32 -18.999l-19 -30c-6 -10 -7.5 -20.667 -4.5 -32
s9.5 -20 19.5 -26c26.667 -16 47.667 -36.5 63 -61.5s23 -51.833 23 -80.5c0 -48 -20.5 -89.167 -61.5 -123.5s-90.167 -51.5 -147.5 -51.5c-42.667 0 -81.334 9.66699 -116.001 29c-12 6.66699 -18.833 16.834 -20.5 30.501s2.16602 25.5 11.499 35.5l14 14
c15.333 15.333 31.666 18.666 48.999 9.99902c18.667 -9.33301 39.334 -14 62.001 -14c28.667 0 53.167 6.83301 73.5 20.5s30.5 30.167 30.5 49.5s-10.167 36 -30.5 50s-44.833 21 -73.5 21h-52v67l8 15l30 49c7.33301 12 8.33301 24.833 3 38.5s-15 21.834 -29 24.501
c-162.667 35.333 -296.667 118.166 -402 248.499s-156.666 280.166 -153.999 449.499c2 118 31.667 228.333 89 331s135.166 186.167 233.499 250.5s206.166 101.5 323.499 111.5c96.667 8 190.167 -2.66699 280.5 -32s171.5 -75.333 243.5 -138
c9.33301 -8 14.166 -18 14.499 -30s-3.83398 -22.333 -12.501 -31l-54 -55c-7.33301 -7.33301 -16.333 -11.5 -27 -12.5s-20 1.83301 -28 8.5c-102.667 88 -221.334 132 -356.001 132z" />
    <glyph glyph-name="Egrave" unicode="&#xc8;" horiz-adv-x="980" 
d="M512 1567l-87.999 165.002c-5.33301 10 -5.83301 18.667 -1.5 26s12.166 11 23.499 11h63c12 0 23.5 -3.83301 34.5 -11.5s18.167 -16.834 21.5 -27.501l54 -161c4 -10.667 3.16699 -19.834 -2.5 -27.501s-14.167 -11.5 -25.5 -11.5h-18c-11.333 0 -23 3.66699 -35 11
s-20.667 16 -26 26zM304.001 1259c-11.333 0 -21 -4.1748 -29 -12.5078s-12 -18.166 -12 -29.499v-477c0 -11.333 4 -21.166 12 -29.499s17.667 -12.5 29 -12.5h295c11.333 0 21.166 -4.16699 29.499 -12.5s12.5 -18.166 12.5 -29.499v-76
c0 -11.333 -4.16699 -21.166 -12.5 -29.499s-18.166 -12.5 -29.499 -12.5h-295c-11.333 0 -21 -4.16699 -29 -12.5s-12 -18.166 -12 -29.499v-288c0 -11.333 4 -21.166 12 -29.499s17.667 -12.5 29 -12.5h533c11.333 0 21.166 -4.16699 29.499 -12.5
s12.5 -18.166 12.5 -29.499v-76c0 -11.333 -4.16699 -21.166 -12.5 -29.499s-18.166 -12.5 -29.499 -12.5h-693c-11.333 0 -21.166 4.16699 -29.499 12.5s-12.5 18.166 -12.5 29.499v1329c0 11.333 4.16699 21.166 12.5 29.499s18.166 12.5 29.499 12.5h693
c11.333 0 21.166 -4.16699 29.499 -12.5s12.5 -18.166 12.5 -29.499v-76c0 -11.333 -4.16699 -21.166 -12.5 -29.499s-18.166 -12.5 -29.499 -12.5h-533z" />
    <glyph glyph-name="Eacute" unicode="&#xc9;" horiz-adv-x="980" 
d="M470 1530c-11.333 0 -19.666 3.66699 -24.999 11s-6.33301 16.666 -3 27.999l54 161c3.33301 10.667 10.5 19.834 21.5 27.501s22.5 11.5 34.5 11.5h63c11.333 0 19.166 -3.66699 23.499 -11s3.83301 -16 -1.5 -26l-88 -165c-5.33301 -10 -14 -18.667 -26 -26
s-23.667 -11 -35 -11h-18zM304 1259c-11.333 0 -21 -4.1748 -29 -12.5078s-12 -18.166 -12 -29.499v-477c0 -11.333 4 -21.166 12 -29.499s17.667 -12.5 29 -12.5h295c11.333 0 21.166 -4.16699 29.499 -12.5s12.5 -18.166 12.5 -29.499v-76
c0 -11.333 -4.16699 -21.166 -12.5 -29.499s-18.166 -12.5 -29.499 -12.5h-295c-11.333 0 -21 -4.16699 -29 -12.5s-12 -18.166 -12 -29.499v-288c0 -11.333 4 -21.166 12 -29.499s17.667 -12.5 29 -12.5h533c11.333 0 21.166 -4.16699 29.499 -12.5
s12.5 -18.166 12.5 -29.499v-76c0 -11.333 -4.16699 -21.166 -12.5 -29.499s-18.166 -12.5 -29.499 -12.5h-693c-11.333 0 -21.166 4.16699 -29.499 12.5s-12.5 18.166 -12.5 29.499v1329c0 11.333 4.16699 21.166 12.5 29.499s18.166 12.5 29.499 12.5h693
c11.333 0 21.166 -4.16699 29.499 -12.5s12.5 -18.166 12.5 -29.499v-76c0 -11.333 -4.16699 -21.166 -12.5 -29.499s-18.166 -12.5 -29.499 -12.5h-533z" />
    <glyph glyph-name="Ecircumflex" unicode="&#xca;" horiz-adv-x="980" 
d="M345 1581c-11.333 0 -18.835 3.33301 -22.502 10s-2.16699 14.667 4.5 24l179 250c6.66699 9.33301 14.834 14 24.501 14s17.834 -4.66699 24.501 -14l179 -250c6.66699 -9.33301 8.33398 -17.333 5.00098 -24s-10.666 -10 -21.999 -10h-45
c-11.333 0 -23.5 3.33301 -36.5 10s-22.833 14.667 -29.5 24l-51 70c-6.66699 9.33301 -14.834 14 -24.501 14s-17.834 -4.66699 -24.501 -14l-50 -70c-6.66699 -9.33301 -16.5 -17.333 -29.5 -24s-25.167 -10 -36.5 -10h-45zM303.998 1259
c-11.333 0 -21 -4.1748 -29 -12.5078s-12 -18.166 -12 -29.499v-477c0 -11.333 4 -21.166 12 -29.499s17.667 -12.5 29 -12.5h295c11.333 0 21.166 -4.16699 29.499 -12.5s12.5 -18.166 12.5 -29.499v-76c0 -11.333 -4.16699 -21.166 -12.5 -29.499
s-18.166 -12.5 -29.499 -12.5h-295c-11.333 0 -21 -4.16699 -29 -12.5s-12 -18.166 -12 -29.499v-288c0 -11.333 4 -21.166 12 -29.499s17.667 -12.5 29 -12.5h533c11.333 0 21.166 -4.16699 29.499 -12.5s12.5 -18.166 12.5 -29.499v-76
c0 -11.333 -4.16699 -21.166 -12.5 -29.499s-18.166 -12.5 -29.499 -12.5h-693c-11.333 0 -21.166 4.16699 -29.499 12.5s-12.5 18.166 -12.5 29.499v1329c0 11.333 4.16699 21.166 12.5 29.499s18.166 12.5 29.499 12.5h693c11.333 0 21.166 -4.16699 29.499 -12.5
s12.5 -18.166 12.5 -29.499v-76c0 -11.333 -4.16699 -21.166 -12.5 -29.499s-18.166 -12.5 -29.499 -12.5h-533z" />
    <glyph glyph-name="Edieresis" unicode="&#xcb;" horiz-adv-x="980" 
d="M340 1609c-26.667 0 -49.334 9.33301 -68.001 28s-28 41.334 -28 68.001s9.33301 49.5 28 68.5s41.334 28.5 68.001 28.5s49.334 -9.5 68.001 -28.5s28 -41.833 28 -68.5s-9.33301 -49.334 -28 -68.001s-41.334 -28 -68.001 -28zM721 1609
c-26.667 0 -49.334 9.33301 -68.001 28s-28 41.334 -28 68.001s9.33301 49.5 28 68.5s41.334 28.5 68.001 28.5s49.334 -9.5 68.001 -28.5s28 -41.833 28 -68.5s-9.33301 -49.334 -28 -68.001s-41.334 -28 -68.001 -28zM304 1259c-11.333 0 -21 -4.1748 -29 -12.5078
s-12 -18.166 -12 -29.499v-477c0 -11.333 4 -21.166 12 -29.499s17.667 -12.5 29 -12.5h295c11.333 0 21 -4.16699 29 -12.5s12 -18.166 12 -29.499v-76c0 -11.333 -4 -21.166 -12 -29.499s-17.667 -12.5 -29 -12.5h-295c-11.333 0 -21 -4.16699 -29 -12.5
s-12 -18.166 -12 -29.499v-288c0 -11.333 4 -21.166 12 -29.499s17.667 -12.5 29 -12.5h533c11.333 0 21.166 -4.16699 29.499 -12.5s12.5 -18.166 12.5 -29.499v-76c0 -11.333 -4.16699 -21.166 -12.5 -29.499s-18.166 -12.5 -29.499 -12.5h-693
c-11.333 0 -21.166 4.16699 -29.499 12.5s-12.5 18.166 -12.5 29.499v1329c0 11.333 4.16699 21.166 12.5 29.499s18.166 12.5 29.499 12.5h693c11.333 0 21.166 -4.16699 29.499 -12.5s12.5 -18.166 12.5 -29.499v-76c0 -11.333 -4.16699 -21.166 -12.5 -29.499
s-18.166 -12.5 -29.499 -12.5h-533z" />
    <glyph glyph-name="Igrave" unicode="&#xcc;" horiz-adv-x="436" 
d="M273 1431c11.333 0 21.166 -4.16699 29.499 -12.5s12.5 -18.166 12.5 -29.499v-1352c0 -11.333 -4.16699 -21.166 -12.5 -29.499s-18.166 -12.5 -29.499 -12.5h-77c-11.333 0 -21 4.16699 -29 12.5s-12 18.166 -12 29.499v1352c0 11.333 4 21.166 12 29.499
s17.667 12.5 29 12.5h77zM279 1729l51.9961 -159c3.33301 -11.333 2.33301 -20.833 -3 -28.5s-13.666 -11.5 -24.999 -11.5h-33c-11.333 0 -23.166 3.66699 -35.499 11s-21.166 16 -26.499 26l-89 162c-13.333 24 -18.666 36.667 -15.999 38s18 2 46 2h75
c11.333 0 22.5 -4 33.5 -12s18.167 -17.333 21.5 -28z" />
    <glyph glyph-name="Iacute" unicode="&#xcd;" horiz-adv-x="436" 
d="M239 1431c11.333 0 21.166 -4.16699 29.499 -12.5s12.5 -18.166 12.5 -29.499v-1352c0 -11.333 -4.16699 -21.166 -12.5 -29.499s-18.166 -12.5 -29.499 -12.5h-77c-11.333 0 -21 4.16699 -29 12.5s-12 18.166 -12 29.499v1352c0 11.333 4 21.166 12 29.499
s17.667 12.5 29 12.5h77zM287 1769c28 0 43.3311 -0.666992 45.998 -2s-2.66602 -14 -15.999 -38l-89 -163c-5.33301 -10 -14.166 -18.5 -26.499 -25.5s-24.166 -10.5 -35.499 -10.5h-33c-11.333 0 -19.833 3.83301 -25.5 11.5s-6.83398 17.167 -3.50098 28.5l53 159
c3.33301 10.667 10.5 20 21.5 28s22.167 12 33.5 12h75z" />
    <glyph glyph-name="Icircumflex" unicode="&#xce;" horiz-adv-x="624" 
d="M351 1431c11.333 0 21 -4.16699 29 -12.5s12 -18.166 12 -29.499v-1352c0 -11.333 -4 -21.166 -12 -29.499s-17.667 -12.5 -29 -12.5h-77c-11.333 0 -21.166 4.16699 -29.499 12.5s-12.5 18.166 -12.5 29.499v1352c0 11.333 4.16699 21.166 12.5 29.499
s18.166 12.5 29.499 12.5h77zM516 1615c6.66699 -9.33301 8.3291 -17.333 4.99609 -24s-10.666 -10 -21.999 -10h-45c-12 0 -24.5 3.33301 -37.5 10s-22.833 14.667 -29.5 24l-50 70c-6.66699 9.33301 -14.834 14 -24.501 14s-17.834 -4.66699 -24.501 -14l-50 -70
c-6.66699 -9.33301 -16.667 -17.333 -30 -24s-25.666 -10 -36.999 -10h-45c-11.333 0 -18.666 3.33301 -21.999 10s-1.66602 14.667 5.00098 24l179 250c6.66699 9.33301 14.834 14 24.501 14s17.834 -4.66699 24.501 -14z" />
    <glyph glyph-name="Idieresis" unicode="&#xcf;" horiz-adv-x="778" 
d="M428 1431c11.333 0 21 -4.16699 29 -12.5s12 -18.166 12 -29.499v-1352c0 -11.333 -4 -21.166 -12 -29.499s-17.667 -12.5 -29 -12.5h-77c-11.333 0 -21.166 4.16699 -29.499 12.5s-12.5 18.166 -12.5 29.499v1352c0 11.333 4.16699 21.166 12.5 29.499
s18.166 12.5 29.499 12.5h77zM199 1802c26.667 0 49.334 -9.5 68.001 -28.5s28 -41.833 28 -68.5s-9.33301 -49.334 -28 -68.001s-41.334 -28 -68.001 -28s-49.5 9.33301 -68.5 28s-28.5 41.334 -28.5 68.001s9.5 49.5 28.5 68.5s41.833 28.5 68.5 28.5zM580 1802
c26.667 0 49.334 -9.5 68.001 -28.5s28 -41.833 28 -68.5s-9.33301 -49.334 -28 -68.001s-41.334 -28 -68.001 -28s-49.334 9.33301 -68.001 28s-28 41.334 -28 68.001s9.33301 49.5 28 68.5s41.334 28.5 68.001 28.5z" />
    <glyph glyph-name="Eth" unicode="&#xd0;" horiz-adv-x="1298" 
d="M490 1419c98 0 191.501 -19.498 280.501 -58.498s165.167 -91.333 228.5 -157s113 -143.667 149 -234s52 -184.833 48 -283.5c-4.66699 -124.667 -40.334 -239.334 -107.001 -344.001s-154.667 -186.834 -264 -246.501s-227 -89.5 -353 -89.5h-231
c-10.667 0 -20 4 -28 12s-12 17.667 -12 29v451c0 10.667 -4 20 -12 28s-17.667 12 -29 12h-17c-11.333 0 -21 4 -29 12s-12 17.667 -12 29v79c0 10.667 4 20.167 12 28.5s17.667 12.5 29 12.5h17c11.333 0 21 4 29 12s12 17.333 12 28v640
c0 11.333 3.83301 20.833 11.5 28.5s17.167 11.5 28.5 11.5h249zM490.001 166.002c76 0 148.501 15.333 217.501 46s128.167 71.667 177.5 123s87.666 112.5 114.999 183.5s39 144.833 35 221.5c-4.66699 96 -33 183.833 -85 263.5s-120.167 142.167 -204.5 187.5
s-174.833 68 -271.5 68h-73c-11.333 0 -20.833 -3.83301 -28.5 -11.5s-11.5 -17.167 -11.5 -28.5v-480c0 -11.333 4 -21 12 -29s17.333 -12 28 -12h119c10.667 0 20 -4 28 -12s12 -17.333 12 -28v-79c0 -11.333 -4 -21 -12 -29s-17.333 -12 -28 -12h-119
c-11.333 0 -20.833 -4 -28.5 -12s-11.5 -17.333 -11.5 -28v-291c0 -11.333 4 -21 12 -29s17.333 -12 28 -12h89z" />
    <glyph glyph-name="Ntilde" unicode="&#xd1;" horiz-adv-x="1200" 
d="M331 1650l-9.00098 6.99805c-11.333 8.66699 -17.5 19.834 -18.5 33.501s3.16699 25.5 12.5 35.5c47.333 48 98.666 74.833 153.999 80.5s108 -10.833 158 -49.5l17 -14c51.333 -40 106.333 -35 165 15c8.66699 6.66699 18.334 10 29.001 10s20.334 -3.33301 29.001 -10
l10 -8c10.667 -8.66699 16.5 -20.167 17.5 -34.5s-3.5 -26.166 -13.5 -35.499c-50.667 -47.333 -104.667 -71 -162 -71c-48.667 0 -95.334 17.333 -140.001 52c-6.66699 4.66699 -13 10 -19 16c-22.667 17.333 -46.667 26 -72 26c-32.667 0 -65 -16 -97 -48
c-8.66699 -8.66699 -18.667 -13.5 -30 -14.5s-21.666 2.16699 -30.999 9.5zM1056 1431c11.333 0 21.166 -4.16699 29.499 -12.5s12.5 -18.166 12.5 -29.499v-1372c0 -10 -4.83301 -16.667 -14.5 -20s-17.5 -1 -23.5 7l-797 1005v-972
c0 -11.333 -4.16699 -21.166 -12.5 -29.499s-18.166 -12.5 -29.499 -12.5h-77c-11.333 0 -21.166 4.16699 -29.499 12.5s-12.5 18.166 -12.5 29.499v1371c0 10 4.83301 16.833 14.5 20.5s17.5 1.5 23.5 -6.5l798 -1006v973c0 11.333 4.16699 21.166 12.5 29.499
s18.166 12.5 29.499 12.5h76z" />
    <glyph glyph-name="Ograve" unicode="&#xd2;" horiz-adv-x="1617" 
d="M790 1567l-87.002 165c-5.33301 10 -5.83301 18.667 -1.5 26s12.166 11 23.499 11h63c11.333 0 22.5 -3.83301 33.5 -11.5s18.167 -16.834 21.5 -27.501l55 -161c3.33301 -11.333 2.33301 -20.666 -3 -27.999s-13.666 -11 -24.999 -11h-18
c-11.333 0 -23.166 3.66699 -35.499 11s-21.166 16 -26.499 26zM808.998 1419c96 0 187.5 -18.667 274.5 -56s162.167 -87.5 225.5 -150.5s113.666 -138 150.999 -225s56 -178.5 56 -274.5s-18.667 -187.5 -56 -274.5s-87.666 -162.167 -150.999 -225.5
s-138.5 -113.666 -225.5 -150.999s-178.5 -56 -274.5 -56s-187.5 18.667 -274.5 56s-162.167 87.666 -225.5 150.999s-113.666 138.5 -150.999 225.5s-56 178.5 -56 274.5s18.667 187.5 56 274.5s87.666 162 150.999 225s138.5 113.167 225.5 150.5s178.5 56 274.5 56z
M808.998 166c98.667 0 190 24.5 274 73.5s150.333 115.5 199 199.5s73 175.333 73 274c0 74 -14.5 144.667 -43.5 212s-67.833 125.333 -116.5 174s-106.667 87.5 -174 116.5s-138 43.5 -212 43.5s-144.667 -14.5 -212 -43.5s-125.333 -67.833 -174 -116.5
s-87.5 -106.667 -116.5 -174s-43.5 -138 -43.5 -212c0 -98.667 24.333 -190 73 -274s115 -150.5 199 -199.5s175.333 -73.5 274 -73.5z" />
    <glyph glyph-name="Oacute" unicode="&#xd3;" horiz-adv-x="1617" 
d="M748 1530c-11.333 0 -19.834 3.83105 -25.501 11.498s-6.5 16.834 -2.5 27.501l55 161c3.33301 10.667 10.5 19.834 21.5 27.501s22.167 11.5 33.5 11.5h63c11.333 0 19.166 -3.66699 23.499 -11s3.83301 -16 -1.5 -26l-87 -165
c-5.33301 -10 -14.166 -18.667 -26.499 -26s-24.166 -11 -35.499 -11h-18zM808.999 1419c96 0 187.5 -18.667 274.5 -56s162.167 -87.5 225.5 -150.5s113.666 -138 150.999 -225s56 -178.5 56 -274.5s-18.667 -187.5 -56 -274.5s-87.666 -162.167 -150.999 -225.5
s-138.5 -113.666 -225.5 -150.999s-178.5 -56 -274.5 -56s-187.5 18.667 -274.5 56s-162.167 87.666 -225.5 150.999s-113.666 138.5 -150.999 225.5s-56 178.5 -56 274.5s18.667 187.5 56 274.5s87.666 162 150.999 225s138.5 113.167 225.5 150.5s178.5 56 274.5 56z
M808.999 165.998c98.667 0 190 24.5 274 73.5s150.333 115.5 199 199.5s73 175.333 73 274c0 74 -14.5 144.667 -43.5 212s-67.833 125.333 -116.5 174s-106.667 87.5 -174 116.5s-138 43.5 -212 43.5s-144.667 -14.5 -212 -43.5s-125.333 -67.833 -174 -116.5
s-87.5 -106.667 -116.5 -174s-43.5 -138 -43.5 -212c0 -98.667 24.333 -190 73 -274s115 -150.5 199 -199.5s175.333 -73.5 274 -73.5z" />
    <glyph glyph-name="Ocircumflex" unicode="&#xd4;" horiz-adv-x="1617" 
d="M623 1581c-11.333 0 -18.6699 3.33301 -22.0029 10s-1.66602 14.667 5.00098 24l179 250c6.66699 9.33301 14.667 14 24 14s17.333 -4.66699 24 -14l179 -250c6.66699 -9.33301 8.33398 -17.333 5.00098 -24s-10.666 -10 -21.999 -10h-45
c-11.333 0 -23.5 3.33301 -36.5 10s-22.833 14.667 -29.5 24l-51 70c-6.66699 9.33301 -14.667 14 -24 14s-17.333 -4.66699 -24 -14l-51 -70c-6.66699 -9.33301 -16.5 -17.333 -29.5 -24s-25.167 -10 -36.5 -10h-45zM808.996 1419c96 0 187.5 -18.667 274.5 -56
s162.167 -87.5 225.5 -150.5s113.666 -138 150.999 -225s56 -178.5 56 -274.5s-18.667 -187.5 -56 -274.5s-87.666 -162.167 -150.999 -225.5s-138.5 -113.666 -225.5 -150.999s-178.5 -56 -274.5 -56s-187.5 18.667 -274.5 56s-162 87.666 -225 150.999
s-113.167 138.5 -150.5 225.5s-56 178.5 -56 274.5s18.667 187.5 56 274.5s87.5 162 150.5 225s138 113.167 225 150.5s178.5 56 274.5 56zM808.996 166c98.667 0 190 24.5 274 73.5s150.333 115.5 199 199.5s73 175.333 73 274c0 74 -14.5 144.667 -43.5 212
s-67.833 125.333 -116.5 174s-106.667 87.5 -174 116.5s-138 43.5 -212 43.5s-144.667 -14.5 -212 -43.5s-125.333 -67.833 -174 -116.5s-87.5 -106.667 -116.5 -174s-43.5 -138 -43.5 -212c0 -98.667 24.333 -190 73 -274s115 -150.5 199 -199.5s175.333 -73.5 274 -73.5z
" />
    <glyph glyph-name="Otilde" unicode="&#xd5;" horiz-adv-x="1617" 
d="M543 1647l-15.9971 13c-10 7.33301 -15.5 17.5 -16.5 30.5s2.83301 23.833 11.5 32.5c47.333 49.333 99.166 77 155.499 83s109.5 -10.333 159.5 -49l17 -14c19.333 -14.667 39.666 -22.834 60.999 -24.501s40.333 1.33301 57 9s33 18.5 49 32.5
c7.33301 6.66699 16.166 10 26.499 10s19.166 -3.33301 26.499 -10l17 -13c9.33301 -8 14.333 -18.333 15 -31s-3.33301 -23.334 -12 -32.001c-52 -50 -107.333 -75 -166 -75c-48 0 -94.333 17.333 -139 52c-4.66699 3.33301 -11 8.33301 -19 15
c-23.333 18 -47.333 27 -72 27c-34 0 -67.333 -17 -100 -51c-7.33301 -7.33301 -16.166 -11.666 -26.499 -12.999s-19.833 1.33398 -28.5 8.00098zM809.003 1419c96 0 187.5 -18.667 274.5 -56s162.167 -87.5 225.5 -150.5s113.666 -138 150.999 -225s56 -178.5 56 -274.5
s-18.667 -187.5 -56 -274.5s-87.666 -162.167 -150.999 -225.5s-138.5 -113.666 -225.5 -150.999s-178.5 -56 -274.5 -56s-187.5 18.667 -274.5 56s-162.167 87.666 -225.5 150.999s-113.666 138.5 -150.999 225.5s-56 178.5 -56 274.5s18.667 187.5 56 274.5
s87.666 162 150.999 225s138.5 113.167 225.5 150.5s178.5 56 274.5 56zM809.003 166c98.667 0 190 24.5 274 73.5s150.333 115.5 199 199.5s73 175.333 73 274c0 74 -14.5 144.667 -43.5 212s-67.833 125.333 -116.5 174s-106.667 87.5 -174 116.5s-138 43.5 -212 43.5
s-144.667 -14.5 -212 -43.5s-125.333 -67.833 -174 -116.5s-87.5 -106.667 -116.5 -174s-43.5 -138 -43.5 -212c0 -98.667 24.333 -190 73 -274s115 -150.5 199 -199.5s175.333 -73.5 274 -73.5z" />
    <glyph glyph-name="Odieresis" unicode="&#xd6;" horiz-adv-x="1617" 
d="M1000 1609c-26.667 0 -49.334 9.33301 -68.001 28s-28 41.334 -28 68.001s9.33301 49.5 28 68.5s41.334 28.5 68.001 28.5s49.334 -9.5 68.001 -28.5s28 -41.833 28 -68.5s-9.33301 -49.334 -28 -68.001s-41.334 -28 -68.001 -28zM618 1609
c-26.667 0 -49.334 9.33301 -68.001 28s-28 41.334 -28 68.001s9.33301 49.5 28 68.5s41.334 28.5 68.001 28.5s49.5 -9.5 68.5 -28.5s28.5 -41.833 28.5 -68.5s-9.5 -49.334 -28.5 -68.001s-41.833 -28 -68.5 -28zM809 1419c96 0 187.5 -18.667 274.5 -56
s162.167 -87.5 225.5 -150.5s113.666 -138 150.999 -225s56 -178.5 56 -274.5s-18.667 -187.5 -56 -274.5s-87.666 -162.167 -150.999 -225.5s-138.5 -113.666 -225.5 -150.999s-178.5 -56 -274.5 -56s-187.5 18.667 -274.5 56s-162.167 87.666 -225.5 150.999
s-113.666 138.5 -150.999 225.5s-56 178.5 -56 274.5s18.667 187.5 56 274.5s87.666 162 150.999 225s138.5 113.167 225.5 150.5s178.5 56 274.5 56zM809 166c98.667 0 190 24.5 274 73.5s150.333 115.5 199 199.5s73 175.333 73 274c0 74 -14.5 144.667 -43.5 212
s-67.833 125.333 -116.5 174s-106.667 87.5 -174 116.5s-138 43.5 -212 43.5s-144.667 -14.5 -212 -43.5s-125.333 -67.833 -174 -116.5s-87.5 -106.667 -116.5 -174s-43.5 -138 -43.5 -212c0 -98.667 24.333 -190 73 -274s115 -150.5 199 -199.5s175.333 -73.5 274 -73.5z
" />
    <glyph glyph-name="multiply" unicode="&#xd7;" horiz-adv-x="843" 
d="M564 684l165 -164c8 -8 12 -17.833 12 -29.5s-4 -21.5 -12 -29.5l-55 -55c-8 -8 -17.833 -12 -29.5 -12s-21.5 4 -29.5 12l-164 165c-8 8 -17.833 12 -29.5 12s-21.5 -4 -29.5 -12l-164 -165c-8 -8 -17.833 -12 -29.5 -12s-21.5 4 -29.5 12l-54 55
c-8 8 -12 17.833 -12 29.5s4 21.5 12 29.5l164 164c8 8 12 17.833 12 29.5s-4 21.5 -12 29.5l-164 164c-8 8 -12 17.833 -12 29.5s4 21.5 12 29.5l54 54c8 8 17.833 12 29.5 12s21.5 -4 29.5 -12l164 -164c8 -8 17.833 -12 29.5 -12s21.5 4 29.5 12l164 164
c8 8 17.833 12 29.5 12s21.5 -4 29.5 -12l55 -54c8 -8 12 -17.833 12 -29.5s-4 -21.5 -12 -29.5l-165 -164c-8 -8 -12 -17.833 -12 -29.5s4 -21.5 12 -29.5z" />
    <glyph glyph-name="Oslash" unicode="&#xd8;" horiz-adv-x="1617" 
d="M809 1419c96 0 187.5 -18.667 274.5 -56s162.167 -87.5 225.5 -150.5s113.666 -138 150.999 -225s56 -178.5 56 -274.5s-18.667 -187.5 -56 -274.5s-87.666 -162.167 -150.999 -225.5s-138.5 -113.666 -225.5 -150.999s-178.5 -56 -274.5 -56s-187.5 18.667 -274.5 56
s-162.167 87.666 -225.5 150.999s-113.666 138.5 -150.999 225.5s-56 178.5 -56 274.5s18.667 187.5 56 274.5s87.666 162 150.999 225s138.5 113.167 225.5 150.5s178.5 56 274.5 56zM351 418c7.33301 -11.333 17.667 -17.666 31 -18.999s24.666 2.66699 33.999 12l701 689
c9.33301 9.33301 13.5 20.666 12.5 33.999s-7.16699 23.666 -18.5 30.999c-128.667 88 -270.334 114.667 -425.001 80c-100.667 -23.333 -188.167 -71.666 -262.5 -144.999s-123.166 -160.333 -146.499 -261c-35.333 -150 -10.666 -290.333 74.001 -421zM925.001 179
c102.667 22 191.997 70.665 267.997 145.998s125.667 164.333 149 267c34.667 154.667 6.33398 297.667 -84.999 429c-7.33301 10.667 -17.666 16.5 -30.999 17.5s-24.666 -2.83301 -33.999 -11.5l-705 -692c-9.33301 -9.33301 -13.5 -20.666 -12.5 -33.999
s6.83301 -23.666 17.5 -30.999c130.667 -94 275 -124.333 433 -91z" />
    <glyph glyph-name="Ugrave" unicode="&#xd9;" horiz-adv-x="1200" 
d="M1056 1431c11.333 0 21.1699 -4.16895 29.5029 -12.502s12.5 -18.166 12.5 -29.499v-885c0 -92.667 -23.5 -178 -70.5 -256s-110.833 -138.833 -191.5 -182.5s-167.667 -63.167 -261 -58.5c-132.667 6.66699 -244.667 59.834 -336 159.501s-137 216.834 -137 351.501v871
c0 11.333 4.16699 21.166 12.5 29.499s18.166 12.5 29.499 12.5h77c11.333 0 21.166 -4.16699 29.499 -12.5s12.5 -18.166 12.5 -29.499v-873c0 -90.667 30.167 -170 90.5 -238s134.833 -105 223.5 -111c98 -6.66699 182.667 23.5 254 90.5s107 149.167 107 246.5v885
c0 11.333 4.16699 21.166 12.5 29.499s18.166 12.5 29.499 12.5h76zM580.004 1567l-87.999 165.002c-5.33301 10 -5.83301 18.667 -1.5 26s12.166 11 23.499 11h63c11.333 0 22.5 -3.83301 33.5 -11.5s18.167 -16.834 21.5 -27.501l54 -161
c4 -10.667 3.16699 -19.834 -2.5 -27.501s-14.167 -11.5 -25.5 -11.5h-17c-11.333 0 -23 3.66699 -35 11s-20.667 16 -26 26z" />
    <glyph glyph-name="Uacute" unicode="&#xda;" horiz-adv-x="1200" 
d="M1056 1431c11.333 0 21.1699 -4.16895 29.5029 -12.502s12.5 -18.166 12.5 -29.499v-885c0 -92.667 -23.5 -178 -70.5 -256s-110.833 -138.833 -191.5 -182.5s-167.667 -63.167 -261 -58.5c-132.667 6.66699 -244.667 59.834 -336 159.501s-137 216.834 -137 351.501v871
c0 11.333 4.16699 21.166 12.5 29.499s18.166 12.5 29.499 12.5h77c11.333 0 21.166 -4.16699 29.499 -12.5s12.5 -18.166 12.5 -29.499v-873c0 -90.667 30.167 -170 90.5 -238s134.833 -105 223.5 -111c98 -6.66699 182.667 23.5 254 90.5s107 149.167 107 246.5v885
c0 11.333 4.16699 21.166 12.5 29.499s18.166 12.5 29.499 12.5h76zM542.004 1530c-11.333 0 -19.834 3.83105 -25.501 11.498s-6.5 16.834 -2.5 27.501l54 161c3.33301 10.667 10.5 19.834 21.5 27.501s22.5 11.5 34.5 11.5h62c11.333 0 19.166 -3.66699 23.499 -11
s3.83301 -16 -1.5 -26l-87 -165c-5.33301 -10 -14.166 -18.667 -26.499 -26s-24.166 -11 -35.499 -11h-17z" />
    <glyph glyph-name="Ucircumflex" unicode="&#xdb;" horiz-adv-x="1200" 
d="M1056 1431c11.333 0 21.1699 -4.16895 29.5029 -12.502s12.5 -18.166 12.5 -29.499v-885c0 -92.667 -23.5 -178 -70.5 -256s-110.833 -138.833 -191.5 -182.5s-167.667 -63.167 -261 -58.5c-132.667 6.66699 -244.667 59.834 -336 159.501s-137 216.834 -137 351.501v871
c0 11.333 4.16699 21.166 12.5 29.499s18.166 12.5 29.499 12.5h77c11.333 0 21.166 -4.16699 29.499 -12.5s12.5 -18.166 12.5 -29.499v-873c0 -90.667 30.167 -170 90.5 -238s134.833 -105 223.5 -111c98 -6.66699 182.667 23.5 254 90.5s107 149.167 107 246.5v885
c0 11.333 4.16699 21.166 12.5 29.499s18.166 12.5 29.499 12.5h76zM414.004 1581c-11.333 0 -18.6729 3.33301 -22.0059 10s-1.66602 14.667 5.00098 24l179 250c6.66699 9.33301 14.834 14 24.501 14s17.834 -4.66699 24.501 -14l179 -250
c6.66699 -9.33301 8.33398 -17.333 5.00098 -24s-10.666 -10 -21.999 -10h-45c-12 0 -24.5 3.33301 -37.5 10s-22.833 14.667 -29.5 24l-50 70c-7.33301 9.33301 -15.666 14 -24.999 14s-17.333 -4.66699 -24 -14l-51 -70c-6.66699 -9.33301 -16.5 -17.333 -29.5 -24
s-25.167 -10 -36.5 -10h-45z" />
    <glyph glyph-name="Udieresis" unicode="&#xdc;" horiz-adv-x="1200" 
d="M791 1609c-26.667 0 -49.334 9.33301 -68.001 28s-28 41.334 -28 68.001s9.33301 49.5 28 68.5s41.334 28.5 68.001 28.5s49.334 -9.5 68.001 -28.5s28 -41.833 28 -68.5s-9.33301 -49.334 -28 -68.001s-41.334 -28 -68.001 -28zM410 1609
c-26.667 0 -49.334 9.33301 -68.001 28s-28 41.334 -28 68.001s9.33301 49.5 28 68.5s41.334 28.5 68.001 28.5s49.334 -9.5 68.001 -28.5s28 -41.833 28 -68.5s-9.33301 -49.334 -28 -68.001s-41.334 -28 -68.001 -28zM1056 1431
c11.333 0 21.1699 -4.16895 29.5029 -12.502s12.5 -18.166 12.5 -29.499v-885c0 -92.667 -23.5 -178 -70.5 -256s-110.833 -138.833 -191.5 -182.5s-167.667 -63.167 -261 -58.5c-132.667 6.66699 -244.667 59.834 -336 159.501s-137 216.834 -137 351.501v871
c0 11.333 4.16699 21.166 12.5 29.499s18.166 12.5 29.499 12.5h77c11.333 0 21.166 -4.16699 29.499 -12.5s12.5 -18.166 12.5 -29.499v-873c0 -90.667 30.167 -170 90.5 -238s134.833 -105 223.5 -111c98 -6.66699 182.667 23.5 254 90.5s107 149.167 107 246.5v885
c0 11.333 4.16699 21.166 12.5 29.499s18.166 12.5 29.499 12.5h76z" />
    <glyph glyph-name="Yacute" unicode="&#xdd;" horiz-adv-x="1349" 
d="M614 1530c-11.333 0 -19.832 3.83105 -25.499 11.498s-6.5 16.834 -2.5 27.501l55 161c3.33301 10.667 10.5 19.834 21.5 27.501s22.167 11.5 33.5 11.5h63c11.333 0 19.166 -3.66699 23.499 -11s3.83301 -16 -1.5 -26l-88 -165c-5.33301 -10 -14 -18.667 -26 -26
s-23.667 -11 -35 -11h-18zM1245 1429c6.66699 0 2.66699 -12 -12 -36l-461 -761c-14.667 -24.667 -22 -50.667 -22 -78v-521c0 -11.333 -4 -21.166 -12 -29.499s-17.667 -12.5 -29 -12.5h-77c-11.333 0 -21.166 4.16699 -29.499 12.5s-12.5 18.166 -12.5 29.499v521
c0 28.667 -7 54.667 -21 78l-461 761c-6 10 -7 18.5 -3 25.5s11.667 10.5 23 10.5h103c11.333 0 23.333 -3.5 36 -10.5s22 -15.5 28 -25.5l354 -584c6 -10 13.167 -15 21.5 -15s15.5 5 21.5 15l354 584c6 10 15.167 18.5 27.5 25.5s24.166 10.5 35.499 10.5h84h52z" />
    <glyph glyph-name="Thorn" unicode="&#xde;" horiz-adv-x="849" 
d="M291 1170c126 0 233.667 -44.833 323 -134.5s134 -197.5 134 -323.5s-44.667 -233.667 -134 -323s-197 -134 -323 -134h-9c-5.33301 0.666992 -9.83301 -2.83301 -13.5 -10.5s-5.5 -17.167 -5.5 -28.5v-179c0 -11.333 -4.16699 -21.166 -12.5 -29.499
s-18.166 -12.5 -29.499 -12.5h-77c-11.333 0 -21.166 4.16699 -29.499 12.5s-12.5 18.166 -12.5 29.499v215v838v299c0 11.333 4.16699 21 12.5 29s18.166 12 29.499 12h77c11.333 0 21.166 -4 29.499 -12s12.5 -17.667 12.5 -29v-179c0 -11.333 1.83301 -21 5.5 -29
s8.16699 -11.667 13.5 -11h9zM302 432c8 2.66699 18.333 6.83301 31 12.5s35.5 17.667 68.5 36s62 37.666 87 57.999s47.833 46.333 68.5 78s31 63.5 31 95.5s-9.83301 63.667 -29.5 95s-43.5 57.666 -71.5 78.999s-56 40.5 -84 57.5s-51.667 29.5 -71 37.5l-30 12
c-10.667 4 -19.834 3.33301 -27.501 -2s-11.5 -13.666 -11.5 -24.999v-507c0 -11.333 3.83301 -19.666 11.5 -24.999s16.834 -6 27.501 -2z" />
    <glyph glyph-name="germandbls" unicode="&#xdf;" horiz-adv-x="1114" 
d="M805 745c66.667 -36 118.832 -87.502 156.499 -154.502s53.834 -139.833 48.501 -218.5c-6.66699 -103.333 -49.667 -190.166 -129 -260.499s-171.666 -105.5 -276.999 -105.5h-215c-10.667 0 -20 4 -28 12s-12 17.667 -12 29v79c0 10.667 3.83301 20 11.5 28
s17.167 12 28.5 12h228c70 0 128.333 26.333 175 79s65.667 114.334 57 185.001c-7.33301 58 -34.333 106.333 -81 145s-99.667 58 -159 58h-38c-11.333 0 -20.833 3.83301 -28.5 11.5s-11.5 17.167 -11.5 28.5v83c0 10 3.16699 18.667 9.5 26s14.5 11.666 24.5 12.999
c56.667 8.66699 104 34.834 142 78.501s57 94.5 57 152.5c0 38 -8.66699 73.667 -26 107s-40.5 60.333 -69.5 81s-62.333 34.667 -100 42s-76.834 4 -117.501 -10c-56.667 -19.333 -102.334 -54.333 -137.001 -105s-52 -106.667 -52 -168v-1410
c0 -11.333 -4 -20.833 -12 -28.5s-17.333 -11.5 -28 -11.5h-79c-11.333 0 -21 4 -29 12s-12 17.333 -12 28v1428c0 116 40.667 215.5 122 298.5s180 126.167 296 129.5c100.667 2.66699 189.834 -29.5 267.501 -96.5s122.167 -150.5 133.5 -250.5
c7.33301 -62.667 0.5 -122.5 -20.5 -179.5s-52.833 -106.167 -95.5 -147.5z" />
    <glyph glyph-name="agrave" unicode="&#xe0;" horiz-adv-x="1026" 
d="M490 1117l-84.001 157c-13.333 24.667 -16.666 38.334 -9.99902 41.001s23.667 4 51 4h42c11.333 0 22.5 -3.83301 33.5 -11.5s18.167 -16.834 21.5 -27.501l55 -160c4 -10.667 3.16699 -20 -2.5 -28s-14.167 -12 -25.5 -12h-20c-11.333 0 -23 3.66699 -35 11
s-20.667 16 -26 26zM520.999 945c72.667 0.666992 139.83 -16.6641 201.497 -51.9971s110.667 -83.5 147 -144.5s54.5 -127.833 54.5 -200.5v-510c0 -12 -4.16699 -22.167 -12.5 -30.5s-18.5 -12.5 -30.5 -12.5h-24c-26 0 -48 9.16699 -66 27.5s-27 40.5 -27 66.5
c0 3.33301 -1.66699 5.83301 -5 7.5s-6.33301 1.5 -9 -0.5c-90 -70.667 -192.333 -106 -307 -106c-100 0 -181.667 26.667 -245 80s-95 122 -95 206c0 96.667 35.167 173 105.5 229s165.833 84 286.5 84c92 0 177.667 -16.333 257 -49
c2.66699 -0.666992 5.16699 -0.166992 7.5 1.5s3.5 4.16699 3.5 7.5c0 65.333 -23.167 121.166 -69.5 167.499s-102.166 69.166 -167.499 68.499c-78.667 0 -147 -15 -205 -45c-11.333 -5.33301 -22.666 -6.5 -33.999 -3.5s-20.333 9.5 -27 19.5l-36 56
c-7.33301 11.333 -9.16602 23.666 -5.49902 36.999s11.5 23.333 23.5 30c80 42.667 173 64.667 279 66zM441.995 150.002c38.667 0 77.168 6.33203 115.501 18.999s75.666 35 111.999 67s62.166 71.333 77.499 118c1.33301 5.33301 0.333008 9 -3 11
c-23.333 16.667 -58.166 31.5 -104.499 44.5s-94.5 19.5 -144.5 19.5c-32 0 -61 -2.66699 -87 -8c-96.667 -19.333 -145 -67.666 -145 -144.999c0 -28 8 -51.5 24 -70.5s36 -32 60 -39s43.167 -11.5 57.5 -13.5s26.833 -3 37.5 -3z" />
    <glyph glyph-name="aacute" unicode="&#xe1;" horiz-adv-x="1026" 
d="M455 1080c-11.333 0 -19.668 3.83398 -25.001 11.501s-6.33301 17.167 -3 28.5l55 160c3.33301 10.667 10.5 20 21.5 28s22.167 12 33.5 12h42c27.333 0 44.333 -1.33301 51 -4s3.33398 -16.334 -9.99902 -41.001l-84 -158c-5.33301 -10 -14 -18.667 -26 -26
s-23.667 -11 -35 -11h-20zM520.998 945.001c72.667 0.666992 139.829 -16.6641 201.496 -51.9971s110.667 -83.5 147 -144.5s54.5 -127.833 54.5 -200.5v-510c0 -12 -4.16699 -22.167 -12.5 -30.5s-18.5 -12.5 -30.5 -12.5h-24c-26 0 -48.167 9.16699 -66.5 27.5
s-27.5 40.5 -27.5 66.5c0 3.33301 -1.5 5.83301 -4.5 7.5s-6.16699 1.5 -9.5 -0.5c-90 -70.667 -192 -106 -306 -106c-100 0 -181.667 26.667 -245 80s-95 122 -95 206c0 96.667 35 173 105 229s165.333 84 286 84c92 0 177.667 -16.333 257 -49
c2.66699 -0.666992 5.33398 -0.166992 8.00098 1.5s4 4.16699 4 7.5c0 65.333 -23.167 121.166 -69.5 167.499s-102.166 69.166 -167.499 68.499c-78.667 0 -147 -15 -205 -45c-11.333 -5.33301 -22.666 -6.5 -33.999 -3.5s-20.333 9.5 -27 19.5l-36 56
c-7.33301 11.333 -9.16602 23.666 -5.49902 36.999s11.5 23.333 23.5 30c80 42.667 173 64.667 279 66zM441.993 150.003c38.667 0 77.168 6.33398 115.501 19.001s75.666 35 111.999 67s62.166 71.333 77.499 118c1.33301 5.33301 0.333008 9 -3 11
c-23.333 16.667 -58.166 31.5 -104.499 44.5s-94.5 19.5 -144.5 19.5c-32 0 -61 -2.66699 -87 -8c-27.333 -5.33301 -51 -13.333 -71 -24s-34.667 -21 -44 -31s-16.5 -21.833 -21.5 -35.5s-7.83301 -23.834 -8.5 -30.501s-1 -14.667 -1 -24
c0 -22.667 5.83301 -42.5 17.5 -59.5s25 -29.5 40 -37.5s32.167 -14.5 51.5 -19.5s34 -7.83301 44 -8.5s19 -1 27 -1z" />
    <glyph glyph-name="acircumflex" unicode="&#xe2;" horiz-adv-x="1026" 
d="M327 1069c-11.333 0 -18.835 3.33301 -22.502 10s-2.16699 14.667 4.5 24l180 250c7.33301 9.33301 15.5 14 24.5 14s16.833 -4.66699 23.5 -14l179 -250c6.66699 -9.33301 8.33398 -17.333 5.00098 -24s-10.666 -10 -21.999 -10h-45c-11.333 0 -23.5 3.33301 -36.5 10
s-22.833 14.667 -29.5 24l-51 71c-7.33301 9.33301 -15.5 14 -24.5 14s-16.833 -4.66699 -23.5 -14l-51 -71c-6.66699 -9.33301 -16.5 -17.333 -29.5 -24s-25.167 -10 -36.5 -10h-45zM520.998 945c72.667 0.666992 139.829 -16.6641 201.496 -51.9971
s110.5 -83.5 146.5 -144.5s54 -127.833 54 -200.5v-510c0 -12 -4 -22.167 -12 -30.5s-18 -12.5 -30 -12.5h-24c-26 0 -48.167 9.16699 -66.5 27.5s-27.5 40.5 -27.5 66.5c0 3.33301 -1.5 5.83301 -4.5 7.5s-6.16699 1.5 -9.5 -0.5c-90 -70.667 -192.333 -106 -307 -106
c-100 0 -181.667 26.667 -245 80s-95 122 -95 206c0 96.667 35.167 173 105.5 229s165.833 84 286.5 84c92 0 177.667 -16.333 257 -49c2.66699 -0.666992 5.33398 -0.166992 8.00098 1.5s4 4.16699 4 7.5c0 65.333 -23.167 121.166 -69.5 167.499
s-102.166 69.166 -167.499 68.499c-78.667 0 -147 -15 -205 -45c-11.333 -5.33301 -22.666 -6.5 -33.999 -3.5s-20.333 9.5 -27 19.5l-36 56c-7.33301 11.333 -9.16602 23.666 -5.49902 36.999s11.5 23.333 23.5 30c80 42.667 173 64.667 279 66zM441.993 150.002
c38.667 0 77.168 6.33398 115.501 19.001s75.666 35 111.999 67s62.166 71.333 77.499 118c1.33301 5.33301 0.333008 9 -3 11c-23.333 16.667 -58.166 31.5 -104.499 44.5s-94.5 19.5 -144.5 19.5c-32 0 -61 -2.66699 -87 -8c-27.333 -5.33301 -51 -13.333 -71 -24
s-34.667 -21 -44 -31s-16.5 -21.833 -21.5 -35.5s-7.83301 -23.834 -8.5 -30.501s-1 -14.667 -1 -24c0 -22.667 5.83301 -42.5 17.5 -59.5s25 -29.5 40 -37.5s32.167 -14.5 51.5 -19.5s34 -7.83301 44 -8.5s19 -1 27 -1z" />
    <glyph glyph-name="atilde" unicode="&#xe3;" horiz-adv-x="1026" 
d="M521 945c72.667 0.666992 139.829 -16.6641 201.496 -51.9971s110.5 -83.5 146.5 -144.5s54 -127.833 54 -200.5v-510c0 -12 -4 -22.167 -12 -30.5s-18 -12.5 -30 -12.5h-24c-26 0 -48.167 9.16699 -66.5 27.5s-27.5 40.5 -27.5 66.5c0 3.33301 -1.5 5.83301 -4.5 7.5
s-6.16699 1.5 -9.5 -0.5c-90 -70.667 -192.333 -106 -307 -106c-100 0 -181.667 26.667 -245 80s-95 122 -95 206c0 96.667 35.167 173 105.5 229s165.833 84 286.5 84c92 0 177.667 -16.333 257 -49c2.66699 -0.666992 5.33398 -0.166992 8.00098 1.5s4 4.16699 4 7.5
c0 65.333 -23.167 121.166 -69.5 167.499s-102.166 69.166 -167.499 68.499c-78.667 0 -147 -15 -205 -45c-11.333 -5.33301 -22.666 -6.5 -33.999 -3.5s-20.333 9.5 -27 19.5l-36 56c-7.33301 11.333 -9.16602 23.666 -5.49902 36.999s11.5 23.333 23.5 30
c80 42.667 173 64.667 279 66zM441.995 150.002c38.667 0 77.168 6.33398 115.501 19.001s75.666 35 111.999 67s62.166 71.333 77.499 118c1.33301 5.33301 0.333008 9 -3 11c-23.333 16.667 -58.166 31.5 -104.499 44.5s-94.5 19.5 -144.5 19.5c-32 0 -61 -2.66699 -87 -8
c-27.333 -5.33301 -51 -13.333 -71 -24s-34.667 -21 -44 -31s-16.5 -21.833 -21.5 -35.5s-7.83301 -23.834 -8.5 -30.501s-1 -14.667 -1 -24c0 -22.667 5.83301 -42.5 17.5 -59.5s25 -29.5 40 -37.5s32.167 -14.5 51.5 -19.5s34 -7.83301 44 -8.5s19 -1 27 -1zM301.996 1136
l-18 13.9941c-9.33301 7.33301 -14.833 17 -16.5 29s1.83301 22.667 10.5 32c47.333 50 99.5 78.167 156.5 84.5s110.5 -10.167 160.5 -49.5l16 -13c20 -15.333 40.833 -23.666 62.5 -24.999s41 1.83398 58 9.50098s33.167 18.5 48.5 32.5
c7.33301 6.66699 16 9.83398 26 9.50098s18.667 -3.5 26 -9.5l18 -15c9.33301 -7.33301 14.333 -17.166 15 -29.499s-3.33301 -22.833 -12 -31.5c-52 -50 -107.667 -75 -167 -75c-48.667 0 -95 17 -139 51c-12 10 -18.333 15.333 -19 16c-23.333 18 -47.333 27 -72 27
c-34.667 0 -68 -17.333 -100 -52c-7.33301 -7.33301 -16 -11.666 -26 -12.999s-19.333 1.33398 -28 8.00098z" />
    <glyph glyph-name="adieresis" unicode="&#xe4;" horiz-adv-x="1026" 
d="M322 1099c-26.667 0 -49.334 9.33301 -68.001 28s-28 41.334 -28 68.001s9.33301 49.334 28 68.001s41.334 28 68.001 28s49.5 -9.33301 68.5 -28s28.5 -41.334 28.5 -68.001s-9.5 -49.334 -28.5 -68.001s-41.833 -28 -68.5 -28zM703 1099
c-26.667 0 -49.334 9.33301 -68.001 28s-28 41.334 -28 68.001s9.33301 49.334 28 68.001s41.334 28 68.001 28s49.5 -9.33301 68.5 -28s28.5 -41.334 28.5 -68.001s-9.5 -49.334 -28.5 -68.001s-41.833 -28 -68.5 -28zM521 945
c72.667 0.666992 139.829 -16.6641 201.496 -51.9971s110.5 -83.5 146.5 -144.5s54 -127.833 54 -200.5v-510c0 -12 -4 -22.167 -12 -30.5s-18 -12.5 -30 -12.5h-24c-26 0 -48.167 9.16699 -66.5 27.5s-27.5 40.5 -27.5 66.5c0 3.33301 -1.5 5.83301 -4.5 7.5
s-6.16699 1.5 -9.5 -0.5c-90 -70.667 -192.333 -106 -307 -106c-100 0 -181.667 26.667 -245 80s-95 122 -95 206c0 96.667 35.167 173 105.5 229s165.833 84 286.5 84c92 0 177.667 -16.333 257 -49c2.66699 -0.666992 5.33398 -0.166992 8.00098 1.5s4 4.16699 4 7.5
c0 65.333 -23.167 121.166 -69.5 167.499s-102.166 69.166 -167.499 68.499c-78.667 0 -147 -15 -205 -45c-11.333 -5.33301 -22.666 -6.5 -33.999 -3.5s-20.333 9.5 -27 19.5l-36 56c-7.33301 11.333 -9.16602 23.666 -5.49902 36.999s11.5 23.333 23.5 30
c80 42.667 173 64.667 279 66zM441.995 150.002c38.667 0 77.168 6.33203 115.501 18.999s75.666 35 111.999 67s62.166 71.333 77.499 118c1.33301 5.33301 0.333008 9 -3 11c-23.333 16.667 -58.166 31.5 -104.499 44.5s-94.5 19.5 -144.5 19.5c-32 0 -61 -2.66699 -87 -8
c-96.667 -19.333 -145 -67.666 -145 -144.999c0 -28 8 -51.5 24 -70.5s36 -32 60 -39s43.167 -11.5 57.5 -13.5s26.833 -3 37.5 -3z" />
    <glyph glyph-name="aring" unicode="&#xe5;" horiz-adv-x="1026" 
d="M542 986c-50.667 0 -94 18 -130 54s-54 79.333 -54 130s18 94 54 130s79.333 54 130 54s94 -18 130 -54s54 -79.333 54 -130s-18 -94 -54 -130s-79.333 -54 -130 -54zM542 1250c-22 0 -40.833 -7.83301 -56.5 -23.5s-23.5 -34.5 -23.5 -56.5s7.83301 -40.833 23.5 -56.5
s34.5 -23.5 56.5 -23.5s40.833 7.83301 56.5 23.5s23.5 34.5 23.5 56.5s-7.83301 40.833 -23.5 56.5s-34.5 23.5 -56.5 23.5zM521 945c72.667 0.666992 139.83 -16.6641 201.497 -51.9971s110.667 -83.5 147 -144.5s54.5 -127.833 54.5 -200.5v-510
c0 -12 -4.16699 -22.167 -12.5 -30.5s-18.5 -12.5 -30.5 -12.5h-24c-26 0 -48 9.16699 -66 27.5s-27 40.5 -27 66.5c0 3.33301 -1.66699 5.83301 -5 7.5s-6.33301 1.5 -9 -0.5c-90 -70.667 -192.333 -106 -307 -106c-100 0 -181.667 26.667 -245 80s-95 122 -95 206
c0 96.667 35.167 173 105.5 229s165.833 84 286.5 84c92 0 177.667 -16.333 257 -49c2.66699 -0.666992 5.16699 -0.166992 7.5 1.5s3.5 4.16699 3.5 7.5c0 65.333 -23.167 121.166 -69.5 167.499s-102.166 69.166 -167.499 68.499c-78.667 0 -147 -15 -205 -45
c-11.333 -5.33301 -22.666 -6.5 -33.999 -3.5s-20.333 9.5 -27 19.5l-36 56c-7.33301 11.333 -9.16602 23.666 -5.49902 36.999s11.5 23.333 23.5 30c80 42.667 173 64.667 279 66zM441.996 150.002c38.667 0 77.168 6.33203 115.501 18.999s75.666 35 111.999 67
s62.166 71.333 77.499 118c1.33301 5.33301 0.333008 9 -3 11c-23.333 16.667 -58.166 31.5 -104.499 44.5s-94.5 19.5 -144.5 19.5c-32 0 -61 -2.66699 -87 -8c-96.667 -19.333 -145 -67.666 -145 -144.999c0 -28 8 -51.5 24 -70.5s36 -32 60 -39s43.167 -11.5 57.5 -13.5
s26.833 -3 37.5 -3z" />
    <glyph glyph-name="ae" unicode="&#xe6;" horiz-adv-x="1787" 
d="M1659 641c12.667 -34 21.3252 -59.668 25.9922 -77.001c3.33301 -10.667 2 -21 -4 -31s-14.333 -16.333 -25 -19l-648 -190c-10.667 -3.33301 -17.5 -9.5 -20.5 -18.5s-0.833008 -17.833 6.5 -26.5c26.667 -32.667 55.667 -57.667 87 -75c74 -40.667 151.333 -49 232 -25
c23.333 6.66699 47.833 19.5 73.5 38.5s45.5 36.5 59.5 52.5l22 23c7.33301 8.66699 17.166 14.167 29.499 16.5s23.5 0.833008 33.5 -4.5l68 -37c10 -5.33301 15.833 -13 17.5 -23s-1.16602 -19.667 -8.49902 -29l-14.5 -17c-6.33301 -7.33301 -19.166 -20.5 -38.499 -39.5
s-38.5 -36.5 -57.5 -52.5s-41.5 -32 -67.5 -48s-50 -27.333 -72 -34c-42 -12.667 -86 -19 -132 -19c-78.667 0 -152.667 19 -222 57l-47 30c-8.66699 7.33301 -16.334 9.33301 -23.001 6s-10 -10.666 -10 -21.999v-40c0 -11.333 -4.16699 -21.166 -12.5 -29.499
s-18.166 -12.5 -29.499 -12.5h-77c-11.333 0 -21.166 4.16699 -29.499 12.5s-12.5 18.166 -12.5 29.499v28c0 11.333 -3.5 19 -10.5 23s-15.5 3.33301 -25.5 -2c-12.667 -7.33301 -29.5 -16.333 -50.5 -27s-56.667 -24.834 -107 -42.501s-92.5 -26.5 -126.5 -26.5
c-100 0 -181.667 26.667 -245 80s-95 122 -95 206c0 96.667 35 173 105 229s165.333 84 286 84c28 0 61.167 -3.5 99.5 -10.5s69.833 -13.833 94.5 -20.5l36 -11c7.33301 -2 14 -3.5 20 -4.5s10.667 -1.16699 14 -0.5s5 2 5 4c0 6 -5.66699 22.333 -17 49
c-2 5.33301 -5.16699 12.166 -9.5 20.499s-13.666 23.333 -27.999 45s-29.166 40.834 -44.499 57.501s-34.666 31.834 -57.999 45.501s-46.666 20.5 -69.999 20.5c-24 0 -53.667 -4.33301 -89 -13s-65 -17 -89 -25l-35 -13c-10.667 -4 -22 -4 -34 0s-21 10.667 -27 20
l-42 65c-6 9.33301 -7.33301 19 -4 29s10.333 17 21 21c136.667 51.333 236.334 77 299.001 77c26 0 54 -5.33301 84 -16s57.167 -23.5 81.5 -38.5s46.833 -30.167 67.5 -45.5s36.667 -28.333 48 -39l17 -16c8 -8 18 -12.167 30 -12.5s22.333 3.5 31 11.5l32.5 29
c13.667 12 38.334 29.667 74.001 53s67.167 39 94.5 47c122.667 36 240.667 23.333 354 -38c69.333 -37.333 125.333 -89.333 168 -156c7.33301 -11.333 14.333 -23.833 21 -37.5s11.667 -24.5 15 -32.5zM720.991 330.999c8 8.66699 10.999 17.5 8.99902 26.5
s-8.33301 16.167 -19 21.5c-8 4 -18.667 8.66699 -32 14s-39 12.666 -77 21.999s-73.667 14 -107 14c-32 0 -61 -2.66699 -87 -8c-96.667 -19.333 -145 -67.666 -145 -144.999c0 -28 8 -51.5 24 -70.5s36 -32 60 -39s43.167 -11.5 57.5 -13.5s26.833 -3 37.5 -3
c20 0 43.333 6.16699 70 18.5s51.834 27.333 75.501 45s45.667 35.5 66 53.5s36.5 33 48.5 45zM1446.99 618.999c26 7.33301 38.333 12.6689 37 16.002l-1 2c-28 42.667 -64.667 76.667 -110 102s-94 38 -146 38c-27.333 0 -56 -4.33301 -86 -13
c-81.333 -24 -142 -72.667 -182 -146c-6.66699 -12.667 -12.5 -26.834 -17.5 -42.501s-8.16699 -28.167 -9.5 -37.5l-3 -14c-4 -30.667 -6 -47.334 -6 -50.001c0.666992 -2 4.5 -2.66699 11.5 -2s16.5 2.66699 28.5 6z" />
    <glyph glyph-name="ccedilla" unicode="&#xe7;" horiz-adv-x="976" 
d="M687 23c-10.667 -2.66699 -19.334 -9.00098 -26.001 -19.001l-44 -70c34.667 -18 62.167 -42.333 82.5 -73s30.5 -64 30.5 -100c0 -56 -23.167 -103.833 -69.5 -143.5s-102.166 -59.5 -167.499 -59.5c-52 0 -99 13.333 -141 40c-10.667 6.66699 -16.5 16.167 -17.5 28.5
s2.83301 22.833 11.5 31.5l58 61c12 13.333 26.667 16 44 8c13.333 -6 28.333 -9 45 -9c22 0 40.167 4.66699 54.5 14s21.5 19 21.5 29s-7.16699 19.667 -21.5 29s-32.5 14 -54.5 14h-80v103l12 22l22 35c7.33301 12 8.5 24.667 3.5 38s-14.167 22.333 -27.5 27
c-69.333 22 -130.666 59.667 -183.999 113c-90.667 90.667 -136 200 -136 328s45.333 237.333 136 328c81.333 81.333 182.666 124.833 303.999 130.5s226.333 -27.166 315 -98.499c10 -8 15.333 -18.5 16 -31.5s-3.66602 -24.167 -12.999 -33.5l-51 -52
c-7.33301 -7.33301 -16.5 -11.5 -27.5 -12.5s-20.833 1.83301 -29.5 8.5c-58 44.667 -126.167 65 -204.5 61s-143.833 -32.333 -196.5 -85c-59.333 -59.333 -89 -131 -89 -215s29.667 -155.667 89 -215c52.667 -52.667 118.167 -81.167 196.5 -85.5
s146.5 15.834 204.5 60.501c8.66699 6.66699 18.5 9.5 29.5 8.5s20.167 -5.16699 27.5 -12.5l51 -51c9.33301 -8.66699 13.666 -19.834 12.999 -33.501s-6 -24.5 -16 -32.5c-49.333 -39.333 -106.333 -68 -171 -86z" />
    <glyph glyph-name="egrave" unicode="&#xe8;" horiz-adv-x="1128" 
d="M1014 608c2.66699 -7.33301 6.33105 -22.001 10.998 -44.001c1.33301 -9.33301 -0.666992 -18.333 -6 -27s-12.666 -14.334 -21.999 -17.001l-648 -190c-10 -3.33301 -16.667 -10 -20 -20s-1.66602 -19 5.00098 -27c22.667 -28.667 52 -53 88 -73
c74.667 -40 152 -48.333 232 -25c69.333 20.667 124 59.667 164 117c5.33301 8 12.833 13.167 22.5 15.5s18.834 1.16602 27.501 -3.50098l72 -40c10 -5.33301 16.5 -13.666 19.5 -24.999s1.16699 -21.666 -5.5 -30.999c-63.333 -93.333 -148.333 -155.666 -255 -186.999
c-42 -12.667 -86 -19 -132 -19c-79.333 0 -153.333 19 -222 57c-85.333 46 -150 113.667 -194 203l-30 74c-36 123.333 -23 241.333 39 354c62.667 113.333 155 188 277 224c122.667 36 240.667 23.333 354 -38c69.333 -37.333 125.333 -89.333 168 -156
c21.333 -33.333 39.666 -74 54.999 -122zM303.997 483.999l524.001 153c-28.667 46 -66.667 82 -114 108c-46.667 25.333 -95.334 38 -146.001 38c-26 0 -54.667 -4.33301 -86 -13c-81.333 -24 -142 -72.667 -182 -146c-18 -32 -29.667 -67.667 -35 -107
c-1.33301 -10.667 2.16699 -19.667 10.5 -27s17.833 -9.33301 28.5 -6zM460.998 1117l-83.0039 157c-13.333 24.667 -16.666 38.334 -9.99902 41.001s23.334 4 50.001 4h43c11.333 0 22.5 -3.83301 33.5 -11.5s18.167 -16.834 21.5 -27.501l54 -160
c4 -10.667 3.16699 -20 -2.5 -28s-14.167 -12 -25.5 -12h-19c-11.333 0 -23.166 3.66699 -35.499 11s-21.166 16 -26.499 26z" />
    <glyph glyph-name="eacute" unicode="&#xe9;" horiz-adv-x="1128" 
d="M1014 608c2.66699 -7.33301 6.33105 -22.001 10.998 -44.001c1.33301 -9.33301 -0.666992 -18.333 -6 -27s-12.666 -14.334 -21.999 -17.001l-648 -190c-10 -3.33301 -16.667 -10 -20 -20s-1.66602 -19 5.00098 -27c22.667 -28.667 52 -53 88 -73
c74.667 -40 152 -48.333 232 -25c69.333 20.667 124 59.667 164 117c5.33301 8 12.833 13.167 22.5 15.5s18.834 1.16602 27.501 -3.50098l72 -40c10 -5.33301 16.5 -13.666 19.5 -24.999s1.16699 -21.666 -5.5 -30.999c-62 -93.333 -147 -155.666 -255 -186.999
c-42 -12.667 -86 -19 -132 -19c-79.333 0 -153.333 19 -222 57c-85.333 46 -150 113.667 -194 203l-30 74c-36 123.333 -23 241.333 39 354c62.667 113.333 155 188 277 224c122.667 36 240.667 23.333 354 -38c69.333 -37.333 125.333 -89.333 168 -156
c21.333 -33.333 39.666 -74 54.999 -122zM304.997 483.999l522.998 153c-28.667 46 -66.667 82 -114 108c-46.667 25.333 -95 38 -145 38c-26.667 0 -55.667 -4.33301 -87 -13c-81.333 -24 -142 -72.667 -182 -146c-18 -32 -29.667 -67.667 -35 -107
c-1.33301 -10.667 2.33398 -19.667 11.001 -27s18.334 -9.33301 29.001 -6zM500.995 1080c-11.333 0 -19.833 3.83301 -25.5 11.5s-6.83398 17.167 -3.50098 28.5l55 160c3.33301 10.667 10.5 20 21.5 28s22.167 12 33.5 12h42c25.333 0 42.333 -1.66699 51 -5
c6.66699 -2.66699 3.33398 -16 -9.99902 -40l-84 -158c-5.33301 -10 -14 -18.667 -26 -26s-23.667 -11 -35 -11h-19z" />
    <glyph glyph-name="ecircumflex" unicode="&#xea;" horiz-adv-x="1128" 
d="M1014 608c2.66699 -7.33301 6.33105 -22.001 10.998 -44.001c1.33301 -9.33301 -0.666992 -18.333 -6 -27s-12.666 -14.334 -21.999 -17.001l-648 -190c-10 -3.33301 -16.667 -10 -20 -20s-1.66602 -19 5.00098 -27c22.667 -28.667 52 -53 88 -73
c74 -40.667 151.333 -49 232 -25c69.333 20.667 124 59.667 164 117c5.33301 8 12.833 13.167 22.5 15.5s18.834 1.16602 27.501 -3.50098l72 -40c10 -5.33301 16.5 -13.666 19.5 -24.999s1.16699 -21.666 -5.5 -30.999c-63.333 -93.333 -148.333 -155.666 -255 -186.999
c-42 -12.667 -86 -19 -132 -19c-79.333 0 -153.333 19 -222 57c-85.333 46 -150 113.667 -194 203l-30 74c-36 123.333 -23 241.333 39 354c62.667 113.333 155 188 277 224c122.667 36 240.667 23.333 354 -38c69.333 -37.333 125.333 -89.333 168 -156
c21.333 -33.333 39.666 -74 54.999 -122zM304.997 483.999l522.999 153c-28.667 46 -66.667 82 -114 108c-46.667 25.333 -95.334 38 -146.001 38c-26 0 -54.667 -4.33301 -86 -13c-81.333 -24 -142 -72.667 -182 -146c-18 -32 -29.667 -67.667 -35 -107
c-1.33301 -10.667 2.33398 -19.667 11.001 -27s18.334 -9.33301 29.001 -6zM352.996 1069c-11.333 0 -18.668 3.33301 -22.001 10s-1.66602 14.667 5.00098 24l179 250c6.66699 9.33301 14.834 14 24.501 14s17.834 -4.66699 24.501 -14l179 -250
c6.66699 -9.33301 8.16699 -17.333 4.5 -24s-11.167 -10 -22.5 -10h-45c-11.333 0 -23.5 3.33301 -36.5 10s-22.833 14.667 -29.5 24l-50 71c-6.66699 9.33301 -14.834 14 -24.501 14s-17.834 -4.66699 -24.501 -14l-51 -71c-6.66699 -9.33301 -16.5 -17.333 -29.5 -24
s-25.167 -10 -36.5 -10h-45z" />
    <glyph glyph-name="edieresis" unicode="&#xeb;" horiz-adv-x="1128" 
d="M1014 608c2.66699 -7.33301 6.33105 -22.001 10.998 -44.001c1.33301 -9.33301 -0.666992 -18.333 -6 -27s-12.666 -14.334 -21.999 -17.001l-648 -190c-10 -3.33301 -16.667 -10 -20 -20s-1.66602 -19 5.00098 -27c22.667 -28.667 52 -53 88 -73
c74 -40.667 151.333 -49 232 -25c69.333 20.667 124 59.667 164 117c5.33301 8 12.833 13.167 22.5 15.5s18.834 1.16602 27.501 -3.50098l72 -40c10 -5.33301 16.5 -13.666 19.5 -24.999s1.16699 -21.666 -5.5 -30.999c-63.333 -93.333 -148.333 -155.666 -255 -186.999
c-42 -12.667 -86 -19 -132 -19c-79.333 0 -153.333 19 -222 57c-85.333 46 -150 113.667 -194 203l-30 74c-36 123.333 -23 241.333 39 354c62.667 113.333 155 188 277 224c122.667 36 240.667 23.333 354 -38c69.333 -37.333 125.333 -89.333 168 -156
c21.333 -33.333 39.666 -74 54.999 -122zM303.997 483.999l524.001 153c-28.667 46 -66.667 82 -114 108c-46.667 25.333 -95.334 38 -146.001 38c-26 0 -54.667 -4.33301 -86 -13c-81.333 -24 -142 -72.667 -182 -146c-18 -32 -29.667 -67.667 -35 -107
c-1.33301 -10.667 2.16699 -19.667 10.5 -27s17.833 -9.33301 28.5 -6zM355.998 1099c-26.667 0 -49.334 9.33301 -68.001 28s-28 41.334 -28 68.001s9.33301 49.334 28 68.001s41.334 28 68.001 28s49.5 -9.33301 68.5 -28s28.5 -41.334 28.5 -68.001
s-9.5 -49.334 -28.5 -68.001s-41.833 -28 -68.5 -28zM737.998 1099c-26.667 0 -49.5 9.33301 -68.5 28s-28.5 41.334 -28.5 68.001s9.5 49.334 28.5 68.001s41.833 28 68.5 28s49.334 -9.33301 68.001 -28s28 -41.334 28 -68.001s-9.33301 -49.334 -28 -68.001
s-41.334 -28 -68.001 -28z" />
    <glyph glyph-name="igrave" unicode="&#xec;" horiz-adv-x="466" 
d="M279 1080h-20c-11.333 0 -23 3.66699 -35 11s-20.667 16 -26 26l-83 157c-13.333 24.667 -17 38.334 -11 41.001c6.66699 2.66699 23.667 4 51 4h42c12 0 23.5 -3.83301 34.5 -11.5s18.167 -16.834 21.5 -27.501l54 -160c4 -10.667 3.16699 -20 -2.5 -28
s-14.167 -12 -25.5 -12zM322 959c11.333 0 21.166 -4 29.499 -12s12.5 -17.667 12.5 -29v-881c0 -11.333 -4.16699 -21.166 -12.5 -29.499s-18.166 -12.5 -29.499 -12.5h-76c-11.333 0 -21.166 4.16699 -29.499 12.5s-12.5 18.166 -12.5 29.499v881
c0 11.333 4.16699 21 12.5 29s18.166 12 29.499 12h76z" />
    <glyph glyph-name="iacute" unicode="&#xed;" horiz-adv-x="473" 
d="M221 959c11.333 0 21 -4 29 -12s12 -17.667 12 -29v-881c0 -11.333 -4 -21.166 -12 -29.499s-17.667 -12.5 -29 -12.5h-77c-11.333 0 -21.166 4.16699 -29.499 12.5s-12.5 18.166 -12.5 29.499v881c0 11.333 4.16699 21 12.5 29s18.166 12 29.499 12h77zM367 1313
c9.33301 -3.33301 7.33105 -17.334 -6.00195 -42.001l-84 -154c-5.33301 -10 -14.166 -18.667 -26.499 -26s-24.166 -11 -35.499 -11h-35c-11.333 0 -19.833 3.83301 -25.5 11.5s-6.83398 17.167 -3.50098 28.5l53 160c3.33301 10.667 10.5 19.834 21.5 27.501
s22.167 11.5 33.5 11.5h52c26.667 0 45.334 -2 56.001 -6zM226.998 1031c-0.666992 0.666992 -0.332031 1 1.00098 1s2 -0.333008 2 -1s-0.333008 -1 -1 -1s-1.33398 0.333008 -2.00098 1z" />
    <glyph glyph-name="icircumflex" unicode="&#xee;" horiz-adv-x="624" 
d="M516 1103c6.66699 -9.33301 8.16504 -17.333 4.49805 -24s-11.167 -10 -22.5 -10h-45c-11.333 0 -23.5 3.33301 -36.5 10s-22.833 14.667 -29.5 24l-50 71c-6.66699 9.33301 -14.834 14 -24.501 14s-17.834 -4.66699 -24.501 -14l-51 -71
c-6.66699 -9.33301 -16.5 -17.333 -29.5 -24s-25.167 -10 -36.5 -10h-45c-11.333 0 -18.666 3.33301 -21.999 10s-1.66602 14.667 5.00098 24l179 250c6.66699 9.33301 14.834 14 24.501 14s17.834 -4.66699 24.501 -14zM350.998 959c11.333 0 21 -4 29 -12
s12 -17.667 12 -29v-881c0 -11.333 -4 -21.166 -12 -29.499s-17.667 -12.5 -29 -12.5h-77c-11.333 0 -21.166 4.16699 -29.499 12.5s-12.5 18.166 -12.5 29.499v881c0 11.333 4.16699 21 12.5 29s18.166 12 29.499 12h77z" />
    <glyph glyph-name="idieresis" unicode="&#xef;" horiz-adv-x="778" 
d="M428 959c11.333 0 21 -4 29 -12s12 -17.667 12 -29v-881c0 -11.333 -4 -21.166 -12 -29.499s-17.667 -12.5 -29 -12.5h-77c-11.333 0 -21.166 4.16699 -29.499 12.5s-12.5 18.166 -12.5 29.499v881c0 11.333 4.16699 21 12.5 29s18.166 12 29.499 12h77zM199 1291
c26.667 0 49.334 -9.33301 68.001 -28s28 -41.334 28 -68.001s-9.33301 -49.334 -28 -68.001s-41.334 -28 -68.001 -28s-49.5 9.33301 -68.5 28s-28.5 41.334 -28.5 68.001s9.5 49.334 28.5 68.001s41.833 28 68.5 28zM580 1291c26.667 0 49.334 -9.33301 68.001 -28
s28 -41.334 28 -68.001s-9.33301 -49.334 -28 -68.001s-41.334 -28 -68.001 -28s-49.334 9.33301 -68.001 28s-28 41.334 -28 68.001s9.33301 49.334 28 68.001s41.334 28 68.001 28z" />
    <glyph glyph-name="eth" unicode="&#xf0;" 
d="M1030 470c0 -2.66699 -0.498047 -7.00195 -1.49805 -13.002s-1.5 -10.667 -1.5 -14c0 -0.666992 0.166992 -2 0.5 -4s0.5 -3.66699 0.5 -5h-2c-4.66699 -60.667 -20.834 -118.167 -48.501 -172.5s-63 -100.666 -106 -138.999s-93.333 -68 -151 -89
s-117.834 -29.833 -180.501 -26.5c-117.333 6.66699 -218.333 52.667 -303 138s-129.334 186.666 -134.001 303.999c-4 86.667 14.333 167.334 55 242.001s97.334 133.834 170.001 177.501s152 65.5 238 65.5c62 0 121.667 -12 179 -36
c-43.333 77.333 -100 149.666 -170 216.999c-7.33301 6.66699 -15.833 10.334 -25.5 11.001s-18.167 -2 -25.5 -8l-148 -111c-8.66699 -6.66699 -18.5 -9.16699 -29.5 -7.5s-19.833 6.83398 -26.5 15.501l-48 65c-6.66699 8.66699 -9.16699 18.334 -7.5 29.001
s6.83398 19.334 15.501 26.001l88 66c11.333 9.33301 16.5 21.166 15.5 35.499s-7.83301 25.166 -20.5 32.499c-49.333 27.333 -99 49 -149 65l-18 6c-10.667 3.33301 -18.5 10 -23.5 20s-5.83301 20.333 -2.5 31l25 76c3.33301 10.667 9.83301 18.5 19.5 23.5
s19.834 5.83301 30.501 2.5l18 -6c93.333 -30 182.333 -73.333 267 -130c15.333 -10 30.666 -9.66699 45.999 1l105 79c8.66699 6.66699 18.5 9.16699 29.5 7.5s19.833 -6.83398 26.5 -15.501l48 -65c6.66699 -8.66699 9.16699 -18.334 7.5 -29.001
s-6.83398 -19.334 -15.501 -26.001l-59 -45c-9.33301 -7.33301 -14.5 -17 -15.5 -29s2.83301 -22.333 11.5 -31c82.667 -85.333 150 -181.666 202 -288.999s85.667 -220.666 101 -339.999c8.66699 -36.667 13 -71.667 13 -105zM566.002 165.998
c78.667 0 146.668 26.833 204.001 80.5s89.666 119.5 96.999 197.5c0 22.667 -2.66699 56.667 -8 102c-17.333 66 -53 120.5 -107 163.5s-116 64.5 -186 64.5c-83.333 0 -154.666 -29.833 -213.999 -89.5s-89 -131.167 -89 -214.5s29.667 -154.833 89 -214.5
s130.666 -89.5 213.999 -89.5z" />
    <glyph glyph-name="ntilde" unicode="&#xf1;" horiz-adv-x="997" 
d="M237 1134l-25.002 18.9971c-8.66699 6.66699 -13.5 15.5 -14.5 26.5s2.16699 20.5 9.5 28.5c48 51.333 100.833 80.5 158.5 87.5s111.834 -9.5 162.501 -49.5l15 -13c20 -15.333 40.833 -23.666 62.5 -24.999s41 1.83398 58 9.50098s33.167 18.5 48.5 32.5
c7.33301 6.66699 15.5 10.167 24.5 10.5s17.167 -2.5 24.5 -8.5l25 -19c8.66699 -7.33301 13.167 -16.5 13.5 -27.5s-3.5 -20.5 -11.5 -28.5c-52 -52 -108.333 -78 -169 -78c-49.333 0 -96 17 -140 51c-8 6.66699 -14 12 -18 16c-23.333 18 -47.666 27 -72.999 27
c-34.667 0 -69 -18.333 -103 -55c-14.667 -15.333 -30.667 -16.666 -48 -3.99902zM520.998 944.997c105.333 -6 194.168 -49.334 266.501 -130.001s108.5 -174.667 108.5 -282v-500c0 -10.667 -3.83301 -19.667 -11.5 -27s-16.834 -11 -27.501 -11h-83
c-10.667 0 -19.834 3.66699 -27.501 11s-11.5 16.333 -11.5 27v506c0 61.333 -19.667 115.833 -59 163.5s-88.666 74.834 -147.999 81.501c-71.333 8.66699 -133.5 -10.666 -186.5 -57.999s-79.5 -106.333 -79.5 -177v-516c0 -10.667 -3.66699 -19.667 -11 -27
s-16.333 -11 -27 -11h-83c-10.667 0 -19.834 3.66699 -27.501 11s-11.5 16.333 -11.5 27v888c0 10.667 3.83301 19.667 11.5 27s16.834 11 27.501 11h83c10.667 0 19.667 -3.66699 27 -11s11 -16.333 11 -27v-51c0 -0.666992 0.5 -1.33398 1.5 -2.00098
s1.83301 -0.666992 2.5 0c76.667 56 161.667 81.667 255 77z" />
    <glyph glyph-name="ograve" unicode="&#xf2;" 
d="M543 1117l-84.001 157c-13.333 24.667 -16.666 38.334 -9.99902 41.001s23.667 4 51 4h42c11.333 0 22.5 -3.83301 33.5 -11.5s18.167 -16.834 21.5 -27.501l55 -160c4 -10.667 3.16699 -20 -2.5 -28s-14.167 -12 -25.5 -12h-20c-11.333 0 -23 3.66699 -35 11
s-20.667 16 -26 26zM565.999 934c128 0 237.333 -45.333 328 -136s136 -200 136 -328s-45.333 -237.333 -136 -328s-200 -136 -328 -136s-237.333 45.333 -328 136s-136 200 -136 328s45.333 237.333 136 328s200 136 328 136zM565.999 166
c83.333 0 154.833 29.833 214.5 89.5s89.5 131.167 89.5 214.5s-29.833 154.833 -89.5 214.5s-131.167 89.5 -214.5 89.5s-154.666 -29.833 -213.999 -89.5s-89 -131.167 -89 -214.5s29.667 -154.833 89 -214.5s130.666 -89.5 213.999 -89.5z" />
    <glyph glyph-name="oacute" unicode="&#xf3;" 
d="M509 1080c-11.333 0 -20.0029 4.00098 -26.0029 12.001s-7 17.333 -3 28l55 160c3.33301 10.667 10.5 20 21.5 28s22.167 12 33.5 12h42c27.333 0 44.333 -1.33301 51 -4s3.33398 -16.334 -9.99902 -41.001l-83 -158c-5.33301 -10 -14.166 -18.667 -26.499 -26
s-24.166 -11 -35.499 -11h-19zM565.997 934.001c128 0 237.333 -45.333 328 -136s136 -200 136 -328s-45.333 -237.333 -136 -328s-200 -136 -328 -136s-237.333 45.333 -328 136s-136 200 -136 328s45.333 237.333 136 328s200 136 328 136zM565.997 166.001
c83.333 0 154.833 29.833 214.5 89.5s89.5 131.167 89.5 214.5s-29.833 154.833 -89.5 214.5s-131.167 89.5 -214.5 89.5s-154.833 -29.833 -214.5 -89.5s-89.5 -131.167 -89.5 -214.5s29.833 -154.833 89.5 -214.5s131.167 -89.5 214.5 -89.5z" />
    <glyph glyph-name="ocircumflex" unicode="&#xf4;" 
d="M566 934c128 0 237.333 -45.333 328 -136s136 -200 136 -328s-45.333 -237.333 -136 -328s-200 -136 -328 -136s-237.333 45.333 -328 136s-136 200 -136 328s45.333 237.333 136 328s200 136 328 136zM566 166c83.333 0 154.833 29.833 214.5 89.5
s89.5 131.167 89.5 214.5s-29.833 154.833 -89.5 214.5s-131.167 89.5 -214.5 89.5s-154.666 -29.833 -213.999 -89.5s-89 -131.167 -89 -214.5s29.667 -154.833 89 -214.5s130.666 -89.5 213.999 -89.5zM380 1069c-11.333 0 -18.835 3.33301 -22.502 10
s-2.16699 14.667 4.5 24l179 250c6.66699 9.33301 14.834 14 24.501 14s17.834 -4.66699 24.501 -14l179 -250c6.66699 -9.33301 8.33398 -17.333 5.00098 -24s-10.666 -10 -21.999 -10h-45c-11.333 0 -23.5 3.33301 -36.5 10s-22.833 14.667 -29.5 24l-51 71
c-6.66699 9.33301 -14.834 14 -24.501 14s-17.834 -4.66699 -24.501 -14l-50 -71c-6.66699 -9.33301 -16.5 -17.333 -29.5 -24s-25.167 -10 -36.5 -10h-45z" />
    <glyph glyph-name="otilde" unicode="&#xf5;" 
d="M302 1136l-20.001 14.998c-9.33301 6.66699 -14.5 16 -15.5 28s2.5 22.333 10.5 31c47.333 50.667 99.333 79.167 156 85.5s110.334 -10.167 161.001 -49.5l16 -13c19.333 -15.333 40 -23.666 62 -24.999s41.5 1.83398 58.5 9.50098s33.167 18.5 48.5 32.5
c7.33301 6.66699 16 9.83398 26 9.50098s18.667 -3.5 26 -9.5l19 -16c9.33301 -7.33301 14.333 -16.833 15 -28.5s-3.33301 -21.834 -12 -30.501c-52 -50.667 -107.667 -76 -167 -76c-49.333 0 -96 17 -140 51c-8 6.66699 -14 12 -18 16c-23.333 18 -47.666 27 -72.999 27
c-34.667 0 -68.334 -17.667 -101.001 -53c-7.33301 -7.33301 -15.833 -11.333 -25.5 -12s-18.5 2 -26.5 8zM565.999 933.998c128 0 237.333 -45.333 328 -136s136 -200 136 -328s-45.333 -237.333 -136 -328s-200 -136 -328 -136s-237.333 45.333 -328 136
s-136 200 -136 328s45.333 237.333 136 328s200 136 328 136zM565.999 165.998c83.333 0 154.833 29.833 214.5 89.5s89.5 131.167 89.5 214.5s-29.833 154.833 -89.5 214.5s-131.167 89.5 -214.5 89.5s-154.833 -29.833 -214.5 -89.5s-89.5 -131.167 -89.5 -214.5
s29.833 -154.833 89.5 -214.5s131.167 -89.5 214.5 -89.5z" />
    <glyph glyph-name="odieresis" unicode="&#xf6;" 
d="M566 934c128 0 237.333 -45.333 328 -136s136 -200 136 -328s-45.333 -237.333 -136 -328s-200 -136 -328 -136s-237.333 45.333 -328 136s-136 200 -136 328s45.333 237.333 136 328s200 136 328 136zM566 166c83.333 0 154.833 29.833 214.5 89.5
s89.5 131.167 89.5 214.5s-29.833 154.833 -89.5 214.5s-131.167 89.5 -214.5 89.5s-154.666 -29.833 -213.999 -89.5s-89 -131.167 -89 -214.5s29.667 -154.833 89 -214.5s130.666 -89.5 213.999 -89.5zM757 1099c-26.667 0 -49.334 9.33301 -68.001 28
s-28 41.334 -28 68.001s9.33301 49.334 28 68.001s41.334 28 68.001 28s49.334 -9.33301 68.001 -28s28 -41.334 28 -68.001s-9.33301 -49.334 -28 -68.001s-41.334 -28 -68.001 -28zM376 1099c-26.667 0 -49.334 9.33301 -68.001 28s-28 41.334 -28 68.001
s9.33301 49.334 28 68.001s41.334 28 68.001 28s49.334 -9.33301 68.001 -28s28 -41.334 28 -68.001s-9.33301 -49.334 -28 -68.001s-41.334 -28 -68.001 -28z" />
    <glyph glyph-name="divide" unicode="&#xf7;" horiz-adv-x="1050" 
d="M526 475c26.667 0 49.334 -9.33301 68.001 -28s28 -41.334 28 -68.001s-9.33301 -49.334 -28 -68.001s-41.334 -28 -68.001 -28s-49.334 9.33301 -68.001 28s-28 41.334 -28 68.001s9.33301 49.334 28 68.001s41.334 28 68.001 28zM526 950
c-26.667 0 -49.334 9.33301 -68.001 28s-28 41.334 -28 68.001s9.33301 49.5 28 68.5s41.334 28.5 68.001 28.5s49.334 -9.5 68.001 -28.5s28 -41.833 28 -68.5s-9.33301 -49.334 -28 -68.001s-41.334 -28 -68.001 -28zM907 793c11.333 0 21.166 -4.16699 29.499 -12.5
s12.5 -18.166 12.5 -29.499v-77c0 -11.333 -4.16699 -21 -12.5 -29s-18.166 -12 -29.499 -12h-763c-11.333 0 -21.166 4 -29.499 12s-12.5 17.667 -12.5 29v77c0 11.333 4.16699 21.166 12.5 29.499s18.166 12.5 29.499 12.5h763z" />
    <glyph glyph-name="oslash" unicode="&#xf8;" 
d="M566 934c128 0 237.333 -45.333 328 -136s136 -200 136 -328s-45.333 -237.333 -136 -328s-200 -136 -328 -136s-237.333 45.333 -328 136s-136 200 -136 328s45.333 237.333 136 328s200 136 328 136zM286 361c4.66699 -10.667 11.3311 -16.833 19.998 -18.5
s17.334 1.5 26.001 9.5l356 350c8 8 11.333 16.5 10 25.5s-7.33301 15.833 -18 20.5c-38.667 17.333 -76.667 26 -114 26c-83.333 0 -154.666 -29.833 -213.999 -89.5s-89 -131.167 -89 -214.5c0 -16 2 -33.167 6 -51.5s7.66699 -32.5 11 -42.5zM565.997 166.001
c83.333 0 154.832 29.833 214.499 89.5s89.5 131.167 89.5 214.5c0 16 -2 33 -6 51s-8 32 -12 42l-5 15c-4.66699 10.667 -11.667 17 -21 19s-18 -1 -26 -9l-356 -350c-8 -8 -11.167 -16.5 -9.5 -25.5s7.83398 -15.833 18.501 -20.5c38 -17.333 75.667 -26 113 -26z" />
    <glyph glyph-name="ugrave" unicode="&#xf9;" horiz-adv-x="997" 
d="M857 948c10.667 0 19.834 -3.83496 27.501 -11.502s11.5 -16.834 11.5 -27.501v-884c0 -8.66699 -3.33301 -16.334 -10 -23.001s-14.334 -10 -23.001 -10h-94c-8.66699 0 -16.334 3.33301 -23.001 10s-10 14.334 -10 23.001c0 12.667 -5.5 22.167 -16.5 28.5
s-22.167 6.5 -33.5 0.5c-76 -42 -157.667 -56.667 -245 -44c-97.333 14.667 -178 60.834 -242 138.501s-96 166.834 -96 267.501v502c0 10.667 3.66699 19.667 11 27s16.333 11 27 11h83c10.667 0 19.834 -3.66699 27.501 -11s11.5 -16.333 11.5 -27v-516
c0 -70.667 26.667 -129.5 80 -176.5s115.666 -66.167 186.999 -57.5c58.667 7.33301 107.667 34.5 147 81.5s59 100.833 59 161.5v498c0 10.667 3.83301 19.834 11.5 27.501s16.834 11.5 27.501 11.5h82zM476 1117l-84.0029 157
c-13.333 24.667 -16.666 38.334 -9.99902 41.001s23.667 4 51 4h42c11.333 0 22.5 -3.83301 33.5 -11.5s18.167 -16.834 21.5 -27.501l55 -160c4 -10.667 3.16699 -20 -2.5 -28s-14.167 -12 -25.5 -12h-19c-11.333 0 -23.166 3.66699 -35.499 11s-21.166 16 -26.499 26z" />
    <glyph glyph-name="uacute" unicode="&#xfa;" horiz-adv-x="997" 
d="M857 948c10.667 0 19.834 -3.83496 27.501 -11.502s11.5 -16.834 11.5 -27.501v-884c0 -8.66699 -3.33301 -16.334 -10 -23.001s-14.334 -10 -23.001 -10h-94c-8.66699 0 -16.334 3.33301 -23.001 10s-10 14.334 -10 23.001c0 12.667 -5.5 22.167 -16.5 28.5
s-22.167 6.5 -33.5 0.5c-76 -42 -157.667 -56.667 -245 -44c-97.333 14.667 -178 60.834 -242 138.501s-96 166.834 -96 267.501v502c0 10.667 3.66699 19.667 11 27s16.333 11 27 11h83c10.667 0 19.834 -3.66699 27.501 -11s11.5 -16.333 11.5 -27v-516
c0 -70.667 26.667 -129.5 80 -176.5s115.666 -66.167 186.999 -57.5c58.667 7.33301 107.667 34.5 147 81.5s59 100.833 59 161.5v498c0 10.667 3.83301 19.834 11.5 27.501s16.834 11.5 27.501 11.5h82zM442 1080c-11.333 0 -19.6709 3.83398 -25.0039 11.501
s-6.33301 17.167 -3 28.5l54 160c3.33301 10.667 10.5 20 21.5 28s22.167 12 33.5 12h43c26.667 0 43.334 -1.33301 50.001 -4s3.33398 -16.334 -9.99902 -41.001l-83 -158c-5.33301 -10 -14.166 -18.667 -26.499 -26s-24.166 -11 -35.499 -11h-19z" />
    <glyph glyph-name="ucircumflex" unicode="&#xfb;" horiz-adv-x="997" 
d="M857 948c10.667 0 19.835 -3.83496 27.502 -11.502s11.5 -16.834 11.5 -27.501v-884c0 -8.66699 -3.33301 -16.334 -10 -23.001s-14.334 -10 -23.001 -10h-94c-8.66699 0 -16.334 3.33301 -23.001 10s-10 14.334 -10 23.001c0 12.667 -5.5 22.167 -16.5 28.5
s-22.167 6.5 -33.5 0.5c-76 -42 -157.667 -56.667 -245 -44c-97.333 14.667 -178 60.834 -242 138.501s-96 166.834 -96 267.501v502c0 10.667 3.66699 19.667 11 27s16.333 11 27 11h83c10.667 0 19.834 -3.66699 27.501 -11s11.5 -16.333 11.5 -27v-516
c0 -70.667 26.667 -129.5 80 -176.5s115.666 -66.167 186.999 -57.5c58.667 7.33301 107.667 34.5 147 81.5s59 100.833 59 161.5v498c0 10.667 3.66699 19.834 11 27.501s16.333 11.5 27 11.5h83zM313.001 1069c-11.333 0 -18.668 3.33301 -22.001 10
s-1.66602 14.667 5.00098 24l179 250c6.66699 9.33301 14.834 14 24.501 14s17.834 -4.66699 24.501 -14l179 -250c6.66699 -9.33301 8.16699 -17.333 4.5 -24s-11.167 -10 -22.5 -10h-45c-11.333 0 -23.5 3.33301 -36.5 10s-22.833 14.667 -29.5 24l-50 71
c-6.66699 9.33301 -14.834 14 -24.501 14s-17.834 -4.66699 -24.501 -14l-51 -71c-6.66699 -9.33301 -16.5 -17.333 -29.5 -24s-25.167 -10 -36.5 -10h-45z" />
    <glyph glyph-name="udieresis" unicode="&#xfc;" horiz-adv-x="997" 
d="M857 948c10.667 0 19.833 -3.83496 27.5 -11.502s11.5 -16.834 11.5 -27.501v-884c0 -8.66699 -3.33301 -16.334 -10 -23.001s-14.334 -10 -23.001 -10h-94c-8.66699 0 -16.334 3.33301 -23.001 10s-10 14.334 -10 23.001c0 12.667 -5.5 22.167 -16.5 28.5
s-22.167 6.5 -33.5 0.5c-76 -42 -157.667 -56.667 -245 -44c-97.333 14.667 -178 60.834 -242 138.501s-96 166.834 -96 267.501v502c0 10.667 3.83301 19.667 11.5 27s16.834 11 27.501 11h82c10.667 0 19.834 -3.66699 27.501 -11s11.5 -16.333 11.5 -27v-516
c0 -70.667 26.667 -129.5 80 -176.5s115.666 -66.167 186.999 -57.5c58.667 7.33301 107.667 34.5 147 81.5s59 100.833 59 161.5v498c0 10.667 3.83301 19.834 11.5 27.501s16.834 11.5 27.501 11.5h82zM689.999 1099c-26.667 0 -49.334 9.33301 -68.001 28
s-28 41.334 -28 68.001s9.33301 49.334 28 68.001s41.334 28 68.001 28s49.334 -9.33301 68.001 -28s28 -41.334 28 -68.001s-9.33301 -49.334 -28 -68.001s-41.334 -28 -68.001 -28zM308.999 1099c-26.667 0 -49.334 9.33301 -68.001 28s-28 41.334 -28 68.001
s9.33301 49.334 28 68.001s41.334 28 68.001 28s49.334 -9.33301 68.001 -28s28 -41.334 28 -68.001s-9.33301 -49.334 -28 -68.001s-41.334 -28 -68.001 -28z" />
    <glyph glyph-name="yacute" unicode="&#xfd;" horiz-adv-x="1110" 
d="M499 1077c-11.333 0 -19.8311 3.83105 -25.498 11.498s-6.83398 16.834 -3.50098 27.501l55 161c3.33301 10.667 10.5 19.834 21.5 27.501s22.167 11.5 33.5 11.5h51c27.333 0 43 -0.666992 47 -2c0.666992 -0.666992 0.666992 -2.66699 0 -6s-2.33398 -8 -5.00098 -14
s-5.66699 -12.333 -9 -19l-85 -161c-5.33301 -10 -14 -18.667 -26 -26s-23.667 -11 -35 -11h-19zM979.002 955.998c11.333 0 19.499 -3.66699 24.499 -11s4.83301 -16 -0.5 -26l-626 -1291l-18 -38c-5.33301 -9.33301 -11 -20.333 -17 -33
c-4.66699 -9.33301 -12.667 -17.333 -24 -24s-22.666 -10 -33.999 -10h-94c-11.333 0 -19.333 3.66699 -24 11s-4.66699 16.333 0 27l284 585c5.33301 10.667 8 23.167 8 37.5s-2.66699 26.833 -8 37.5l-344 698c-4.66699 10.667 -4.66699 19.5 0 26.5s12.667 10.5 24 10.5
h94c12 0 24 -3.5 36 -10.5s20.333 -15.833 25 -26.5l254 -515c4.66699 -10.667 10.667 -16 18 -16s13.333 5.33301 18 16l250 515c4.66699 10.667 13 19.5 25 26.5s23.667 10.5 35 10.5h94z" />
    <glyph glyph-name="thorn" unicode="&#xfe;" 
d="M566 934c85.333 0 164.167 -21.5 236.5 -64.5s129 -101.333 170 -175s60.167 -153.5 57.5 -239.5c-4 -119.333 -49 -222.5 -135 -309.5s-188.333 -133.167 -307 -138.5c-122 -6 -230.333 32.333 -325 115v-559c0 -11.333 -3.83301 -20.833 -11.5 -28.5
s-17.167 -11.5 -28.5 -11.5h-81c-10.667 0 -20 3.83301 -28 11.5s-12 17.167 -12 28.5v1826c0 11.333 4 20.833 12 28.5s17.333 11.5 28 11.5h81c11.333 0 20.833 -3.83301 28.5 -11.5s11.5 -17.167 11.5 -28.5v-571c89.333 77.333 190.333 116 303 116zM566.001 166
c83.333 0 154.833 29.833 214.5 89.5s89.5 131.167 89.5 214.5s-29.833 154.833 -89.5 214.5s-131.167 89.5 -214.5 89.5s-154.666 -29.833 -213.999 -89.5s-89 -131.167 -89 -214.5s29.667 -154.833 89 -214.5s130.666 -89.5 213.999 -89.5z" />
    <glyph glyph-name="ydieresis" unicode="&#xff;" horiz-adv-x="1107" 
d="M367 1099c-26.667 0 -49.334 9.33301 -68.001 28s-28 41.334 -28 68.001s9.33301 49.334 28 68.001s41.334 28 68.001 28s49.334 -9.33301 68.001 -28s28 -41.334 28 -68.001s-9.33301 -49.334 -28 -68.001s-41.334 -28 -68.001 -28zM748 1099
c-26.667 0 -49.334 9.33301 -68.001 28s-28 41.334 -28 68.001s9.33301 49.334 28 68.001s41.334 28 68.001 28s49.334 -9.33301 68.001 -28s28 -41.334 28 -68.001s-9.33301 -49.334 -28 -68.001s-41.334 -28 -68.001 -28zM979 956c11.333 0 19.5 -3.66699 24.5 -11
s4.83301 -16 -0.5 -26l-659 -1358c-4.66699 -10.667 -13 -19.667 -25 -27s-23.667 -11 -35 -11h-94c-11.333 0 -19.333 3.66699 -24 11s-4.66699 16.333 0 27l30 62l18 37c6 11.333 12.333 24 19 38l217 448c5.33301 10.667 8 23.167 8 37.5s-2.66699 26.833 -8 37.5
l-344 698c-4.66699 10.667 -4.66699 19.5 0 26.5s12.667 10.5 24 10.5h95c11.333 0 23 -3.5 35 -10.5s20.333 -15.833 25 -26.5l254 -515c4.66699 -10.667 10.667 -16 18 -16s13.333 5.33301 18 16l250 515l18 37h136z" />
    <glyph glyph-name="dotlessi" unicode="&#x131;" horiz-adv-x="364" 
d="M221 959c11.333 0 21.166 -4 29.499 -12s12.5 -17.667 12.5 -29v-881c0 -11.333 -4.16699 -21.166 -12.5 -29.499s-18.166 -12.5 -29.499 -12.5h-77c-11.333 0 -21.166 4.16699 -29.499 12.5s-12.5 18.166 -12.5 29.499v881c0 11.333 4.16699 21 12.5 29
s18.166 12 29.499 12h77z" />
    <glyph glyph-name="Lslash" unicode="&#x141;" horiz-adv-x="1122" 
d="M977 166c11.333 0 21.168 -4.16699 29.501 -12.5s12.5 -18.166 12.5 -29.499v-76c0 -11.333 -4.16699 -21.166 -12.5 -29.499s-18.166 -12.5 -29.499 -12.5h-692c-11.333 0 -21.166 4.16699 -29.499 12.5s-12.5 18.166 -12.5 29.499v537c0 11.333 -3.66699 19.333 -11 24
s-16.333 4.33398 -27 -0.999023l-65 -31c-10.667 -4.66699 -19.667 -4.66699 -27 0s-11 12.667 -11 24v33c0 11.333 3.66699 22.666 11 33.999s16.333 19.666 27 24.999l65 31c10.667 4.66699 19.667 13 27 25s11 23.667 11 35v605c0 11.333 4.16699 21.166 12.5 29.499
s18.166 12.5 29.499 12.5h76c11.333 0 21.166 -4.16699 29.499 -12.5s12.5 -18.166 12.5 -29.499v-529c0 -11.333 3.66699 -19.333 11 -24s16.333 -4.33398 27 0.999023l73 35c10.667 4.66699 19.667 4.66699 27 0s11 -12.667 11 -24v-32c0 -11.333 -3.66699 -23 -11 -35
s-16.333 -20.333 -27 -25l-73 -35c-10.667 -4.66699 -19.667 -13 -27 -25s-11 -23.667 -11 -35v-453c0 -11.333 4.16699 -21.166 12.5 -29.499s18.166 -12.5 29.499 -12.5h532z" />
    <glyph glyph-name="lslash" unicode="&#x142;" horiz-adv-x="675" 
d="M568 790c5.33301 -10.667 6.16797 -21.502 2.50098 -32.502s-10.834 -18.833 -21.501 -23.5l-94 -45c-10.667 -4.66699 -19.667 -13 -27 -25s-11 -23.667 -11 -35v-592c0 -11.333 -4 -21.166 -12 -29.499s-17.667 -12.5 -29 -12.5h-77
c-11.333 0 -21.166 4.16699 -29.499 12.5s-12.5 18.166 -12.5 29.499v515c0 11.333 -3.5 19.333 -10.5 24s-15.833 4.66699 -26.5 0l-25 -12c-10.667 -4.66699 -21.167 -5.16699 -31.5 -1.5s-18.166 10.834 -23.499 21.501l-34 69
c-4.66699 10.667 -5.16699 21.334 -1.5 32.001s10.834 18.667 21.501 24l94 45c10.667 4.66699 19.5 12.834 26.5 24.501s10.5 23.167 10.5 34.5v648c0 11.333 4.16699 21 12.5 29s18.166 12 29.499 12h77c11.333 0 21.166 -4 29.499 -12s12.5 -17.667 12.5 -29v-570
c0 -11.333 3.5 -19.333 10.5 -24s15.833 -4.66699 26.5 0l25 12c10.667 4.66699 21.167 5.16699 31.5 1.5s18.166 -10.834 23.499 -21.501z" />
    <glyph glyph-name="OE" unicode="&#x152;" horiz-adv-x="2234" 
d="M1558 1259c-11.333 0 -21.166 -4.1748 -29.499 -12.5078s-12.5 -18.166 -12.5 -29.499v-476c0 -11.333 4.16699 -21.166 12.5 -29.499s18.166 -12.5 29.499 -12.5h294c11.333 0 21.166 -4.16699 29.499 -12.5s12.5 -18.166 12.5 -29.499v-77
c0 -11.333 -4.16699 -21.166 -12.5 -29.499s-18.166 -12.5 -29.499 -12.5h-294c-11.333 0 -21.166 -4.16699 -29.499 -12.5s-12.5 -18.166 -12.5 -29.499v-288c0 -11.333 4.16699 -21.166 12.5 -29.499s18.166 -12.5 29.499 -12.5h532c11.333 0 21.166 -4.16699 29.5 -12.5
c8.33301 -8.33301 12.5 -18.166 12.5 -29.499v-76c0 -11.333 -4.16699 -21.166 -12.5 -29.499s-18.166 -12.5 -29.499 -12.5h-693c-11.333 0 -21.166 4.16699 -29.499 12.5s-12.5 18.166 -12.5 29.499v222c-66.667 -82 -147.334 -146.5 -242.001 -193.5
s-196 -70.5 -304 -70.5c-102 0 -199 21.167 -291 63.5s-170 98.833 -234 169.5s-112.333 154.5 -145 251.5s-43.334 197.5 -32.001 301.5c18 162 85.5 301.5 202.5 418.5s256.5 184.833 418.5 203.5c124 14 240.833 -2.5 350.5 -49.5s201.834 -116.833 276.501 -209.5v222
c0 11.333 4.16699 21.166 12.5 29.499s18.166 12.5 29.499 12.5h693c11.333 0 21.166 -4.16699 29.5 -12.5c8.33301 -8.33301 12.5 -18.166 12.5 -29.499v-76c0 -11.333 -4.16699 -21.166 -12.5 -29.499s-18.166 -12.5 -29.5 -12.5h-532zM809 165.992
c98.667 0 190 24.5 274 73.5s150.5 115.5 199.5 199.5s73.5 175.333 73.5 274s-24.5 190 -73.5 274s-115.5 150.333 -199.5 199s-175.333 73 -274 73c-74 0 -144.667 -14.5 -212 -43.5s-125.333 -67.833 -174 -116.5s-87.5 -106.667 -116.5 -174s-43.5 -138 -43.5 -212
c0 -98.667 24.333 -190 73 -274s115 -150.5 199 -199.5s175.333 -73.5 274 -73.5z" />
    <glyph glyph-name="oe" unicode="&#x153;" horiz-adv-x="1896" 
d="M1767 641c12.667 -34 21.3311 -59.667 25.998 -77c3.33301 -10.667 2 -21 -4 -31s-14.333 -16.333 -25 -19l-647 -190c-11.333 -3.33301 -18.333 -9.33301 -21 -18s-0.666992 -17.667 6 -27c26.667 -32.667 55.667 -57.667 87 -75c74 -40.667 151.333 -49 232 -25
c23.333 6.66699 47.833 19.5 73.5 38.5s45.5 36.5 59.5 52.5l22 23c7.33301 8.66699 17.333 14.167 30 16.5s24 0.833008 34 -4.5l67 -37c10 -5.33301 16 -13 18 -23s-0.666992 -19.667 -8 -29c-3.33301 -4 -8.33301 -9.66699 -15 -17s-19.667 -20.5 -39 -39.5
s-38.5 -36.5 -57.5 -52.5s-41.5 -32 -67.5 -48s-50 -27.333 -72 -34c-42.667 -12.667 -86.334 -19 -131.001 -19c-79.333 0 -153.666 19 -222.999 57c-19.333 10.667 -40.166 25.667 -62.499 45s-39.833 36 -52.5 50l-19 22c-7.33301 8.66699 -16.5 13.334 -27.5 14.001
s-20.833 -2.66602 -29.5 -9.99902l-22 -19c-9.33301 -8 -28.166 -22.333 -56.499 -43s-56 -38.834 -83 -54.501s-58.5 -29.834 -94.5 -42.501s-69 -19 -99 -19c-128 0 -237.333 45.333 -328 136s-136 200 -136 328s45.333 237.333 136 328s200 136 328 136
c30 0 62.667 -6 98 -18s67.5 -26.667 96.5 -44s55.833 -34.833 80.5 -52.5s44 -32.5 58 -44.5l21 -18c8.66699 -7.33301 18.667 -11 30 -11s21 4.33301 29 13c8.66699 9.33301 20.667 21.5 36 36.5s42.833 36.833 82.5 65.5s75.167 47.667 106.5 57
c122.667 36 240.667 23.333 354 -38c69.333 -37.333 125.333 -89.333 168 -156c7.33301 -11.333 14.333 -23.833 21 -37.5s11.667 -24.5 15 -32.5zM565.997 166c83.333 0 154.833 29.833 214.5 89.5s89.5 131.167 89.5 214.5s-29.833 154.833 -89.5 214.5
s-131.167 89.5 -214.5 89.5s-154.833 -29.833 -214.5 -89.5s-89.5 -131.167 -89.5 -214.5s29.833 -154.833 89.5 -214.5s131.167 -89.5 214.5 -89.5zM1555 619l12.5 4c4.33301 1.33301 8 2.66602 11 3.99902l8 3.5c2.33301 1 4 1.83301 5 2.5s1.5 1.33398 1.5 2.00098l-1 2
c-28 42.667 -64.667 76.667 -110 102c-46.667 25.333 -95.334 38 -146.001 38c-26.667 0 -55.334 -4.33301 -86.001 -13c-81.333 -24 -142 -72.667 -182 -146c-8 -14 -14.667 -30.333 -20 -49s-8.66602 -33.667 -9.99902 -45l-3 -17
c-1.33301 -11.333 1.33398 -20 8.00098 -26s15.667 -7.33301 27 -4z" />
    <glyph glyph-name="Scaron" unicode="&#x160;" horiz-adv-x="1128" 
d="M1016 481c13.333 -56.667 12.833 -122.837 -1.5 -198.504s-38.166 -137.167 -71.499 -184.5c-39.333 -55.333 -87.833 -99.666 -145.5 -132.999s-120.167 -53.666 -187.5 -60.999c-10.667 -1.33301 -26.667 -2 -48 -2c-110.667 0 -209.167 35 -295.5 105
s-140.5 159.333 -162.5 268c-2.66699 12 -0.5 23 6.5 33s16.5 15.667 28.5 17l79 8c10 1.33301 19.333 -1 28 -7s14 -14 16 -24c16.667 -75.333 56.667 -136.166 120 -182.499s134 -65.166 212 -56.499c84 8 153 45.333 207 112s76.333 141.667 67 225
c-4 35.333 -12.167 67 -24.5 95s-26.833 51.333 -43.5 70s-39 36.334 -67 53.001s-54.5 30.167 -79.5 40.5s-57.167 22.166 -96.5 35.499c-50 16.667 -89 32 -117 46c-98 50 -165.5 113.833 -202.5 191.5s-40.167 161.834 -9.5 252.501c30 88 87.167 153.167 171.5 195.5
s174.833 51.5 271.5 27.5c25.333 -6.66699 51.5 -17.667 78.5 -33s53.667 -35 80 -59s49.333 -54.167 69 -90.5s32.5 -75.166 38.5 -116.499c1.33301 -12 -1.83398 -22.5 -9.50098 -31.5s-17.5 -13.833 -29.5 -14.5l-80 -2c-10 0 -18.833 3.16699 -26.5 9.5
s-12.5 14.5 -14.5 24.5c-8.66699 44.667 -29.167 80.5 -61.5 107.5s-60.166 43.833 -83.499 50.5c-34 6.66699 -67.333 8.16699 -100 4.5s-63.167 -16.5 -91.5 -38.5s-48.5 -50.667 -60.5 -86c-6.66699 -20 -10.667 -38.833 -12 -56.5s1 -37.834 7 -60.501
s20.5 -45.334 43.5 -68.001s54.167 -44 93.5 -64c20 -10 52 -22.333 96 -37l65 -22.5c16 -5.66699 38.5 -14.834 67.5 -27.501s52.667 -24.834 71 -36.501s39.666 -27.167 63.999 -46.5s44.5 -39.666 60.5 -60.999s31.333 -46.666 46 -75.999s26 -61 34 -95zM539 1552
l-178.998 250c-6.66699 9.33301 -8.16699 17.333 -4.5 24s11.167 10 22.5 10h45c11.333 0 23.5 -3.33301 36.5 -10s22.833 -14.667 29.5 -24l50 -71c6.66699 -9.33301 14.834 -14 24.501 -14s17.834 4.66699 24.501 14l51 71c6.66699 9.33301 16.5 17.333 29.5 24
s25.167 10 36.5 10h45c11.333 0 18.666 -3.33301 21.999 -10s1.66602 -14.667 -5.00098 -24l-179 -250c-6.66699 -9.33301 -14.834 -14 -24.501 -14s-17.834 4.66699 -24.501 14z" />
    <glyph glyph-name="scaron" unicode="&#x161;" horiz-adv-x="909" 
d="M804 335c9.33301 -77.333 -11.001 -146.663 -61.001 -207.996c-62.667 -77.333 -148.667 -120.666 -258 -129.999c-8 -0.666992 -20 -1 -36 -1c-80.667 0 -153.167 21.333 -217.5 64s-106.833 97.334 -127.5 164.001c-3.33301 11.333 -1.66602 22 5.00098 32
s16 15.667 28 17l84 11c18.667 2 32 -6.33301 40 -25c14 -32.667 40.833 -59 80.5 -79s82.834 -27.667 129.501 -23c65.333 5.33301 114.666 29 147.999 71c21.333 27.333 30 56 26 86c-4 33.333 -20 58.166 -48 74.499s-76.667 31.833 -146 46.5
c-51.333 10.667 -86.333 20 -105 28c-72.667 30.667 -123.5 76.667 -152.5 138s-29.833 125 -2.5 191c24 58 68 101 132 129s133 34.333 207 19c41.333 -8 82.833 -28.5 124.5 -61.5s68.834 -74.167 81.501 -123.5c2.66699 -12.667 0.5 -23.834 -6.5 -33.501
s-16.833 -14.834 -29.5 -15.501l-87 -2c-17.333 0 -29 7 -35 21c-6.66699 16 -19 29.167 -37 39.5s-32.333 16.5 -43 18.5c-35.333 7.33301 -68.333 6 -99 -4s-50.667 -26 -60 -48c-22 -52 1 -92 69 -120c12 -4.66699 37.667 -11 77 -19c22.667 -4.66699 40 -8.5 52 -11.5
s30.167 -8.33301 54.5 -16s43.833 -15.334 58.5 -23.001s32 -18.167 52 -31.5s36 -27.833 48 -43.5s23.167 -34.834 33.5 -57.501s17.166 -47.334 20.499 -74.001zM418.999 1001l-151.999 213c-9.33301 13.333 -10.333 26.833 -3 40.5s19 20.5 35 20.5h33
c13.333 0 23.666 -5.33301 30.999 -16l56 -78c8 -11.333 18.5 -17 31.5 -17s23.5 5.66699 31.5 17l56 78c7.33301 10.667 18 16 32 16h33c16 0 27.5 -6.83301 34.5 -20.5s5.83301 -27.167 -3.5 -40.5l-152 -213c-8 -11.333 -18.5 -17 -31.5 -17s-23.5 5.66699 -31.5 17z" />
    <glyph glyph-name="Ydieresis" unicode="&#x178;" horiz-adv-x="1349" 
d="M869 1609c-26.667 0 -49.334 9.33301 -68.001 28s-28 41.334 -28 68.001s9.33301 49.5 28 68.5s41.334 28.5 68.001 28.5s49.5 -9.5 68.5 -28.5s28.5 -41.833 28.5 -68.5s-9.5 -49.334 -28.5 -68.001s-41.833 -28 -68.5 -28zM488 1609
c-26.667 0 -49.334 9.33301 -68.001 28s-28 41.334 -28 68.001s9.33301 49.5 28 68.5s41.334 28.5 68.001 28.5s49.334 -9.5 68.001 -28.5s28 -41.833 28 -68.5s-9.33301 -49.334 -28 -68.001s-41.334 -28 -68.001 -28zM1221 1429c11.333 0 19.167 -3.5 23.5 -10.5
s3.5 -15.5 -2.5 -25.5l-461 -761c-14.667 -24.667 -22 -50.667 -22 -78v-521c0 -11.333 -4.16699 -21.166 -12.5 -29.499s-18.166 -12.5 -29.499 -12.5h-76c-11.333 0 -21.166 4.16699 -29.499 12.5s-12.5 18.166 -12.5 29.499v521c0 27.333 -7.33301 53.333 -22 78
l-461 761c-14.667 24 -18.334 36 -11.001 36h135c11.333 0 23.166 -3.5 35.499 -10.5s21.5 -15.5 27.5 -25.5l354 -584c6 -10 13.333 -15 22 -15s16 5 22 15l353 584c6 10 15.333 18.5 28 25.5s24.667 10.5 36 10.5h103z" />
    <glyph glyph-name="Zcaron" unicode="&#x17d;" horiz-adv-x="1179" 
d="M404 1581c-11.333 0 -18.8359 3.33301 -22.5029 10s-2.16699 14.667 4.5 24l180 250c6.66699 9.33301 14.667 14 24 14s17.333 -4.66699 24 -14l179 -250c6.66699 -9.33301 8.33398 -17.333 5.00098 -24s-10.666 -10 -21.999 -10h-45c-11.333 0 -23.5 3.33301 -36.5 10
s-22.833 14.667 -29.5 24l-51 70c-7.33301 9.33301 -15.666 14 -24.999 14s-17.333 -4.66699 -24 -14l-50 -70c-6.66699 -9.33301 -16.5 -17.333 -29.5 -24s-25.167 -10 -36.5 -10h-45zM1035 166c11.333 0 21.166 -4.16797 29.499 -12.501s12.5 -18.166 12.5 -29.499v-76
c0 -11.333 -4.16699 -21.166 -12.5 -29.499s-18.166 -12.5 -29.499 -12.5h-899c-11.333 0 -19 3.66699 -23 11s-3.33301 16 2 26l673 1180c5.33301 10 6 18.5 2 25.5s-11.667 10.5 -23 10.5h-623c-11.333 0 -21.166 4.16699 -29.499 12.5s-12.5 18.166 -12.5 29.499v77
c0 11.333 4.16699 21 12.5 29s18.166 12 29.499 12h899c11.333 0 19 -3.5 23 -10.5s3.33301 -15.5 -2 -25.5l-674 -1180c-5.33301 -10 -6 -18.667 -2 -26s11.667 -11 23 -11h624z" />
    <glyph glyph-name="zcaron" unicode="&#x17e;" horiz-adv-x="968" 
d="M453 1001l-152 213c-9.33301 13.333 -10.5 26.833 -3.5 40.5s18.5 20.5 34.5 20.5h33c14 0 24.667 -5.33301 32 -16l87 -122l88 122c7.33301 10.667 18 16 32 16h33c16 0 27.5 -6.83301 34.5 -20.5s5.83301 -27.167 -3.5 -40.5l-152 -213
c-7.33301 -11.333 -17.833 -17 -31.5 -17s-24.167 5.66699 -31.5 17zM828 166c10.667 0 19.8379 -3.83301 27.5049 -11.5s11.5 -16.834 11.5 -27.501v-82c0 -10.667 -3.83301 -19.834 -11.5 -27.501s-16.834 -11.5 -27.501 -11.5h-636c-14.667 0 -25.834 6.5 -33.501 19.5
s-7.83398 26.167 -0.500977 39.5l386 652c7.33301 13.333 7.16602 26.5 -0.500977 39.5s-18.834 19.5 -33.501 19.5h-368c-10.667 0 -19.834 3.83301 -27.501 11.5s-11.5 16.834 -11.5 27.501v82c0 10.667 3.83301 19.834 11.5 27.501s16.834 11.5 27.501 11.5h649
c14.667 0 25.667 -6.66699 33 -20s7.33301 -26.333 0 -39l-385 -652c-7.33301 -12.667 -7.33301 -25.667 0 -39s18.333 -20 33 -20h356z" />
    <glyph glyph-name="circumflex" unicode="&#x2c6;" horiz-adv-x="624" 
d="M516 1145c6.66699 -9.33301 8.16504 -17.333 4.49805 -24s-11.167 -10 -22.5 -10h-45c-11.333 0 -23.5 3.33301 -36.5 10s-22.833 14.667 -29.5 24l-50 70c-6.66699 9.33301 -14.834 14 -24.501 14s-17.834 -4.66699 -24.501 -14l-51 -70
c-6.66699 -9.33301 -16.5 -17.333 -29.5 -24s-25.167 -10 -36.5 -10h-45c-11.333 0 -18.666 3.33301 -21.999 10s-1.66602 14.667 5.00098 24l179 250c6.66699 9.33301 14.834 14 24.501 14s17.834 -4.66699 24.501 -14z" />
    <glyph glyph-name="caron" unicode="&#x2c7;" horiz-adv-x="624" 
d="M498 1430c11.333 0 18.835 -3.33301 22.502 -10s2.16699 -14.667 -4.5 -24l-179 -250c-6.66699 -9.33301 -14.834 -14 -24.501 -14s-17.834 4.66699 -24.501 14l-179 250c-6.66699 9.33301 -8.33398 17.333 -5.00098 24s10.666 10 21.999 10h45
c11.333 0 23.5 -3.33301 36.5 -10s22.833 -14.667 29.5 -24l51 -70c6.66699 -9.33301 14.834 -14 24.501 -14s17.834 4.66699 24.501 14l50 70c6.66699 9.33301 16.5 17.333 29.5 24s25.167 10 36.5 10h45z" />
    <glyph glyph-name="ilde" unicode="&#x2dc;" horiz-adv-x="806" 
d="M691 1377c8.66699 -7.33301 13.165 -16.498 13.498 -27.498s-3.5 -20.167 -11.5 -27.5c-52.667 -52.667 -109.334 -79 -170.001 -79c-48 0 -94.333 17.333 -139 52c-2 1.33301 -4 2.83301 -6 4.5l-6.5 5.5c-2.33301 2 -4.16602 3.66699 -5.49902 5
c-22.667 18 -47 27 -73 27c-34.667 0 -69 -18.333 -103 -55c-6.66699 -6.66699 -14.667 -10.334 -24 -11.001s-17.666 1.66602 -24.999 6.99902l-24 19c-8.66699 6.66699 -13.5 15.5 -14.5 26.5s2.16699 20.5 9.5 28.5c48 51.333 100.833 80.5 158.5 87.5
s111.834 -9.5 162.501 -49.5l15 -13c20 -15.333 40.833 -23.833 62.5 -25.5s41 1.5 58 9.5s33.167 19 48.5 33c16.667 15.333 33 16.333 49 3z" />
    <glyph glyph-name="endash" unicode="&#x2013;" horiz-adv-x="831" 
d="M687 549c11.333 0 21.166 -4.16699 29.499 -12.5s12.5 -18.166 12.5 -29.499v-76c0 -11.333 -4.16699 -21.166 -12.5 -29.499s-18.166 -12.5 -29.499 -12.5h-543c-11.333 0 -21 4.16699 -29 12.5s-12 18.166 -12 29.499v76c0 11.333 4 21.166 12 29.499
s17.667 12.5 29 12.5h543z" />
    <glyph glyph-name="emdash" unicode="&#x2014;" horiz-adv-x="1083" 
d="M939 549c11.333 0 21.166 -4.16699 29.499 -12.5s12.5 -18.166 12.5 -29.499v-76c0 -11.333 -4.16699 -21.166 -12.5 -29.499s-18.166 -12.5 -29.499 -12.5h-795c-11.333 0 -21.166 4.16699 -29.499 12.5s-12.5 18.166 -12.5 29.499v76
c0 11.333 4.16699 21.166 12.5 29.499s18.166 12.5 29.499 12.5h795z" />
    <glyph glyph-name="quoteleft" unicode="&#x2018;" horiz-adv-x="397" 
d="M261 1339c11.333 0 20.334 -4 27.001 -12s8.66699 -17.667 6 -29l-56 -265c-2.66699 -11.333 -9 -21 -19 -29s-20.667 -12 -32 -12h-49c-11.333 0 -20.333 4 -27 12s-9.33398 17.667 -8.00098 29l39 265c1.33301 11.333 6.83301 21 16.5 29s20.167 12 31.5 12h71z" />
    <glyph glyph-name="quoteright" unicode="&#x2019;" horiz-adv-x="382" 
d="M246 1339c11.333 0 20.335 -3.99902 27.002 -11.999s8.66699 -17.333 6 -28l-61 -266c-2.66699 -11.333 -9 -21 -19 -29s-20.667 -12 -32 -12h-28c-11.333 0 -20.5 4.16699 -27.5 12.5s-9.83301 18.166 -8.5 29.499l35 264c1.33301 11.333 6.66602 21 15.999 29
s19.666 12 30.999 12h61z" />
    <glyph glyph-name="quotesinglbase" unicode="&#x201a;" horiz-adv-x="360" 
d="M218 91c11.333 0 20.8291 -4.16699 28.4961 -12.5s11.167 -18.166 10.5 -29.499l-19 -281c-1.33301 -11.333 -6.16602 -21 -14.499 -29s-18.166 -12 -29.499 -12h-28c-11.333 0 -21.166 4 -29.499 12s-13.166 17.667 -14.499 29l-19 281
c-0.666992 11.333 2.83301 21.166 10.5 29.499s17.167 12.5 28.5 12.5h76z" />
    <glyph glyph-name="quoteleftreversed" unicode="&#x201b;" horiz-adv-x="339" 
d="M197 1418c11.333 0 21.1641 -4.16895 29.4971 -12.502s12.5 -18.166 12.5 -29.499v-52c0 -11.333 -1.66699 -21.166 -5 -29.499s-7.33301 -12.5 -12 -12.5c-10.667 0 -16.667 -2.33301 -18 -7c0.666992 0 1 -1.33301 1 -4l3 -23c6 -9.33301 9.16699 -20 9.5 -32
s-2.16699 -21.667 -7.5 -29c-5.33301 -6.66699 -13.166 -10 -23.499 -10s-20.166 3.66699 -29.499 11c-16 13.333 -29.333 32 -40 56l-5 11c-3.33301 18 -5.66602 27 -6.99902 27s-2 3 -2 9l-1 9v15l1 29v37c0 10 4 18.667 12 26s17.667 11 29 11h53z" />
    <glyph glyph-name="quotedblleft" unicode="&#x201c;" horiz-adv-x="641" 
d="M242 1339c11.333 0 20.498 -4 27.498 -12s9.83301 -17.667 8.5 -29l-36 -265c-1.33301 -11.333 -6.66602 -21 -15.999 -29s-19.666 -12 -30.999 -12h-59c-11.333 0 -20.333 4 -27 12s-8.66699 17.667 -6 29l60 265c2.66699 11.333 9 21 19 29s20.667 12 32 12h28z
M500.998 1339c11.333 0 20.5 -4 27.5 -12s9.83301 -17.667 8.5 -29l-36 -265c-1.33301 -11.333 -6.83301 -21 -16.5 -29s-20.167 -12 -31.5 -12h-58c-11.333 0 -20.333 4 -27 12s-8.66699 17.667 -6 29l60 265c2.66699 11.333 9 21 19 29s20.667 12 32 12h28z" />
    <glyph glyph-name="quotedblright" unicode="&#x201d;" horiz-adv-x="643" 
d="M248 1339c11.333 0 20.333 -4 27 -12s8.66699 -17.667 6 -29l-60 -265c-2.66699 -11.333 -9 -21 -19 -29s-20.667 -12 -32 -12h-31c-11.333 0 -20.5 4 -27.5 12s-9.83301 17.667 -8.5 29l36 265c1.33301 11.333 6.83301 21 16.5 29s20.167 12 31.5 12h61zM506 1339
c11.333 0 20.3359 -3.99902 27.0029 -11.999s8.66699 -17.333 6 -28l-60 -266c-2.66699 -11.333 -8.83398 -21 -18.501 -29s-20.167 -12 -31.5 -12h-32c-11.333 0 -20.5 4.16699 -27.5 12.5s-9.83301 18.166 -8.5 29.499l37 264c1.33301 11.333 6.66602 21 15.999 29
s19.666 12 30.999 12h61z" />
    <glyph glyph-name="quotedblbase" unicode="&#x201e;" horiz-adv-x="712" 
d="M218 91c11.333 0 21.001 -4.16699 29.001 -12.5s11.667 -18.166 11 -29.499l-16 -281c-0.666992 -11.333 -5.5 -21 -14.5 -29s-19.167 -12 -30.5 -12h-34c-11.333 0 -21.333 4 -30 12s-13.334 17.667 -14.001 29l-17 281c-0.666992 11.333 3 21.166 11 29.499
s17.667 12.5 29 12.5h76zM571.001 91c11.333 0 20.833 -4.16699 28.5 -12.5s11.167 -18.166 10.5 -29.499l-19 -281c-0.666992 -11.333 -5.5 -21 -14.5 -29s-19.167 -12 -30.5 -12h-27c-11.333 0 -21.5 4 -30.5 12s-13.833 17.667 -14.5 29l-19 281
c-0.666992 11.333 2.83301 21.166 10.5 29.499s17.167 12.5 28.5 12.5h77z" />
    <glyph glyph-name="dagger" unicode="&#x2020;" horiz-adv-x="1179" 
d="M1036 971c11.333 0 21.166 -4.16699 29.499 -12.5s12.5 -18.166 12.5 -29.499v-76c0 -11.333 -4.16699 -21.166 -12.5 -29.499s-18.166 -12.5 -29.499 -12.5h-324c-11.333 0 -21.166 -4.16699 -29.499 -12.5s-12.5 -18.166 -12.5 -29.499v-919
c0 -11.333 -4.16699 -21.166 -12.5 -29.499s-18.166 -12.5 -29.499 -12.5h-76c-11.333 0 -21.166 4.16699 -29.499 12.5s-12.5 18.166 -12.5 29.499v919c0 11.333 -4.16699 21.166 -12.5 29.499s-18.166 12.5 -29.499 12.5h-324c-11.333 0 -21.166 4.16699 -29.499 12.5
s-12.5 18.166 -12.5 29.499v76c0 11.333 4.16699 21.166 12.5 29.499s18.166 12.5 29.499 12.5h324c11.333 0 21.166 4.16699 29.499 12.5s12.5 18.166 12.5 29.499v374c0 11.333 4.16699 21.166 12.5 29.499s18.166 12.5 29.499 12.5h76
c11.333 0 21.166 -4.16699 29.499 -12.5s12.5 -18.166 12.5 -29.499v-374c0 -11.333 4.16699 -21.166 12.5 -29.499s18.166 -12.5 29.499 -12.5h324z" />
    <glyph glyph-name="daggerdbl" unicode="&#x2021;" horiz-adv-x="1179" 
d="M712 811c-11.333 0 -21.166 -4.16699 -29.499 -12.5s-12.5 -18.166 -12.5 -29.499v-181c0 -11.333 4.16699 -21.166 12.5 -29.499s18.166 -12.5 29.499 -12.5h324c11.333 0 21.166 -4 29.499 -12s12.5 -17.667 12.5 -29v-77c0 -11.333 -4.16699 -21.166 -12.5 -29.499
s-18.166 -12.5 -29.499 -12.5h-324c-11.333 0 -21.166 -4.16699 -29.499 -12.5s-12.5 -18.166 -12.5 -29.499v-494c0 -11.333 -4.16699 -21.166 -12.5 -29.499s-18.166 -12.5 -29.499 -12.5h-76c-11.333 0 -21.166 4.16699 -29.499 12.5s-12.5 18.166 -12.5 29.499v494
c0 11.333 -4.16699 21.166 -12.5 29.499s-18.166 12.5 -29.499 12.5h-324c-11.333 0 -21.166 4.16699 -29.499 12.5s-12.5 18.166 -12.5 29.499v77c0 11.333 4.16699 21 12.5 29s18.166 12 29.499 12h324c11.333 0 21.166 4.16699 29.499 12.5s12.5 18.166 12.5 29.499v181
c0 11.333 -4.16699 21.166 -12.5 29.499s-18.166 12.5 -29.499 12.5h-324c-11.333 0 -21.166 4.16699 -29.499 12.5s-12.5 18.166 -12.5 29.499v76c0 11.333 4.16699 21.166 12.5 29.499s18.166 12.5 29.499 12.5h324c11.333 0 21.166 4.16699 29.499 12.5
s12.5 18.166 12.5 29.499v374c0 11.333 4.16699 21.166 12.5 29.499s18.166 12.5 29.499 12.5h76c11.333 0 21.166 -4.16699 29.499 -12.5s12.5 -18.166 12.5 -29.499v-374c0 -11.333 4.16699 -21.166 12.5 -29.499s18.166 -12.5 29.499 -12.5h324
c11.333 0 21.166 -4.16699 29.499 -12.5s12.5 -18.166 12.5 -29.499v-76c0 -11.333 -4.16699 -21.166 -12.5 -29.499s-18.166 -12.5 -29.499 -12.5h-324z" />
    <glyph glyph-name="bullet" unicode="&#x2022;" horiz-adv-x="397" 
d="M198 809c26.667 0 49.5 -9.33301 68.5 -28s28.5 -41.334 28.5 -68.001s-9.5 -49.5 -28.5 -68.5s-41.833 -28.5 -68.5 -28.5s-49.334 9.5 -68.001 28.5s-28 41.833 -28 68.5s9.33301 49.334 28 68.001s41.334 28 68.001 28z" />
    <glyph glyph-name="ellipsis" unicode="&#x2026;" horiz-adv-x="1511" 
d="M199 108c26.667 0 49.334 -9.5 68.001 -28.5s28 -41.833 28 -68.5s-9.33301 -49.334 -28 -68.001s-41.334 -28 -68.001 -28s-49.5 9.33301 -68.5 28s-28.5 41.334 -28.5 68.001s9.5 49.5 28.5 68.5s41.833 28.5 68.5 28.5zM756 108c26.667 0 49.334 -9.5 68.001 -28.5
s28 -41.833 28 -68.5s-9.33301 -49.334 -28 -68.001s-41.334 -28 -68.001 -28s-49.5 9.33301 -68.5 28s-28.5 41.334 -28.5 68.001s9.5 49.5 28.5 68.5s41.833 28.5 68.5 28.5zM1312 108c26.667 0 49.5 -9.5 68.5 -28.5s28.5 -41.833 28.5 -68.5s-9.5 -49.334 -28.5 -68.001
s-41.833 -28 -68.5 -28s-49.334 9.33301 -68.001 28s-28 41.334 -28 68.001s9.33301 49.5 28 68.5s41.334 28.5 68.001 28.5z" />
    <glyph glyph-name="perthousand" unicode="&#x2030;" horiz-adv-x="2338" 
d="M1166 1429c11.333 0 19.666 -3.83301 24.999 -11.5s6 -16.834 2 -27.501l-543 -1356c-4 -10.667 -11.667 -19.834 -23 -27.501s-22.666 -11.5 -33.999 -11.5h-89c-11.333 0 -19.5 3.83301 -24.5 11.5s-5.5 16.834 -1.5 27.501l542 1356
c4.66699 10.667 12.5 19.834 23.5 27.501s22.167 11.5 33.5 11.5h89zM663 1148c0 -77.333 -27.333 -143.5 -82 -198.5s-120.667 -82.5 -198 -82.5s-143.5 27.5 -198.5 82.5s-82.5 121.167 -82.5 198.5s27.5 143.333 82.5 198s121.167 82 198.5 82s143.333 -27.333 198 -82
s82 -120.667 82 -198zM383 1028c32.667 0 60.834 11.6709 84.501 35.0039s35.5 51.666 35.5 84.999s-11.833 61.666 -35.5 84.999s-51.834 35 -84.501 35c-33.333 0 -61.833 -11.833 -85.5 -35.5s-35.5 -51.834 -35.5 -84.501s11.833 -60.834 35.5 -84.501
s52.167 -35.5 85.5 -35.5zM2163 467.004c52 -56 76.335 -123.333 73.002 -202c-3.33301 -74.667 -32.166 -138 -86.5 -190c-54.333 -52 -118.833 -78 -193.5 -78c-1.33301 0 -3.5 0.166992 -6.5 0.5s-5.16699 0.5 -6.5 0.5c-76 3.33301 -140.667 33.666 -194 90.999
c-52 56.667 -76.333 123.667 -73 201c3.33301 76.667 33.666 141.334 90.999 194.001c60 54.667 127 79 201 73c77.333 -3.33301 142.333 -33.333 194.999 -90zM1989 173.004c2 0.666992 5.00098 2.00098 9.00098 4.00098s10.833 6 20.5 12s18.334 12.5 26.001 19.5
s14.667 16.333 21 28s9.83301 23.5 10.5 35.5c1.33301 33.333 -9.33398 62.333 -32.001 87c-6.66699 7.33301 -13.5 13.333 -20.5 18s-12.167 7.66699 -15.5 9l-6 2c-24.667 6.66699 -39.667 10 -45 10h-1c-30.667 0 -57.667 -10.667 -81 -32
c-24.667 -22.667 -37.667 -50.334 -39 -83.001c-1.33301 -33.333 9 -62 31 -86c6.66699 -7.33301 13.5 -13.333 20.5 -18s12.5 -7.66699 16.5 -9l6 -2c25.333 -6.66699 51.666 -5 78.999 5zM1301 557.005c77.333 -3.33301 142.335 -33.3311 195.002 -89.998
c51.333 -56 75.333 -123.333 72 -202c-3.33301 -74.667 -32 -137.834 -86 -189.501s-118.333 -77.5 -193 -77.5h-13c-76.667 3.33301 -141.334 33.666 -194.001 90.999c-52 56 -76.333 123 -73 201s33.666 143 90.999 195c59.333 54 126.333 78 201 72zM1322 173.007
c2 0.666992 5.00098 2.00098 9.00098 4.00098s10.833 6 20.5 12s18.167 12.5 25.5 19.5s14.166 16.333 20.499 28s9.83301 23.5 10.5 35.5c2 33.333 -8.33301 62.333 -31 87c-6 7.33301 -12.5 13.333 -19.5 18s-12.5 7.66699 -16.5 9l-6 2
c-24.667 6.66699 -39.667 10 -45 10h-2c-30.667 0 -57.667 -10.667 -81 -32c-24 -22 -37 -49.667 -39 -83c-1.33301 -32.667 9.33398 -61.334 32.001 -86.001c6.66699 -7.33301 13.5 -13.333 20.5 -18s12.5 -7.66699 16.5 -9l6 -2c25.333 -6.66699 51.666 -5 78.999 5z" />
    <glyph glyph-name="guilsinglright" unicode="&#x203a;" horiz-adv-x="651" 
d="M537 742c8 -8 12 -17.832 12 -29.499s-4 -21.834 -12 -30.501l-308 -313c-8 -8 -17.833 -12.167 -29.5 -12.5s-21.5 3.5 -29.5 11.5l-55 54c-8 8 -12.167 17.833 -12.5 29.5s3.5 21.5 11.5 29.5l198 202c8 8 12 17.833 12 29.5s-4 21.5 -12 29.5l-198 202
c-8 8 -11.833 17.833 -11.5 29.5s4.5 21.5 12.5 29.5l55 54c8 8 17.833 11.833 29.5 11.5s21.5 -4.5 29.5 -12.5z" />
    <glyph glyph-name="fraction" unicode="&#x2044;" horiz-adv-x="1191" 
d="M1064 1429c11.333 0 19 -3.5 23 -10.5s3 -15.5 -3 -25.5l-792 -1362c-6 -10 -15 -18.5 -27 -25.5s-23.667 -10.5 -35 -10.5h-102c-11.333 0 -19.166 3.5 -23.499 10.5s-3.5 15.5 2.5 25.5l792 1362c6 10 15.167 18.5 27.5 25.5s24.166 10.5 35.499 10.5h102z" />
    <glyph glyph-name="Euro" unicode="&#x20ac;" horiz-adv-x="1392" 
d="M1277 245c8.66699 -9.33301 12.6689 -20.167 12.002 -32.5s-5.66699 -22.833 -15 -31.5c-133.333 -116.667 -288.333 -175 -465 -175c-94 0 -184 17.833 -270 53.5s-162.333 86.834 -229 153.501s-117.834 143 -153.501 229s-53.5 176.333 -53.5 271
c0 118.667 27.667 229.834 83 333.501s133.666 189.5 234.999 257.5c74.667 50 155.667 83.667 243 101c111.333 22 220 18.833 326 -9.5s200.667 -78.833 284 -151.5c9.33301 -8.66699 14.333 -19.167 15 -31.5s-3.33301 -23.166 -12 -32.499l-52 -52
c-8 -8 -17.5 -12.333 -28.5 -13s-20.833 2.66602 -29.5 9.99902c-104.667 90 -230.334 132.667 -377.001 128s-269 -56 -367 -154c-32 -32 -58.667 -66 -80 -102c-8.66699 -14.667 -9 -29.5 -1 -44.5s20.667 -22.5 38 -22.5h397c12 0 22.333 -4.16699 31 -12.5
s13 -18.5 13 -30.5v-18c0 -12 -4.33301 -22.167 -13 -30.5s-19 -12.5 -31 -12.5h-466c-10.667 0 -20.167 -3.66699 -28.5 -11s-13.166 -16.333 -14.499 -27c-3.33301 -20.667 -5 -45.667 -5 -75c0 -28 2 -55 6 -81c1.33301 -10.667 6.16602 -19.5 14.499 -26.5
s17.833 -10.5 28.5 -10.5h465c12 0 22.333 -4.16699 31 -12.5s13 -18.5 13 -30.5v-18c0 -12 -4.33301 -22.167 -13 -30.5s-19 -12.5 -31 -12.5h-394c-17.333 0 -30 -7.5 -38 -22.5s-7.66699 -29.833 1 -44.5c21.333 -34.667 47 -67.334 77 -98.001
c98 -98 220.333 -149.333 367 -154s272.334 38 377.001 128c8.66699 7.33301 18.5 10.666 29.5 9.99902s20.5 -5 28.5 -13z" />
    <glyph glyph-name="trademark" unicode="&#x2122;" horiz-adv-x="1314" 
d="M446 1419c11.333 0 21.1631 -4.16699 29.4961 -12.5s12.5 -18.166 12.5 -29.499v-76c0 -11.333 -4.16699 -21.166 -12.5 -29.499s-18.166 -12.5 -29.499 -12.5h-29c-11.333 0 -21.166 -4.16699 -29.499 -12.5s-12.5 -18.166 -12.5 -29.499v-456
c0 -11.333 -4 -21.166 -12 -29.499s-17.667 -12.5 -29 -12.5h-77c-11.333 0 -21.166 4.16699 -29.499 12.5s-12.5 18.166 -12.5 29.499v456c0 11.333 -4.16699 21.166 -12.5 29.499s-18.166 12.5 -29.499 12.5h-29c-11.333 0 -21.166 4.16699 -29.499 12.5
s-12.5 18.166 -12.5 29.499v76c0 11.333 4.16699 21.166 12.5 29.499s18.166 12.5 29.499 12.5h302zM1179 1429c9.33301 0 17.166 -4.16699 23.499 -12.5s9.5 -18.166 9.5 -29.499v-626c0 -11.333 -4.16699 -21.166 -12.5 -29.499s-18.166 -12.5 -29.499 -12.5h-77
c-11.333 0 -21.166 4.16699 -29.499 12.5s-12.5 18.166 -12.5 29.499v287c0 11.333 -2.66699 18.166 -8 20.499s-12 -0.833984 -20 -9.50098l-88 -96c-8 -8.66699 -17.5 -13 -28.5 -13s-20.5 4.33301 -28.5 13l-88 96c-8 8.66699 -14.667 11.834 -20 9.50098
s-8 -9.16602 -8 -20.499v-287c0 -11.333 -4.16699 -21.166 -12.5 -29.499s-18.166 -12.5 -29.499 -12.5h-77c-11.333 0 -21 4.16699 -29 12.5s-12 18.166 -12 29.499v626c0 11.333 3.16699 21.166 9.5 29.499s14.166 12.5 23.499 12.5c21.333 0 41.666 -10.333 60.999 -31
l182 -199c8 -8.66699 17.5 -13 28.5 -13s20.5 4.33301 28.5 13l183 199c7.33301 8.66699 17 16 29 22s22.667 9 32 9z" />
    <glyph glyph-name="minus" unicode="&#x2212;" horiz-adv-x="1124" 
d="M981 703c11.333 0 21.166 -3.99902 29.499 -11.999s12.5 -17.667 12.5 -29v-77c0 -11.333 -4.16699 -21.166 -12.5 -29.499s-18.166 -12.5 -29.499 -12.5l-837 1c-11.333 0 -21.166 4.16699 -29.499 12.5s-12.5 18.166 -12.5 29.499v76
c0 11.333 4.16699 21.166 12.5 29.499s18.166 12.5 29.499 12.5z" />
    <glyph glyph-name="unie992" unicode="&#xe992;" horiz-adv-x="1402" 
d="M1145 282c4.66699 4 9 3.33105 13 -2.00195l89 -110c4 -4.66699 3.33301 -9 -2 -13c-128.667 -100.667 -274 -151 -436 -151c-77.333 0 -152.333 12.333 -225 37s-138 58.5 -196 101.5s-108.833 95 -152.5 156s-77 126.5 -100 196.5s-34 145.667 -33 227
s15.833 162.333 44.5 243c33.333 93.333 85.166 175.666 155.499 246.999s152.166 124 245.499 158c138 48.667 273 59.5 405 32.5s247 -87.5 345 -181.5c4 -3.33301 4 -7.66602 0 -12.999l-100 -102c-4 -4 -8 -4 -12 0c-80 76.667 -174.167 124.334 -282.5 143.001
s-218.166 4.66699 -329.499 -42c-62 -26.667 -116.5 -64.667 -163.5 -114s-82.833 -105.666 -107.5 -168.999c-28 -78.667 -41.5 -154.834 -40.5 -228.501s16.833 -142.667 47.5 -207s70 -120.666 118 -168.999s105.333 -86.333 172 -114s136.334 -41.5 209.001 -41.5
c125.333 0 237.333 38.667 336 116zM1040 776.998l-126 -91c-4 -2.66699 -5.33301 -6 -4 -10l48 -148c1.33301 -4 0.333008 -7.33301 -3 -10s-6.66602 -2.66699 -9.99902 0l-126 91c-4 2.66699 -7.66699 2.66699 -11 0l-126 -91
c-3.33301 -2.66699 -6.66602 -2.66699 -9.99902 0s-4.33301 6 -3 10l48 148c1.33301 4.66699 0.333008 8 -3 10l-126 91c-3.33301 2.66699 -4.5 6 -3.5 10s3.83301 6 8.5 6h155c5.33301 0 8.33301 2 9 6l48 148c1.33301 4 4.16602 6 8.49902 6s7.16602 -2 8.49902 -6
l48 -148c1.33301 -4 4.33301 -6 9 -6h155c4.66699 0 7.66699 -2 9 -6s0.333008 -7.33301 -3 -10z" />
    <glyph glyph-name="a.alt1" unicode="&#xf001;" 
d="M544 23c-118.667 5.33301 -220.835 51.668 -306.502 139.001s-130.5 190.666 -134.5 309.999c-2 64.667 8.83301 126.5 32.5 185.5s56.334 109.833 98.001 152.5s91.5 76.667 149.5 102s119 38 183 38c113.333 0 214.666 -38.667 303.999 -116v84
c0 12.667 4.33301 23.5 13 32.5s19.334 13.5 32.001 13.5h69c12.667 0 23.5 -4.5 32.5 -13.5s13.5 -19.833 13.5 -32.5v-872c0 -12.667 -4.5 -23.5 -13.5 -32.5s-19.833 -13.5 -32.5 -13.5c-31.333 -0 -58.166 11.333 -80.499 34s-33.5 49.667 -33.5 81v24
c-95.333 -83.333 -204 -122 -326 -116zM565.999 790.002c-83.333 0 -154.666 -29.667 -213.999 -89s-89 -130.666 -89 -213.999s29.667 -154.833 89 -214.5s130.666 -89.5 213.999 -89.5s154.833 29.833 214.5 89.5s89.5 131.167 89.5 214.5s-29.833 154.666 -89.5 213.999
s-131.167 89 -214.5 89z" />
    <glyph glyph-name="nonmarkingreturn" horiz-adv-x="682" 
 />
    </font>
</defs>
</svg>
